<?xml version="1.0" encoding="UTF-8" standalone="no"?>
<svg
   xmlns:dc="http://purl.org/dc/elements/1.1/"
   xmlns:cc="http://creativecommons.org/ns#"
   xmlns:rdf="http://www.w3.org/1999/02/22-rdf-syntax-ns#"
   xmlns:svg="http://www.w3.org/2000/svg"
   xmlns="http://www.w3.org/2000/svg"
   xmlns:xlink="http://www.w3.org/1999/xlink"
   xmlns:sodipodi="http://sodipodi.sourceforge.net/DTD/sodipodi-0.dtd"
   xmlns:inkscape="http://www.inkscape.org/namespaces/inkscape"
   id="stage-svg"
   preserveAspectRatio="none"
   viewBox="0 0 385 385"
   version="1.1"
   sodipodi:docname="paladin.svg"
   inkscape:version="1.0.2-2 (e86c870879, 2021-01-15)">
  <metadata
     id="metadata232">
    <rdf:RDF>
      <cc:Work
         rdf:about="">
        <dc:format>image/svg+xml</dc:format>
        <dc:type
           rdf:resource="http://purl.org/dc/dcmitype/StillImage" />
        <dc:title></dc:title>
      </cc:Work>
    </rdf:RDF>
  </metadata>
  <defs
     id="defs230" />
  <sodipodi:namedview
     pagecolor="#ffffff"
     bordercolor="#666666"
     borderopacity="1"
     objecttolerance="10"
     gridtolerance="10"
     guidetolerance="10"
     inkscape:pageopacity="0"
     inkscape:pageshadow="2"
     inkscape:window-width="732"
     inkscape:window-height="480"
     id="namedview228"
     showgrid="false"
     inkscape:zoom="1.0625"
     inkscape:cx="400"
     inkscape:cy="400"
     inkscape:window-x="0"
     inkscape:window-y="0"
     inkscape:window-maximized="0"
     inkscape:current-layer="stage-svg" />
  <g
     transform=""
     id="g46">
    <g
       transform=""
       id="g44">
      <defs
         id="defs36">
        <linearGradient
           id="PlaOut044__Gradient_1"
           gradientUnits="userSpaceOnUse"
           x1="192.5"
           y1="378.975"
           x2="192.5"
           y2="203.025"
           spreadMethod="pad">
          <stop
             offset="0%"
             stop-color="#85C840"
             id="stop2" />
          <stop
             offset="100%"
             stop-color="#A7D775"
             id="stop4" />
        </linearGradient>
        <linearGradient
           id="PlaOut044__Gradient_2"
           gradientUnits="userSpaceOnUse"
           x1="192.5"
           y1="382.262"
           x2="192.5"
           y2="198.637"
           spreadMethod="pad">
          <stop
             offset="0%"
             stop-color="#85C840"
             id="stop7" />
          <stop
             offset="100%"
             stop-color="#A7D775"
             id="stop9" />
        </linearGradient>
        <linearGradient
           id="PlaOut044__Gradient_3"
           gradientUnits="userSpaceOnUse"
           x1="192.5"
           y1="2"
           x2="192.5"
           y2="76"
           spreadMethod="pad">
          <stop
             offset="0%"
             stop-color="#72CDF3"
             id="stop12" />
          <stop
             offset="100%"
             stop-color="#B1E3F8"
             id="stop14" />
        </linearGradient>
        <g
           id="PlaOut044__Layer7_0_FILL">
          <path
             fill="url(#PlaOut044__Gradient_1)"
             d="M0 163.75v3.05q.388-.15.65-.15.75 0 3.75.45l2.3.35q.55-.05 1.1-.15h.3q.15-.05.2-.15l.85-.75q.95-.7 2.7.15.9 0 2.3.3 3.7.7 4.45 2v-1.7q0-.85.25-3.4H0m275.6 3.5q2-2.3 3.45-2.7.3-.05.6 0 .3-.05.7-.05.25 0 3.15.8 3 .95 3.45.95 2.45.15 3.3 1 .4-3.3.4-3.4v-.1H264.4q.35 1.35.35 2.35 0 1.05.15 1.9 0 .45.8 5.75.2 1.3.3 2.55 1.6-.75 5.05-.9 1-4.1 4.55-8.15z"
             id="path17" />
          <path
             fill="url(#PlaOut044__Gradient_2)"
             d="M385 385V161.05H0v2.7h18.85q-.25 2.55-.25 3.4v1.7q-.75-1.3-4.45-2-1.4-.3-2.3-.3-1.75-.85-2.7-.15l-.85.75q-.05.1-.2.15h-.3q-.55.1-1.1.15l-2.3-.35q-3-.45-3.75-.45-.262 0-.65.15V385h385M279.05 164.55q-1.45.4-3.45 2.7-3.55 4.05-4.55 8.15-3.45.15-5.05.9-.1-1.25-.3-2.55-.8-5.3-.8-5.75-.15-.85-.15-1.9 0-1-.35-2.35h26.25v.1q0 .1-.4 3.4-.85-.85-3.3-1-.45 0-3.45-.95-2.9-.8-3.15-.8-.4 0-.7.05-.3-.05-.6 0z"
             id="path19" />
          <path
             fill="url(#PlaOut044__Gradient_3)"
             d="M385 161.05V0H0v161.05h385z"
             id="path21" />
        </g>
        <g
           id="PlaOut044__Layer6_0_FILL">
          <path
             fill="#265904"
             d="M143.7 157.85q-.6-.2-1-.8-.65-1-1-1-1 0-1.45 1.3-.5 1.35-1.5 1.35-1.5 0-2.35-2.3-.15-.35-.5-.65-.65 2.25-.9 3.5 0 .3.1 2.1.1 1.35.35 2.4h7.9q-.2-1.25-.2-2.2 0-1.05.55-3.7M19.85 151.6q-1.1.5-1.35.6-.65.2-2 2.05-1 1.4-1.2 2.05-.2.05-.3.05-.15 0-1.3-1.45-1.15-1.5-2.15-1.5-.75 0-1.9 1.25-.55.7-1.2 1.55-.3.35-2 1.45-.6.45-.95.8-.8-.55-1.4-2.05-.15-.5-.25-.9-.6-.95-2.05-1.25-1.005.386-1.8.8v8.7h18.85v-.1-1.4q.05-1 .7-6 .3-2.15.3-4.5v-.15m263.55 4.65l-.05-.05q-1.15.3-1.8.3-.15 0-1.05-.7-1-.6-2.15-.6-.45 0-1.6.6-1.15.6-1.7.6-1.55-.9-2.55-.9-.45 0-2 .55-1.5.6-1.65.6-.5 0-1.5-1.6-.2-.4-.45-.65-.2-.05-.35-.15-.2.3-.35.65-.65.9-1.5.9-1.55 0-2.3-1.4-.15-.15-.15-.35-.4.15-.8.35-.45.2-.85.4.2.55.55 1.3.7 1.45 2.3 5 .6 1.45.95 2.65h26.25q0-.95-.15-3.9-.15-2.45-.1-4.15-.9-.2-2.3-.2-.15.2-.3.45-1.1 1.55-2.25 1.55-1 0-2.15-1.25z"
             id="path24" />
          <path
             fill="#666"
             d="M83.8 96.6q1-1.7 1-2.55 0-2.2-4.55-4.65-4-2.15-7.15-2.3-.35-.25-1.05-.25-2.85.4-5.7.55-5.8.55-8.65.55-2.15-.65-3.95-.65-6.9 0-9.35 2.4-1.6 1.55-1.6 4.85 0 .5.2 1.85.2 1.3.2 1.8v2.1q.05 1.55 1.05 1.55h2.1q-1.1.65-1.7.95h-.85q-1.1-.05-1.55.2-.05 0-.15.05.1-1.75.1-2.75 0-1.7-.25-2.55-.55-2.15-2.6-2.15-1 .1-2.95-1-1.65-1-1.75-1-1.05-.85-2.15-.85l-2.9-.2q-3.55 0-6.6 2.85-3.4 3.2-3.4 8.1 0 .1.3 2.85.45 2.75 1.95 2.75.35.25 1 .5.2.05.35.15l.1.7q.05 1.05.05 1.8-.05.15-.15.35-.6 1.9-.5 2.6.15 1.05 0 2.65-.1.85-.25 2.55 0 .45-.45 5.6-.15 2.45-.15 4.95 0 3.65-1.85 12.5-.1.35.05.6-.2.45-.2.75 0 .35.15 3.5 0 1-.15 3.3v.15q0 2.35-.3 4.5-.65 5-.7 6v1.5q-.25 2.55-.25 3.4v1.7q-.75-1.3-4.45-2-1.4-.3-2.3-.3-1.75-.85-2.7-.15l-.85.75q-.05.1-.2.15h-.3q-.55.1-1.1.15l-2.3-.35q-3-.45-3.75-.45-.262 0-.65.15v11q1.26.4 3.4.4l1.7-.15q.4 0 .7.1.2.05.5.2 1.35.65 3.3.65 1.4-.3 1.65-.3l1.5.15q.55.05 1.5.05.5 0 .75-.2h.1q.9 0 1.3-.1h2.15v.25q0 .75.05 1.15.15 1.05.3 1.2.15.15.3.4.2.25.65.25.85.15 2.2.15 1.15 0 1.55-.1-.143-.048-.25-.05h.5q2.6 0 3.8-.35.15.1.5.1.8 0 4.45-2.25h.05v2.25q.1.7.25 1.25v.2q0 .15.35.4.1.05.25.05.3.15.75.25h4.65q2.65 0 6.95.1.3 0 .65.05 1.45-.3 3.45-.75 3.2-.85 4.3-1.25 2.2-.85 4.05-1.15.1 0 .15-.05.3.65 1.55 1.35.9.15 2.75.8 3.85.9 10.15.9.45 0 1.6.15.3.1.7.1 1.7.2 2.3.2 4.9 0 7.85-1.05Q87 182.5 91.1 181q.75-.25 2.15-1.1v4.75q.2 2.5 2.05 2.5 1 0 2.25-.1.2.1.45.1h10q3.9.2 6.2.2l5.45-.4 4 .25q.35 0 1.05-.05h.3q2.5 0 4.55-.4 2-.3 3.7-.3l2.75.2q2 0 2.7-1.2.75-1.3.45-4.6-.1-1.15.25-3.15.3-2.3.3-3.25 0-.3-.4-2.15-.4-1.7-.55-2.15-.2-.85-1.2-2.2-1.25-1.85-1.45-2.15-.45-.85-.65-2.05-.25-1.05-.35-2.4-.1-1.8-.1-2.1.25-1.25.9-3.5.15-.7.35-1.4 1.45-5.3 1.45-10 .15-1 .2-1.45.1-.6-.15-1.05v-.55q-.15-2.95-.05-3.7.15-2 .15-3.35-.1-1.65-.1-3 0-5.25-.15-7.1v-4.35q-.15-3.55-.15-3.85l-.05-4.6q-.1-.25-.1-.7-1.05-3.05-1.05-3.7 0-.75.2-1.35.1-.25.15-.45 0-.1-.05-.2-.15-.5-.25-.8-.15-.65-.55-.95-.5-.4-2.6-1.35-2.3-1.1-3.05-1.1h-1.15q-1.15 0-2.55.15h-.05q-1.85.15-2.85.25-.3-.3-3.55-.25h-.15l-4.2.15h-.65q-2.6.1-4 .25-1.35.15-2.5.15-3.45-.15-5.3-.15-1.4.45-3 2.2-.7 1.45-.85 3.7 0 .15-.7 3.6-.75 3.45-.75 4v.1q-.15-.15-.4 0-.45-.1-1.2-.1h-1.3q.055-.002.2-.05l-6.3.15q-.6-2.4-.9-3.65-.55-2.15-1.15-3.5-1.65-3.85-1.7-4.1-1.7-2.8-3.75-2.8-.3 0-.55.05-.25-.05-.4-.05h-.15q-.2-.1-.2 0h-.5q.35-.25 1.15-.8 1.1-.7 1.4-1.05.75-.85 1.7-2.4m-22.65 5.6q.45-.05 1.15-.05.15 0 .55.05-2 1.95-3.1 6.45-1.15 4.3-1.15 8.6v.1q-.2-.55-.45-1.1-1.25-2.45-1.25-2.85 0-.05.5-.9.45-.85.45-1.15 0-.75-1.3-3.9-1.4-3.1-1.4-3.55.1-.7 0-1.1.3-.05.6-.15.4-.05 1.1-.2h3.05q.25 0 .55-.15.3 0 .7-.1m-39.8 66.1l.1.1h-.1v-.1m102.9-32.9q-.05-.1-.05-.25.05-.15.05-.25.1.15 0 .5M330.5 77.7q-1.7 3.55-1.85 5.4-3.25.05-6.9.05l-2.5.4q-2.45.4-4.1.4-1.35 0-1.85.15-.55-.25-.95-.3-2.35-.8-2.9-.8-.3-.05-.6-.05h-1.8q-1.3.05-2.75-.15-1.7-.4-2.85-.4H291.4q-2.4.15-5.45-.1-4.85-.2-6-.3-.6 0-1.9.25-1.3.15-2.7.15h-3.3q-9.6-.4-11.2-.4l-4.75.3q-1.95 0-3.85.25-1.9.15-2.85.15-6 0-10.65.95-1.8.3-2.8.6-1 .55-1.8.75-.1 0-.2.1-.2-.25-.3-.4-.3-1.05-2.05-1.85-.3-.15-.55-.2-.25-.25-.6-.25l-5.45-.15q-.45 0-1.1.05-2.15-1.15-15.9-4.05-2.8-.45-6.3-.9-4.45-.55-6.9-.95-1.65-.3-3.2-.5-1-.2-2-.2-4.3-.35-4.9.65-.5.15-.8.85-.3.75-.3 1.9 0 .6-.25 1.7-.15.7-.15 1.15V82h-.45q-3 0-4.65 1.15l-.5-.3q-1.9-1.35-2.6-2.3-.55-.7-1.4-1.6-.05-.25-.15-.45-.6-1.4-1.3-2.3-.35-.8-.7-1.15-.45-.7-1.5-1.15-.8-.25-4-.55-3.3-.3-5.55-.3-3.6.05-7.2.6-7.2 1.05-7.2 5.6l.05.4q-.3.7-.45 1.85-.45 2.15-.45 3.5v.85q0 .25-.1.45-.2 1.8-.2 2.4 0 .05.05 1.7 0 .3.1.6v.7q0 .45.15.9.2.55.55.8.2.6.65 2 .85 2.65.85 4.75 0 1.2-.2 5.5-.8 2.55-1.25 5.4-.15.75-1.55 6.65-.5 2.65-.6 5.15-.3.55-.25 1.45 0 .85.25 2.5 0 .3.1 2.95 0 1.1.15 3.1 0 .75-.15 2.45-.1.9.15 3.05.15 1.85.15 5.7 0 1 .15 3.1.05 2.15.05 3.3l-.05 2.2q0 1 .15 1.55-.1 1.3-.6 3.6v.05q-.55 2.65-.55 3.7 0 .95.2 2.2.2 1.25.65 2.8.85 3.05.85 6.15 0 .6-.1 1.75-.15 1.3-.15 1.85l.1 1.75q.05.4.15.7.65.6 1.05 1.15 0 .1.1.15.45.15 1.3.4h.45q-.3 2.45-.3 4.3 0 2.45.15 3 .6 1.6 2.4 2.05.45.3 1.35.4.8.1 1.6 0v.1q.15 0 1-.1 1-.1 2.1 0l3.85.25q1.6 0 5.95.05.7 0 1.3-.05l8.7.3q2 0 3.15.15 1.15.05 1.55.05h.9q6.6 0 11.35-4.05 4.1-3.45 5.1-8.9h.05q4.85 0 8.15-.8.7-.15 1.3-.35h.1q.85-.15 7.2-.3-.15 2.05-.15 4.15 0 1.3.3 5.6 0 .35-.25 1.45-.05.9.35 1.45 1.15 1.45 6.65 1.6 0 .4 4.75 0 2.4-.15 5-.35h2q1.3 0 2.7-.25h10.8q2.5 0 4.55-.4 1.1-.2 1.75-.5h.15q.5 0 5.15-.7 3-.4 7.25-.55 1 0 .9-3.05h3.4q2.35.5 3.8.65h5.15q.85-.5 1.4-2.05h.05q1.25.4 3.65.4 3.2 0 5.3-.15-.15 1.5-.15 2.45 0 1.85.3 2.45 1.05 2.05 4.9 1.3h9.45q.45-.1 13.35-.4h5.55q2.75-.6 12.55-.75 1.4 0 1.95-.75 4.15-.4 5.2-4.15 4.4 2.6 8.05 2.6H355.65q.3-.1 1.3 0 .85-.15 1.25-.55.25.1.55.3.9.55 2 1.55.5.25 1.15.55.7.3 1.3.75l.05.1q2.25 1.15 4.4 1.15 2.85 0 5.85-.65 2.95-.7 3.75-.7 2.162 0 7.75.35V83.65q-.072.032-.15.05-.95.15-1.15.15-2.7 0-15.9-.7-13.75-.75-14.75-.85h-7.45q-.15-.3-.45-.65-1-1.4-1.3-1.85-5.15-7.3-7.9-7.3-3.1 0-5.45 5.2m18.7 31.65l-.35-5.9q0-1.8-.4-2.7l1.6-.15v-.1q3.85.1 7.05.5 2.8.35 8.85.45-3.85 1.85-3.85 6.75 0 2.4.4 3.75.4 1.45.4 3.1 0 .75-1.7 6.3-1.7 5.5-1.7 10.4 0 .25.15.95.25.7.25 1 0 .45-.4 4.2l.55 7.3q0 2.15.2 7.7 0 .7-.45 4.45-.9-.7-2.15-.95-.6-2.15-.55-4.8 0-.55-.3-4.3-.35-3.95-.35-4.95l.3-9.6q.2-1.5.2-2.35-.05-1.55-.8-2.45-.65-.55-2.65-.85-2.15-.15-2.85-.3-1.2-.25-2.15-.15 0-5.55.35-10.7.35-6.2.35-6.6M233.65 85.3q-.05 0-.2.15.05-.15.15-.2l.05.05m1.95 9.25q-.15-.25-.3-.65.45.65 1.15.95-.1 0-.2.05-.45-.2-.65-.35m-63.05 7.5V102q.1 0 .15.05h-.15m117.8 36.5q-.1 2.3-.1 8.75 0 .2.15 3.3.1 3.2 0 4.9v.2q-.05 1.7.1 4.15.15 2.95.15 3.9v.1q0 .1-.4 3.4-.85-.85-3.3-1-.45 0-3.45-.95-2.9-.8-3.15-.8-.4 0-.7.05-.3-.05-.6 0-1.45.4-3.45 2.7-3.55 4.05-4.55 8.15-3.45.15-5.05.9-.1-1.25-.3-2.55-.8-5.3-.8-5.75-.15-.85-.15-1.9 0-1-.35-2.35-.35-1.2-.95-2.65-1.6-3.55-2.3-5-.35-.75-.55-1.3-.45-.95-.6-1.3-.55-1.3-.7-2.3-.05-.25-.05-.4-.1-1.35-.1-1.45v-.6q.1-.3.1-.7v-.4q0-2.3.3-3.6.55-2 1.05-4.3.1-.55.4-3.7.25-3.2.25-4.45.15-4.9.15-7.3 0-2.3-.15-5.5-.2-3.3-.2-3.55 0-.75.4-5.3.3-4.6.3-6.15 0-.5-2.9-1.65-3.3-1.3-3.55-1.55-.45-.3-1.05-.85 1 .15 1.45.15 2.3.15 4.75.85 2.6.6 3.55.7 7.45.55 15.95.4 1.55 0 13.15-2.55.85-.25 2.75-.4-1 1.15-1.85 3.45-.85 2.45-1.85 6.6-.65 2.4-.9 5.8-.15 1.9-.25 5.65v9.45q-.5 3.85-.65 8.7z"
             id="path26" />
          <path
             fill="url(#PlaOut044__Gradient_3)"
             d="M124.2 135.15q0 .15.05.25.1-.35 0-.5 0 .1-.05.25M235.3 93.9q.15.4.3.65.2.15.65.35.1-.05.2-.05-.7-.3-1.15-.95m-1.85-8.45q.15-.15.2-.15l-.05-.05q-.1.05-.15.2z"
             id="path28" />
          <path
             fill="url(#PlaOut044__Gradient_1)"
             d="M21.45 168.4l-.1-.1v.1h.1z"
             id="path30" />
          <path
             d="M172.55 102v.05h.15q-.05-.05-.15-.05z"
             id="path32" />
        </g>
        <path
           fill="#333"
           d="M137.4 111.35q-.1-.25-.1-.7-1.05-3.05-1.05-3.7 0-.75.2-1.35.1-.25.15-.45 0-.1-.05-.2-.15-.5-.25-.8-.15-.65-.55-.95-.5-.4-2.6-1.35-2.3-1.1-3.05-1.1h-1.15q-1.15 0-2.55.15-.3.4-.7.75 0 .1-2.5 2.1-1.1.9-1.85 1.9-.85.8-1.55 2.7-.85 2.4-.85 3.45 0 .55.25 1.45.3 1.1.3 1.5 0 .95-1.45 1.35-1.85.4-2.7 1.45-.4.4-1.15 2.45-.3.5-.45.85-.3.5-.45.85-.2.4-.2.8 0 .6.35 1.2.3.6.3 1.55 0 1-.85 3.45-.55 1.55-.8 2.85 0 .05.1.2 0 .15-.15.5v.6q0 1.3 1.45 3.15.75.9 1.45 1.85 0 1.2-3.05 3.8l-2.1 2.1q-.05.05-.05.15.15.3.45.85.75 1.45.75 2.45 0 .3-.2 1.25 0 .65-.95 2.45-.9 1.85-.9 2.5 0 .05.05.25.3.8 1.8 3.9.3.5.45 1 .45-.2.9-.35 1-.4 2.4-.95 1.15-.35 2.1-.9 1.35-.7 1.9-1.55.35-.55.4-1.15.05-.7.35-1.05-.35-.5-.7-1.15-1.5-2.7-1.65-2.85-.25-.5-.8-2.55-.45-2-.45-2.4 0-2 2.4-6.2 2.75-4.55 3.5-6 1.3-2.35 1.8-3.05.85-1 1.6.05.55.8.75 1.7.1.25.3 2.7.25 2.6.25 3.35v.25q.15 1.3.15 1.7 0 1.2-.85 3-.7 2.2-2.2 5.8-1.95 4.4-2.7 5.85v.3q0 .4-.1.7.4.6.85 1.4 0 .1.1.2.2.5 1.05 1.5 1.3 1.45 2.3 1.45.85 0 .95-1.3.05-1.35.85-1.35.7 0 .75.7.1.4 0 .7 0 1.3.3 4.6.25.15.25.55 0 .25-.3 1.1-.1.2-.15.4-.2.45-.35.65-.15.1-.3.45-.05.4-.3.7-.55.9-.55 1.55 0 .6.55 1.15.1.05.15.2 2.3.85 2.3 3.3 0 .55-.45 1.5-1.15 1.3-3.75 1.45-.1.05-.15.15-.8.7-1 1.05.15 1.7 1.2 2.55.15 0 .35.1.6.3 1.45.75 4.3 2.4 4.3 5 0 .85-.15 1.05-.35.7-1.7.85-2.95.7-4.4.95h.3q2.5 0 4.55-.4 2-.3 3.7-.3l2.75.2q2 0 2.7-1.2.75-1.3.45-4.6-.1-1.15.25-3.15.3-2.3.3-3.25 0-.3-.4-2.15-.4-1.7-.55-2.15-.2-.85-1.2-2.2-1.25-1.85-1.45-2.15-.45-.85-.65-2.05-.25-1.05-.35-2.4-.1-1.8-.1-2.1.25-1.25.9-3.5.15-.7.35-1.4 1.45-5.3 1.45-10 .15-1 .2-1.45.1-.6-.15-1.05v-.55q-.15-2.95-.05-3.7.15-2 .15-3.35-.1-1.65-.1-3 0-5.25-.15-7.1v-4.35q-.15-3.55-.15-3.85l-.05-4.6M12.75 169.6q-.35.1-.65.35-3.3 1.75-3.3 4.45 0 1.05.8 2.45.1.15.2.2l.3.5q.15.2.3.35.55 0 1.45.15 1.3.4 2.15.55.1.1.25.1.05 0 .2.05l.55-.05h.1q.9 0 1.3-.1h2.15v-.05-.25q0-.55-.1-.75-.05-.8-.15-1.65-.15-1.6-.15-3.2v-.3q0-.65.05-1.3.1-.7.2-1.5-.7-.2-1.35-.45v.1q-.15-.15-.35-.15 0-.1-.1-.1-.2-.05-.45-.05h-.55q-1.15-.15-2.75.6-.1 0-.1.05m25.9-61.25q-.7-.3-1.9-.3-1.8 0-2.35 3.35-.3 1.7-.2 3.4 0 1.75-.45 2.85-.4.85-1.95 3.35-.5 1-.6 2.85 0 1.1.1 3.25 0 .85.15 1.9.05 1 .05 2.3 0 .7.15 1.95.25 1.2.25 1.95 0 .7-.15 4.8-.4 2.3-.7 3.5.05.25.05.7 0 .1-1.2 1.6-1.25 1.55-1.25 3.1 0 .05.8 2 .75 2 .75 4 0 .15-.05.4-.25 1.65-2.4 7.4-.05.3-.15 1.05-.15.85-.3 2.35.6.35.85 2.35l-.4 2.15q0 .1.4 3.3 0 .15.3 2.7.35 2.45.35 2.95v.3q-.05 1.15-.3 1.35-.3.15-.85.3.15.1.5.1.8 0 4.45-2.25h.05v-.65q.25-.55.3-1.25 0-.55-.05-1.25l-.3-2.45q0-1.5 1.3-7.6.3-1.3.5-2.4.8-4.05.8-5.8v-.25q-.1-.6-.45-2.15-.65-1.95-.65-2.15.1-2.15.15-3.5-.15-.25-.15-.55.1-.25.15-.4 0-.35.15-.6v-.25q-.15-1.6-.15-2.15 0-4.35 1.4-13.7.15-.95.7-3.4.2-1 .4-1.7-.2-1.85-.2-1.9 0-1.7.5-5.25.3-3.2.6-4.1 1.25-4.3 1.3-4.8.15-.45.45-1.2.4-.8.5-1.15l.05-.1q-.7 0-1.3-.3m42.15-7.45q-.75.3-1.55 1.4-.85 1.3-1.7 3.75-1.5 4.45-1.5 7.35 0 1.55 1 8.1.05.65.05 2t.1 1.95q0 .65.45 2.1.3 1.4.3 2.05 0 .1.25 2.65 0 .45.05.85.4.8.4 1.05 0 1-1.15 2.75-.3.55-.55 1-.3 1.1-.55 1.85.1.25.5 1.15.35 1.15.35 1.55 0 .05-.05.75 1.15.3 1.15 1 0 .4-.45 1.55-.5 1.05-.5 2.2l.15 2.15q-.35.1-.45.65-.15.45-.15 1.45v4.9q0 .25.25 3.1l.15 3.15v.4q-.05.8-.25 2.35-.15 2-.15 2.9 0 3 .25 9.75 0 1.75-1.45 3.6-.4.5-.8.95-.05.15-.15.3l-.3.3q.3.1.7.1 1.7.2 2.3.2 4.9 0 7.85-1.05Q87 182.5 91.1 181q.75-.25 2.15-1.1.9-2.15.9-6.35v-.1q-.2-3.3-.2-3.75v-.45q-.2-.3-.25-.7-.45-1.3-.45-1.85-.2-1.8-.25-2.95-.15-1.4-.15-1.75 0-.5.3-2.6.25-1.75.25-2.5l-.15-2.55q0-.2-.05-.3 0-.1-.05-.15-.3-.7-.3-2.45l.55-4.5q-.1-1.35.05-2.3 0-.5.1-.85v-.95q.6-.65 1.55-3 1.75-4.65 2.9-6.7 1.75-3.05 2.3-5.3.3-1.15.45-2.55.45.5 1.1 1 2.15 1.8 4.3 1.8.75 0 .9-.8 0-.85-3.3-4.3-3.3-3.35-3.35-3.45-.65-.75-1-1.9-.4-1-.7-1.7-.15-.25-.25-.45-.3-.45-.6-.6-.15-.15-.4 0-.45-.1-1.2-.1h-1.3q.055-.002.2-.05l-6.3.15q-.6-2.4-.9-3.65-.55-2.15-1.15-3.5-1.65-3.85-1.7-4.1-1.7-2.8-3.75-2.8-.3 0-.55.05m-41.45-5.3q-1 .1-2.95-1-1.65-1-1.75-1 .45.3.75.8 0 .05-1 .65-.65.4-1.8 1.1-2.95 1.6-2.95 3.7.95 3.6.95 3.65 0 .65-7.15 4.7-.75.4-1.6.9.35.25 1 .5.2.05.35.15l.1.7q.05 1.05.05 1.8.25-.45.7-.85 0-.15.25-.35.15-.25.45-.55.3-.25.7-.45.4-.25.9-.55 2.6-1.15 3.25-1.45 1.5-1.15 2.9-2 2-1.3 2.55-.85.85 0 2.6.7 1.9.6 2.75 1.15.1-.25.25-.6.05-.3.2-.65.4-.9.55-1.35.15-.45.25-.8.15-.35.45-.6.1-1.75.1-2.75 0-1.7-.25-2.55-.55-2.15-2.6-2.15m44.45 1q1-1.7 1-2.55 0-2.2-4.55-4.65-4-2.15-7.15-2.3.35.15.35.6 0 .55-1.15 1-1.7.6-2.65 1.05-1.35.7-2.3 1.7Q65.9 93 65.9 95.3q0 1.4.9 2.55.85 1.15.85 1.3 0 .3-.05.6-.15.3-.7.45H65q-1.65 0-9.4.8-1.35.15-2.5.3-2.25.2-4 .3-1.55.15-2.75.25-1.1.65-1.7.95h1.7v.1q0 .25 1.45-.25.15 0 .35-.05.95 0 .7 1.15 0 .7-2.45 9.05-2.45 8.35-2.45 9.2 0 2.15.55 6.3.6 4.1.6 4.25l.6 3.65q.65 3.7.65 4.15v.8q.15.3.2.75 0 .75.15 2.4 0 .5.3 3.3 0 1.15-.15 4.45v1.4q-.05 2.5-.05 4.65 0 .55-.45 3.15-.25 1.55-.45 2.5t-.35 1.35q-.85 2.35-.85 7 0 1.75.1 2.5.05.65.35 3.1.1.5.65 2.8.2 1 .3 1.8.05.55.05.9 0 .45-.3.65.3 0 .65.05 1.45-.3 3.45-.75 3.2-.85 4.3-1.25 2.2-.85 4.05-1.15.1 0 .15-.05.3-.35.45-1.55.1-.6.1-1.45 0-.95-.55-2.95-.55-2.05-.7-2.8-.2-1.25-.7-2.8-.05-.75-.5-1.3.05-.9.2-2.15 0-.55-.15-1.95-.1-.95-.3-2.25-.4-3.3-.4-3.85l.25-1.55q.45-2.7.65-3.95.1-.75.1-.95.15-4.7.15-5 .1-3.6.1-6.2.25-.85.4-1.4.35-1.85 2.15-4.35 1.6-2.15 1.6-2.35 0-.5-1.15-.9T59 129.95q0-.85.15-2.15.15-1.4.15-2.15-.3-1.5-.3-2 .3-1.15.3-2 0-.85-.1-1.65-.15-1.3-.5-2.5-.1-.1-.1-.15-.2-.55-.45-1.1-1.25-2.45-1.25-2.85 0-.05.5-.9.45-.85.45-1.15 0-.75-1.3-3.9-1.4-3.1-1.4-3.55.1-.7 0-1.1.3-.05.6-.15.4-.05 1.1-.2h3.05q.25 0 .55-.15.3 0 .7-.1.45-.05 1.15-.05.15 0 .55.05.3.1.65.25 1 0 1.95-.1h.7q2.45-.05 4-.45h1.15q1.2.1 2.5 0h3q2.1-.15 2.6-.9l.15-.15q.35-.25 1.15-.8 1.1-.7 1.4-1.05.75-.85 1.7-2.4m198.25 75.35l-4.1-5.65q0-.6.65-1.15.45-.45 1.05-.6-.3-.05-.6 0-1.45.4-3.45 2.7-3.55 4.05-4.55 8.15.75-.1 1.7-.1h.05q1.35 0 2.5.15 1.75.15 3.2.45 2.1.65 2.55 1.55.05.25.05.45v.8q-.05.35-.05.9-.1.15-.1.4v.2q-.05.5-.15 1.15 0 .35-.05.55 0 .15-.1.3v.25q-.15.6-.3 1.05v.1h.05q1.25.4 3.65.4 3.2 0 5.3-.15.05-.5.15-.95 0-.3.05-.55v-9.5q0-.15.1-.4.05-.75.3-1.9.05-.3.15-.95-.4.5-.75 1.15-1.65 2.25-1.7 2.5-.1.2-.45 2-.1.2-.15.35-.55 1.45-1.5 1.85-.2.1-.35.15h-.3q-.7 0-1.2-.3-.65-.55-.95-1.7 0-.15-.1-.35 0-.2-.1-.35-.5-2.9-.5-2.95m-87.1-91.4q.15.15.25.3-.45.15-1.3.25-1.45.15-4.15.15-.6 0-1.15.1-3.3.05-4.45.65-.3.15-.45.3.3-.05.6-.05.45 0 1.2-.1h.35q1.05 0 2.8-.05h1.7q2-.1 3.85-.15 2.15-.1 4.05-.1h.85q1.45 0 7.75.55 6.25.45 6.8.45 2.5 0 5.9-.3 2.5-.25 4.35-.25-2.15-1.15-15.9-4.05-2.8-.45-6.3-.9-4.45-.55-6.9-.95-1.65-.3-3.2-.5l3.35 4.65M352.8 98.5h-8.05q-6.2 1.1-8.5 1.35-.45.05-1.25.05-.55 0-.85.1h-2.45l-.2.05q-.25 0-3.7-.35-1.15-.1-1.55-.2-.15 0-.3-.05h-.05q-1.55-.1-2.55-.75-.1 0-.15-.1-.15-.1-.4-.15-2.9-.6-4.35-.85-1.5-.25-2.4-.05.3-1.15.3-4 0-2.25-.05-3l-.2-1.45q-.05-.95-.45-1.5-.35-.6-.7-1.45-.05-.05-.05-.2-.4-.95-.55-1.3-.15-.2-.2-.35-.5-.15-.85-.2-.55-.25-.95-.3.25.3.4.65.25.5.4 1.1.05.1.05.15.15.45.25 1 .3.6.45 1v.1q.05.2.15.5.1.15.15.4.25.45.4 2.4.05.3.05.6.25 1.55.25 1.9 0 .65-.15 1.15 0 .45-.15.85-.1.15-.15.3-.15.8-.25 1.15h-.55l-1.65.25h-.1v-.15L310 97q-6.3-.4-7.4-.4-6.05 0-10.75.7-4.6.7-5 .7l-3.05.35q-.4 0-2.45.15-2.1.1-2.3.1l-4-.25q-2 0-4.2.25-2.35.1-2.95.1-7.8 0-14.75-1.85-6.9-1.95-15.9-1.95-.45 0-.8-.05-.1 0-.2.05-.45-.2-.65-.35-.15-.25-.3-.65-.4-.45-.7-1.15-.7-1.45-.7-2.45-.3-3.05-.3-3.3 0-.9.15-1.55v-.15h-.1q-.05 0-.2.15-.3.25-.8.65-.05.2-.05.5 0 .1.45 5.5.3 1.6.85 2.75-1.15.2-2.45.35-3.3.55-7.9.55-1.7-.05-2.95-.15-3.9.6-6.3.6l-3.5.35q-.95 0-2.1.05-.9.1-2.05.15-.25 0-1.95.3-.2.1-.5.15-4.15 1.25-5.85 1.25l-2.85.25H193.95q-1.45.05-2.3.05-2 0-3.5-.05-1.3 0-2.3-.1-3.7-.7-3.95-.7-.2 0-.45-.05h-.85q-2.45 0-4.15.15-1.85.2-4.3.7-4.45.9-4.5.9h-.15q.05.1.05.15v.1q-.4-.1-.75-.4-.3-.1-.45-.3-.1-.1-.1-.15-.6-.8-1-2.15-.15-.25-.25-.65-.15-1.15-.3-1.8-.2-1.8-.2-1.85v-2q.05-.6.9-2.55.55-1.15 1.45-2.05.15-.5.55-1 .7-.95 1.55-1.4.2-.4 1.6-.6 1-.15 2.15-.15 1.85 0 2.85.6l1.05.7q.5-.3 1.4-.95h.1l-.5-.3q-1.9-1.35-2.6-2.3-.55-.7-1.4-1.6-.3-.3-.5-.6-.45-.5-.85-.8-.4.95-3.85 2.85-4.15 2.15-4.7 4-.35 1.05-1.3 3.75.15 1.45-.3 1.95-.75.65-5.6.65-2.05 0-5.85.65-3.35.5-4.45.5-.2.25-.5.25-.35 0-.55-.55v-.05q-.1-.25-.15-.55v.7q0 .45.15.9.2.55.55.8.2.05.45.05l3.65-.3 5.65.25q.35.05 1.15.15h.2q1.6 0 3.55.7-.85.3-1.85.6-4.05 1.3-4.3 1.35-1.1.55-1.7 2.5-.3 1.05-.55 2.6-1.2 4.05-1.35 5.05-.4 2.45-.4 5l.25 3.9v1.3q0 .25-.1.5.1.5.1 1.35 0 2.15-.1 2.95-.15.9-.15 2.8 0 2-.15 3l-.15 6.55q0 .2.1 2.45 0 .75.2 2.4 0 .65-.05.9-.1.3-.25.45v.1q0 1.15-.55 4.6-.7 3.7-.7 3.9-.1 1.85-.1 5.1-.05 1.5-.05 3.35l-.45 2.85q-.45 2.9-.45 3.9v6.7q0 .05-.15 4.85-.15 2.05-.45 3.2-.35 1.45-.85 1.45h-.25q0 .1.1.15.45.15 1.3.4h.45q.1-.85.25-1.75.15-1 .35-2.1.95-5 .95-8.5 0-.25-.15-.7-.25-.55-.25-.75 0-.55.35-2.9.35-2.7 1.2-7.85.15-1 .35-2.1 1.95-11.8 2.1-13.8 1.45-20.3 1.45-26.65 0-3.9 1.15-7.05 2.1-6 7.6-6 .6 0 2.4-.15 1.35-.1 2.2-.15.15.15.65.15H168.8q.9-.25 2.85 0 3.65.35 4.95 1.45 1 1.3 2.25 4.55.2.6.6 2.3.4 1.35.7 2.2.15.25.25.3.15.25.3.4.45.7 1.5 1.55 2 .75 7.8.75 4.1 0 4.45 2.05.2 1.15-.55 3-.1 1.7 0 5 0 .3-.1 5 0 .25-.05.4.6 1.75.6 2.15 0 1.2-.3 1.65-.6.85-2.75.85-1.8 1.55-2.65 2.95-.45 2-.8 3-.65 1.65-3.55 2.5-4.7 2.8-5.6 7-.1.45-.45 3.45-.25 2.1-.85 3.4l1 .05q.45-.2.9-.45 2.25-1 2.7-1 1.05 0 1.55.3.35.15.8.25l1.4-.1q.7-.15 1.55-.45 1.45-.55 2.35-.55 1.55 0 2.7.8.4.25.65.45.3.3.3.55 0 1.15-2 1.9l-3.15 1.05q-.65.35-1.45.7-3.35 1.4-3.35 2.95v.9q.25 0 1.25-.05.65 0 1.2.4.65.55 1.1 1.75.4 1.05.45 2.2 0 .85-.75 1.45-.45.4-2.05 1.55-.7.55-.8 1.4v1.6q.15 0 1.15-.3.8-.25 1.6-.25 1.25 0 1.85.85.3.45.3.9 0 1.25-1.5 7.25-.15.6-.45 4-.1.35-.25.75-.3 1.05-.75 1.6.15.1.15.25 0 1-1.5 1.6-1.3.55-3.3.6h.4q6.6 0 11.35-4.05 4.1-3.45 5.1-8.9.35-1.85.35-3.85l-.35-10.5q.35-3.65.35-4.1l.15-9.5q0-.95-.2-3.7-.3-2.85-.3-5.35 2.2-24.8 2.2-28.2-.35-4.3-.7-5.6-.6-2.15-1-2.75-.45-.95-1.65-1.15-.1 0-4.1-.4-.35-.1-.75-.1-1.15-.05-3-.3.4-.05.6-.05.7-.15 1-.15.25.15.7.15.4 0 1.7-.15 2.55-.25 8.3-.85 3.5 0 6.8-.8.65-.15 1.25-.3 1.45-.35 3-.65-.1 1.05-.85 2.9-.55 1.05-1.85 3.9-2.6 6.15-2.6 13.2 0 1.4.15 2.1v8.05q.1.4.4 4 .2 3.45.2 4.2 0 .85-.3 2.55-.3 1.75-.3 2.55 0 .6 1.15 12.8l.1 1.2q.35 3.9.6 6.6.45 5 .45 5.85 0 .55-.4 2.4 0 .25.1.85.05.85.3 2.45 0 .85-1.9 1.55.85-.15 7.2-.3.1-.65.1-1.15v-7.55q-.25-2-.25-2.9v-.4q-.1-.35-.15-.8-.05-.3-.1-.65 0-3.1-.05-3.9-.15-1.5-.2-3.05-.1-1.75-.1-3.55.2-6 .2-9.3 0-.55.15-1-.15-.4-.15-.65 0-.75.15-1.65.1-.95.1-1.95-.15-2.6-.15-5.3l-.25-3.9q0-.7-.15-2.7-.05-1.6 0-2.65.1-1.1-.05-3.25-.1-1.9-.1-2.05 0-.55.1-.8-.1-.3-.1-.7.15-1.6.15-2.75 0-1.2 2.15-4l-.05-.35.2-2.1-.2-3.5q0-2 1-2.65.2-.15 4.9-2.15.45 0 1 .1H224.2q.4.05 1.1.05 1.3 0 1.55-.05.05 0 .2-.15.1-.15.25-.15h.9q.65.35 1.3.35h.1q2.05 0 4.45-1.2 1.05-.6 1.6-1.15.15.05.3.15.4.45 1.3.55.25.05.8.15.45.15 1.2.45 1.3.45 3.1 1.05 1.2.65 2.45 1.5 0 .05 2 1.6 3.7 3.05 4.9 7 .55 1.9 1.6 6.65 1.1 5.4 1.1 7.2 0 .1-.1.35-.05.15-.05.3 0 .7.45 7.9 0 2.3-1.25 6.9-.65 2.7-.95 3.85-.35.55-.4 1.7-.1.75 0 2.3l.2 6.5q0 .8-.15 2.55-.1.7-.1 1.25-.1.9-.1 1.35 0 .95-.15 2.75-.25 1.85-.25 2.65v.1q.05.25.15 1.1.25 1.1.7 1.1h.1q0 .05.05.05.85.95.6 1.8l.5 9.2-.65 5.75q0 .3.25.75 0 .55-.4 2.1-.2 1-.3 1.6-.05.45-.05.7v.7q.15.6.65.7h.15q.5 0 5.15-.7 3-.4 7.25-.55 1 0 .9-3.05-.05-.55-.05-1v-1.15q-.1-.5-.1-.95v-.3q0-.85-.1-1.75 0-.25-.05-.5 0-.65-.1-1.35-.05-.85-.2-1.7-.1-1.25-.3-2.55-.8-5.3-.8-5.75-.15-.85-.15-1.9 0-1-.35-2.35-.35-1.2-.95-2.65-1.6-3.55-2.3-5-.35-.75-.55-1.3-.45-.95-.6-1.3-.55-1.3-.7-2.3-.05-.25-.05-.4-.1-1.35-.1-1.45v-.6q.1-.3.1-.7v-.4q0-2.3.3-3.6.55-2 1.05-4.3.1-.55.4-3.7.25-3.2.25-4.45.15-4.9.15-7.3 0-2.3-.15-5.5-.2-3.3-.2-3.55 0-.75.4-5.3.3-4.6.3-6.15 0-.5-2.9-1.65-3.3-1.3-3.55-1.55-.45-.3-1.05-.85 1 .15 1.45.15 2.3.15 4.75.85 2.6.6 3.55.7 7.45.55 15.95.4 1.55 0 13.15-2.55.85-.25 2.75-.4 1.45-.15 3.6-.15 2.25-.05 5.15 0 1.55 0 2.75-.05h.55q.4.05.8.15 1.15.15 2.5.15h1.95q.75-.1 1.35-.25.95-.15 1.25-.55.05-.15.2-.35.7.2 1.65.6 3.65 1.7 5.95 4.05.95 1.5 1.95 4.15 1.15 3 1.15 4.45 0 .5-.25 1.25-.3.75-.3.85 0 4.05.45 9.2.15 2.25.85 9.05.4 3.25 1.55 9.15 1.15 6.3 1.55 9.15.35 3.2 1.9 9.1.25.95.5 1.8.4 1.7.75 3.1.65 2.7.9 4.2.1.65 1 5.8.3 2 .75 4.6.65 3.35.95 5.25.05.6.2 1.15.15 1.05.15 1.3 0 1.25-.15 1.6-.05.25-.2.5 4.15-.4 5.2-4.15v-.15q.1-.25.15-1.1 0-.9.1-2.7v-.35-1.5q0-.9-.1-1.8v-.8q.15-.05.4-.2 4.45-2.8 8.5-3.25.8-.05 1.5-.05h.15l2.8-.65q1.15 0 2 .3.4.2.7.4.3.25.6.55.35.3.5.55.45.6.45 1.15 0 2.15-.1 2.6-.15.4-.15 2.55v.3q0 3.3-1 4.95-.15.25-.35.55-.1.1-.15.25-.1.2-.25.45.25.1.55.3.9.55 2 1.55.5.25 1.15.55 1.15-.7 1.65-2.85v-.1q.4-1.45.4-3.35 0-1.25 1.3-5.7t1.3-9.3q0-1.8.05-3.4.05-2.45.25-4.55.2-1.7.35-3.25.25-2.95.5-5.5v-7.95q.1-.45.4-1.9.4-1.6.4-2.15 0-.25-.25-.85-.15-.7-.15-.9 0-.5.25-1.25.3-.9.35-1.6.15-1 .15-2.85 0-1.6.1-4.05.25-2.85.25-4.25.05-1.35.5-4.3.5-2.7.5-4.05-.1-3.7.05-4.15.85-2.3 5.2-4.05 1.7-.65 7.95-3 .3-.15.6-.35.523-.237 1-.5v-2.8h-.95q-.6-.05-1.15-.05-.5-.1-1-.15-2.15 0-8.8-.1h-1.15q-3.25.65-3.7.65-2.35 0-3.35-.35-2.7-.05-6.15-.35-4.15-.45-5.95-.65m-2.75 2.1v-.1q3.85.1 7.05.5 2.8.35 8.85.45-3.85 1.85-3.85 6.75 0 2.4.4 3.75.4 1.45.4 3.1 0 .75-1.7 6.3-1.7 5.5-1.7 10.4 0 .25.15.95.25.7.25 1 0 .45-.4 4.2l.55 7.3q0 2.15.2 7.7 0 .7-.45 4.45-.9-.7-2.15-.95-.6-2.15-.55-4.8 0-.55-.3-4.3-.35-3.95-.35-4.95l.3-9.6q.2-1.5.2-2.35-.05-1.55-.8-2.45-.65-.55-2.65-.85-2.15-.15-2.85-.3-1.2-.25-2.15-.15 0-5.55.35-10.7.35-6.2.35-6.6l-.35-5.9q0-1.8-.4-2.7l1.6-.15m-12.5 1.15q-.1.25-.1.6 0 .65.25 2.25.3 1.6.3 1.9l-.3 3.7q-.25 4-.25 5.35 0 1.4-.2 6.1 0 2.45-.1 3.9-.05 1.45-.05 3 0 4.9-.65 11.3-.15-.5-.3-.85-2.35-7.55-2.35-13 .35-3.9.35-4.35 0-3-1.15-7.45-1.75-6.55-2-7.6-.2-2.95-.6-4.4-.05-.35-.25-.75 3.5.45 5.4.45 1-.05 2-.15m.05 41.85q.85.15 2.15.4.7.15 1.65.3 3.45 0 4.3 2.85.15.6.15 3.3 0 2.15-1.15 6.8-.3 1.35-.6 2.4-.45 1.3-.85 2.2 2.6.85 3.3 1 .45.1.9.25.4.05.75.15.55.1 1.1.25 1.05-.5 1.05-2.4 0-.75-.15-3.4v-.05q0-.6-.05-1.25-.1-1.6-.25-3.75-.45-7.2-.45-7.5 0-3.7-.45-8.45-.25-1.95-.3-3.6-.1-.85-.2-1.65v-1.3q-.05-.4-.05-.75.9.05 2 .45.6.15 1.15.4l.05.05q1.15.45 2 .95.35.2.65.45.75.45 1.05 1.05.85 4.85.85 6.45 0 6.6-1.85 14.15-.05.4-.15.7-.15.3-.15.6-.25.6-.4 1.25-.3 1.35-.5 2.45-.3 1.05-.45 1.75-.25 1-.25 1.1-.25.9-.45 1.75-.15.3-.25.45-.05.2-.1.35-.05.1-.05.2h.4q.9.3 1.2 1 .15.2.15.6v.15q0 .75-1.5 2.1-.35.2-.65.45l-.15.15q-1.35 1-3.6 2.3-3.6 2-5.05 2.85-.1-.7-.15-1.3-.25-1.3-.5-2.65-.45-2.3-1.2-4.65v-.15q-.2-.55-.35-1.05-.05-.1-.05-.2-.05-.15-.05-.2-.1-.35-.15-.65-.2-.55-.25-1.05-.15-.45-.3-.95-.1-.35-.15-.65-.95-3.75-.95-6.15 0-.25.25-.65.15-.3.15-.5 0-.15-.1-.7-.05-.25-.15-.55-.3-1-.3-1.45.4-1.55.4-2 0-.25-.1-.45 0-.45-.15-1.15-.3-1.15-.7-2.85m-8.95-60.5q1.35 0 2.75-.1 6.2-.15 10.15-.7h4.05q-.15-.3-.45-.65-1-1.4-1.3-1.85-5.15-7.3-7.9-7.3-3.1 0-5.45 5.2-1.7 3.55-1.85 5.4z"
           id="PlaOut044__Layer5_0_FILL" />
      </defs>
      <use
         xlink:href="#PlaOut044__Layer7_0_FILL"
         id="use38" />
      <use
         xlink:href="#PlaOut044__Layer6_0_FILL"
         id="use40" />
      <use
         xlink:href="#PlaOut044__Layer5_0_FILL"
         id="use42" />
    </g>
  </g>
  <g
     transform="translate(-262 0)"
     id="g74">
    <g
       transform=""
       id="g72">
      <defs
         id="defs61">
        <path
           fill="#725849"
           d="M269.65 95.45l-.1-.1v-.2q-7.45-25.5-41.75-23.45-43.5 5.8-89.7.05-3.05-.6-17.35-3.3V62.7h-24V48.3h-12V31.9h-2.4q.05-.2.15-.35l1-2.4q1.95-5.3 2.75-11.2.35-2.35.45-4.8.1-3.65-.4-7.45v-.25q-.4-2.7-1.05-5.45-4.85.35-11.2 5.65-4.2 3.5-5.5 5.6-.35.4-.6.85-.25.3-.4.6h-10.8v8.4H27.7q.35-1.05.75-2Q23.3 8.4 12.8 6.2l-1.9-.5q-.6-.15-1.15-.25-.9-.2-1.8-.35-3.5-.6-6.9-1.4-4.75 24.2 12.4 37.85v.05l-.25.6h-.05q-.55 1.2-1 2.45-.25.5-.4 1.1-2.55 7.2-2.1 14.6.05.75.15 1.5.5 5.2 2.55 10.45l.2.6Q13 74.4 13.6 76q.35.95.75 1.9l.3.8q.25.7.55 1.4.05.15.1.35v.05q.6 1.45 1.25 3l.2.4q1 2.3 2.15 4.7l1.65 3.4q.05.1.1.25l.4.7q.05.15.15.3.55 1.2 1.2 2.4.15.3.25.6.1.25.25.55.1.35.25.7 1.85 5.4 1.15 11.8-.05.1-.05.2l-.3 1.3v.15q-1.1 8-.15 14.6.45 3 1.35 5.75v.05q.15.5.35 1 .3.85.7 1.7 1.75 4.15 4.65 7.5 1.8 2.05 4 3.85 4.15 3.6 9.95 5.15 1.6.35 3.1.45h.65q3.45.1 6.35-1.1 1.9-.8 3.6-1.85.2-.15.45-.3 3.55-2.4 6.15-6.1.5-.75 1-1.55 1.25-2 1.4-2.15.95-1.5 1.75-3 .15-.2.2-.35.1-.25.5-1.1.4-.85.7-1.4.15-.35.2-.45l.15.1v-.05q.3.25.75.65 4.35 2.7 7.65 6.25 1.1 1.2 2.05 2.45 5.75 8.3 6 19V175q0 9.95-.15 19.95 0 1-.05 2.05 0 .95-.05 1.95v17.95h16.65v5.65h26.4v-.6q-.1-.5 0-.7v-1.3q-.1-.5 0-.7v-58.5q20.25 2.3 45.8 2.3 17.2 0 31.95-1.05v55.1h18.1v5.45h25.25v-.1-.2q.05-.15.15-.25v-.25-.35-1.4-.25-.35-13.45-3.25-2-2.05-3.7-18.3q0-10.35.15-18.25l1.1-.45q20.35-8.65 18.8-43.8l-.1-2.1q-.05-.2 0-.35-.05-.25-.05-.5v-.05q.1-2.05.05-4.05-.1-3.7-.85-7.45l-.2-.9q-.3-1.4-.7-2.8-.05-.2-.1-.35l.1.1.1.1v-.05q-.05-.1-.15-.25l-.1-.1.1.05m-148.9-25.8v-.9q4.2.9 7.2 1.6-1.6-.15-3.6-.35-2-.2-3.6-.35z"
           id="PetPet004__Symbol_6_0_Layer0_0_FILL" />
        <path
           fill="#463329"
           d="M82.6 167.6q0 9.95-.15 19.95 0 1-.05 2.05 0 .95-.05 1.95v17.95h16.5v-58.75q-11.1-3.35-21.55-16 5.05 7.9 5.3 17.9v14.95M21.1 23.3q.25-.85.25-2.55 0-3.05-2.1-6.45-2.1-3.45-5.3-6.3Q10.7 5.15 6.7 4.05T.1 2.3L0 7.75Q0 15.8 4.6 22.3T15.05 29q.35.05 1.5-.3 1.9-.65 3.05-2.5 1.2-2.05 1.5-2.9M76.85 6.1q-.05-2.95-.1-6.1-10.2 4.7-16 14.15-.3.7-.5 1.35-.2.5-.35 1-.65 1.9-.65 3.65 0 3.8 2.1 6.9 2.05 3 4.35 3 3.25 0 5.6-4 1.55-2.6 4.2-10.35 1.3-3.8 1.35-9.6M221.5 152.8q-8.65 1.1-18.35 1.8v55.1h18.1v5.45h.25V152.8z"
           id="PetPet004__Symbol_7_0_Layer0_0_FILL" />
        <path
           fill="#17100C"
           d="M9 70.2q0-2.4-1.25-4.05-1.4-1.7-3.25-1.7t-3.15 1.7Q0 67.8 0 70.2t1.35 4.1q1.3 1.65 3.15 1.7 1.85-.05 3.25-1.7Q9 72.6 9 70.2m14.85 0q0-2.4-1.25-4.05-1.4-1.7-3.25-1.7t-3.15 1.7q-1.35 1.65-1.35 4.05t1.35 4.1q1.3 1.65 3.15 1.7 1.85-.05 3.25-1.7 1.25-1.7 1.25-4.1M47 11.85q4.1-20.55 0-5.4-1.05 5.15-3.05 10.2l-.5 1.15q-.05.1-.1.25l-.2.4q-.25.55-.5 1.15-.2.4-.4.85l-.4.9-.8 1.8q-.85 1.65-1.7 3.4-.05.1-.1.25-.25.45-.55 1-.55 1.2-1.2 2.4-2.7 6.15-1.9 13.65.05.1.05.2l.3 1.3q1.65 11.75-1.15 20.5l-.05.05q-.05.15-.05.25l.05.05.15.1v-.05q.3.25.75.65 1.1-3.2 1.65-6.8.95-6.6-.1-14.6-.05-.1-.05-.15l-.3-1.3q0-.1-.05-.2-.7-6.4 1.2-11.8.1-.35.25-.7.1-.3.2-.55.1-.3.25-.6.65-1.2 1.2-2.4.1-.2.2-.35.25-.45.45-.9.65-1.35 1.3-2.65l.8-1.7q.4-.9.8-1.75l.9-2 .2-.4q.65-1.55 1.25-3V15q.05-.2.1-.35.3-.7.55-1.4l.3-.8q.15-.3.25-.6z"
           id="PetPet004__Symbol_8_0_Layer0_0_FILL" />
        <path
           fill="#621F00"
           d="M47 6.5q-2.75-2.8-6.05-4.4-10.2-4.15-21.1 0Q13.5 4.25 9.8 9.5q-.45.6-.85 1.3-.8 1.25-1.45 2.7-.4.95-.75 2-.95 2.55-1.95 5.85l-.45 1.35q-.35 2.35-.9 5.2Q1.8 35.95 0 38.05q4.25-1.25 8.9-6.5.7-.8 1.35-1.6.8-1 1.65-2.15 1.05 1.7.45 4.95-.3 1.45-.9 3.15-.05.05-.05.15h.05q17.6-1.25 25.65-16.9-1.9 7.75.9 16.5 0 .1.05.2 0 .05.05.15 1.45 2.9 2.45 4.95-.15-.35-.1-.55v-.75l-.1-2.7q0-.2.05-.9v-.1q0-.45.05-1.05.05-1.8.85-2.95.25.4.45.8 1.1 1.8 2.1 3.1 2.05 2.8 3.35 2.95-1.4-1.65-2-7.25-.1-.8-.15-1.6-.35-4.7-.25-11.7-.05-.8-.05-1.55v-1.2q0-.7.05-1.25 0-4.2 1.8-7.15.15-.3.4-.6M115 71v-.05Q113 57.9 101.1 54q-2.25-.65-5.2-2-3.1-1.4-7-3.5-8.35-5-13.15-12.3-.6-.9-1.1-1.8l-.15-.3-.2-.3q-1.85-3.2-4.15-5.5-.4-.35-.75-.7-3.05-2.75-6.85-4.05-.5 1.2-.75 1.85-.25.65-1.25 3.05-1.05 2.35-1.95 3.8-.9 1.45-1.9 3.15 3.05 3.1 4.75 7.3.05.2.15.4.35.95.7 2 .55 1.85.85 3.9.35 4.3.15 8.5-.1 1.7-.25 3.4-2.25 10.95 1.6 21.95 1.15 3.95 1.6 12.65.95-6.3 1.45-9 0-.2.05-.35L67.9 85q.3-1.9.65-4.7.3-2.75.6-6.4.15-2.4.3-4.4.35-4.65.5-7.3.55.45 1.3 1.7 2 2.7 3.65 5.6l.9 1.7q1.6 3 2.8 6.25 1.8 4.8 2.75 10.05.45 1.6.6 4.25.1 1.4.1 3.15v2.05q-.05.45-.1.85 7.4-9.95 6.45-21.7l2.15 3.5q2.3 3.55 1.15 8.15-.7 2.8-1.5 5.55-1.45 5 1.1 13.55-.3-6.5 2.8-12.7 1.95-4.25 5.1-8 .3-.35.6-1.05.2-.5.4-1.15.45-1.7-.3-4.95.8.65 1.65 1.8.95 1.3 1.45 2.95.65 2.5.15 5.05-.5 2.6-.7 5.25-.2 2.35 1.15 3.3.45-3.8 3-8.45 2.5-4.7 3.1-4.45.55.25.7 3.05.1 1.55 0 3.65 0 1.3-.25 10.7 1.7-2.15 2.85-5.6 1.85-5.7 2.15-14.95v-2.8q0-3.55-.1-6.2 0-.7-.05-1.3m-8.25 9.6v.05q-.1-.05-.15-.1.05 0 .15.05m149.1 13.85q-4.65-3.95-5.05-3.95-.45-.05-1.6-.5l-.5-.15-.1-.05q.2.2.25.35v.05l-.2-.2q.05.15.1.35 2.15 7.7 1.7 15.2v.05q0 .25.05.5-.05.15 0 .35l.1 2.1q.4.85 1 1.9.4.8.75 1.65 3.9 31.1-13.9 61.05 8.95-2.8 13.05-15.85 4.1-13.15 4.75-23.85.3 13 .6 15.45-.4 2.15-.9 5.2-2.25 13.25-11.4 24.5 6.65-3 9.9-5.8-.1.6-.1 1.2-.15 3.85-2.25 5 6.65 5.45 12.3 3.65 5.65-1.8 7.9-4.65-2.2-20.2-4.1-34.1 4.5 15.1 9.8 35.2-6.2-43.25-11.85-61.95-5.65-18.75-10.3-22.7m4.05 28.75h.05l.05.15q-.05-.1-.1-.15z"
           id="PetPet004__Symbol_9_0_Layer0_0_FILL" />
        <path
           fill="#2E0E00"
           d="M12.4 13.1q.05-.05.1-.15v-.25l-.1.4m0 0q-2.25 2.7-4.25 6.95Q6.5 23.55 6 25.7q-.45 1.9-2.65 4.4Q.45 33.45 0 34q4-1.4 8.4-6.35.7-.8 1.35-1.6.8-1 1.65-2.15.3.5.5 1.1-.1-1.4-.5-2.4-.5-1.35-.5-2.6 0-1.55.25-2.7.2-.9 1.25-4.2M46.3 2.9q-.3-.4-1.55-1.1-10.7-4.05-19.5.95-2.45 1.4-4.85 2.6v.1q2.6-1 5-1.4 2.4-.45 5.9-.35 3.5.1 4.85.65v.1q-7.8 2.1-11.95 7.1-2.1 2.5-4.2 7.65v.15q6.25-6.6 12.2-9.45 3.15-1.55 6.9-2.25-1.4.9-1.45.95-2.35 1.6-4 4.45-1.55 3.15-2.4 4.4-5.15 7.85-7.45 10-1.7 1.6-3.8 2.9 10.8-3.8 16.6-15.1-1.9 7.75.9 16.5 0 .1.05.2 0 .05.05.15 1.45 2.9 2.45 4.95-.15-.35-.1-.55v-.75l-.1-2.7q0-.2.05-.9v-.1q0-.45.05-1.05.05-1.8.85-2.95.25.4.45.8 1.1 1.8 2.1 3.1 2.05 2.8 3.35 2.95-1.4-1.65-2-7.25-.1-.8-.15-1.6-.35-4.7-.25-11.7-.05-.8-.05-1.55v-1.2q0-.7.05-1.25 0-4.2 1.8-7.15.05-.15.2-.3m19.65 20.8q-1.2-1.35-4-3.8-.45 1.1-.9 2.15-.1.2-.15.35-1.6 3.55-3.75 6.8-.2.45-.4.8l-.55 1.5q.3-.5.2.1l-.2-.1q3.05 3.1 4.75 7.3.05.2.15.4.35.95.7 2 .55 1.85.85 3.9.35 4.3.15 8.5-.1 1.7-.25 3.4-2.25 10.95 1.6 21.95 1.05 3.6 1.5 11.15.15-2.65.7-10.6.4-5.8.3-8.4-.05-1.25.25-10.3.35-9.8.35-12.3 0-4.65-.85-8.6-1-4.9-3.15-7.55v-.15q2.3 2.2 5.8 8.25 3.35 5.75 4.85 9.75v.15q.6-6.15-.8-12.25-1.1-4.6-2.95-7.9-2.65-4.65-4.2-6.5m15.5 64.15q.1 1.4.1 3.15v2.05q-.05.45-.1.85.2-.3.45-.6.4-1.35.65-2.7.2-1.35.2-4.65 0-9.6-2.7-17.55-3.25-9.7-10.65-17.7v.5q.1 2.35.1 7.15l.1.1q.5.45 1.15 1.55 2 2.7 3.65 5.6l.9 1.7q1.6 3 2.8 6.25 1.8 4.8 2.75 10.05.45 1.6.6 4.25m5.6-25.95l.9 10.4 2.1 3.4q2.3 3.55 1.15 8.15-.7 2.8-1.5 5.55-1.05 3.55 0 8.95.15-5.2 2.2-10.15 2.25-5.45 2.25-7 0-4.6-1.55-8.9-1.7-4.55-5.55-10.4m-.15-.2q.05.1.15.2l-.05-.2h-.1m11.25 2.65v.1q.05.95.7 5.85.5 3.6.6 4.85.1.05.2.15.7.65 1.4 1.6.95 1.3 1.45 2.95.65 2.5.15 5.05-.5 2.6-.7 5.25-.2 2.35 1.15 3.3.05-.5.15-1.05.1-4.65 1.25-7.8 1.25-3.55 1.25-5.25 0-3.35-2.75-7.55-4.7-7.15-4.85-7.45m13 5.85H111q-.05.5-.2 2.9-.2 2.55-.55 4-.25.95-1.5 3.7.25-.3.45-.25.55.25.7 3.05.1 1.55 0 3.65 0 1.2-.2 9.6 2.95-7 2.95-16.1 0-4.05-.1-5-.25-2.6-1.4-5.55M267.7 140q.5 1.65 1 3.35L264.4 124q3.8 46.05 1 54.25 4.45-1.7 6.4-4.15-2.2-20.2-4.1-34.1m-18.25-48.25q0 .15.05.35 6.1 8.7 7.2 22.75-2.25-10.4-6.65-15.1l-.1 1.9v.05q0 .25.05.5-.05.15 0 .35l.1 2.1q.4.85 1 1.9.4.8.75 1.65 3.9 31.1-13.9 61.05 8.95-2.8 13.05-15.85 4.1-13.15 4.75-23.85 1.2 14.4-2.1 27.95-3 9.1-9.6 17.2 6.65-3 9.9-5.8l4.9-30.55q-.25 24.3-1.5 28.4 10.5-9.25 3.75-42.85-3.3-28-11.65-32.15m10 27.55l.05.15q-.05-.1-.1-.15h.05z"
           id="PetPet004__Symbol_10_0_Layer0_0_FILL" />
        <path
           d="M311.75 123.5q-1.2 0-2.05.8-.8.85-.8 2.05 0 1.2.8 2 .85.85 2.05.85 1.2 0 2-.85.85-.8.85-2t-.85-2.05q-.8-.8-2-.8m16.2 0q-1.2 0-2.05.8-.8.85-.8 2.05 0 1.2.8 2 .85.85 2.05.85 1.2 0 2-.85.85-.8.85-2t-.85-2.05q-.8-.8-2-.8z"
           id="PetPet004__Layer3_1_FILL" />
        <g
           id="PetPet004__Layer3_0_FILL">
          <path
             fill="#333"
             d="M358.85 273.4v9.2h16.5v6.3h26.55v-9.85h-26.4v-5.65h-16.65m120.8.2v9h17.4v6.3h25.8l.1-4.95q.05-.95.05-1.85v-.5-1.9-.5-.15h-25.25v-5.45h-18.1z"
             id="path54" />
          <path
             fill="#FFF"
             d="M349.2 131.7q1.45-6.7-1.85-12.85-1.25-2.35-2.9-4.05-2.75-2.85-6.55-4.05-6.2-1.95-11.65 1.45-1.8 1.1-3.15 2.6-2.6 2.85-3.6 7-1.15-4.2-3.85-7-1.3-1.35-2.95-2.35-5.45-3.4-11.6-1.4-3.7 1.15-6.3 3.75-1.85 1.8-3.2 4.3-1.1 2.05-1.65 4.15-1.25 4.05-.65 7.65.45 2.95 2.15 5.6.25.5.6.95 1.75 2.7 4.7 4.55 5.4 3.3 11.6 1.45 6.15-2.05 9.45-8.15 1.1-2.05 1.7-4.2.55 2 1.65 4 3.25 6.1 9.5 8 6.1 2 11.6-1.35 5.4-3.4 6.95-10.05z"
             id="path56" />
          <path
             fill="#6F2100"
             d="M399.35 144.7q-.1-.05-.15-.05.05.05.15.1v-.05z"
             id="path58" />
        </g>
      </defs>
      <use
         xlink:href="#PetPet004__Symbol_6_0_Layer0_0_FILL"
         transform="translate(271.65 58.5)"
         id="PetPet004__col1n" />
      <use
         xlink:href="#PetPet004__Symbol_7_0_Layer0_0_FILL"
         transform="translate(276.5 65.9)"
         id="PetPet004__col1d" />
      <use
         xlink:href="#PetPet004__Symbol_8_0_Layer0_0_FILL"
         transform="translate(307.75 123.95)"
         id="PetPet004__col1s" />
      <use
         xlink:href="#PetPet004__Symbol_9_0_Layer0_0_FILL"
         transform="translate(292.6 64.1)"
         id="PetPet004__col2n" />
      <use
         xlink:href="#PetPet004__Symbol_10_0_Layer0_0_FILL"
         transform="translate(293.1 68)"
         id="PetPet004__col2d" />
      <use
         xlink:href="#PetPet004__Layer3_0_FILL"
         id="use68" />
      <use
         xlink:href="#PetPet004__Layer3_1_FILL"
         id="use70" />
    </g>
  </g>
  <g
     transform="translate(-16 0)"
     id="g88">
    <g
       transform="rotate(375 193 193)"
       id="g86">
      <defs
         id="defs80">
        <path
           fill="#999999"
           d="M83.6 13.15q3.95-1.3 7.05-.6L79.15 0Q79.6 3.2 78 7.05L67.35 16.8q-2.3 1.5-4.7.35l-28.6 26.3-1-1.05q-3.7-3.95-6.55-7.3-1.85-2-3.4-3.9-11.5-13.7-11-18L0 24.3q8.05 4.1 17.4 12.15 1.85 1.6 3.85 3.5 3.95 3.45 8.05 7.85l-.1.65-6.85 12.75 16.35-3.05h.1l.1.1q2.75 3.05 5 5.9 11.55 14.05 15.85 25.3l12.1-11.1q-5.25.3-23-18.75-2.05-2.15-4.3-4.7l-1-1.1 28.6-26.3q-.85-2.4.8-4.6l10.65-9.75z"
           id="ObjToo038__Symbol_198_0_Layer0_0_FILL" />
        <path
           fill="#747474"
           d="M9.5 36.65l5.75-5.25-9.5-10.35L0 26.3l9.5 10.35M13.4 14l-6.3 5.8 9.5 10.35 6.3-5.8L13.4 14m10.85 9.1l6.7-6.15-9.5-10.35-6.7 6.15 9.5 10.35M38.1 10.35L28.6 0l-5.8 5.35 9.5 10.35 5.8-5.35z"
           id="ObjToo038__Symbol_131_0_Layer0_0_FILL" />
        <path
           fill="#D9D9D9"
           d="M151.5 11.25L153.35 0 9.1 132.4l-.5 1.45L0 150.3l17.7-6.55 145.15-133.4-11.35.9z"
           id="ObjToo038__Symbol_78_0_Layer0_0_FILL" />
        <path
           fill="#EEEEEE"
           d="M148.55 1.9l-2.1.15.35-2.05L7.05 128.45q-14.95 14.95 1.75 1.9L148.55 1.9z"
           id="ObjToo038__Symbol_37_0_Layer0_0_FILL" />
      </defs>
      <use
         xlink:href="#ObjToo038__Symbol_198_0_Layer0_0_FILL"
         transform="translate(264.2 134.4)"
         id="ObjToo038__col1n" />
      <use
         xlink:href="#ObjToo038__Symbol_131_0_Layer0_0_FILL"
         transform="translate(298.25 151.55)"
         id="ObjToo038__col1d" />
      <use
         xlink:href="#ObjToo038__Symbol_78_0_Layer0_0_FILL"
         transform="translate(140.15 182.2)"
         id="ObjToo038__col2n" />
      <use
         xlink:href="#ObjToo038__Symbol_37_0_Layer0_0_FILL"
         transform="translate(145.2 191.4)"
         id="ObjToo038__col2l" />
    </g>
  </g>
  <g
     transform=""
     id="g103">
    <g
       transform=""
       id="g101">
      <defs
         id="defs96">
        <path
           fill="#FFD3A8"
           d="M191.5 95.8q0-39.7-28.05-67.75-16.2-16.2-36.3-23.05-14.7-5-31.4-5t-31.4 5q-20.1 6.85-36.3 23.05Q0 56.1 0 95.8q0 32.25 18.5 56.85l.05.05q.6.75 1.2 1.55l1 1.2L28 163.5q0 .05.05.05l.7.7q3.5 3.4 7.15 6.4v.05l-.05-.05q-5.81 7.718-10.6 17.75-.078.183-.2.35l-.3.7q-.06.17-.15.35-.117.253-.25.5l-2.6 6.15q-5.345 13.608-8.3 30.1-.05.2-.05.4-.15 2.45.15 4.85Q15.7 245.9 31 249.35q.2.05.45.1l.05-.05q.15.05.25.05.2.6.4 1.15.4.95 1.1 1.75 0 .05.05.1v19.45q-3.9.7-7.8 2.5-.6.267-1.2.55-.94.67 0 .8h143.25q1 0 0-.6-.775-.405-1.55-.75-3.9-1.8-7.8-2.5v-19.45q.05-.05.05-.1.7-.8 1.1-1.75.2-.55.4-1.15.1 0 .25-.05l.05.05q.25-.05.45-.1 15.3-3.45 17.45-17.55.3-2.4.15-4.85 0-.2-.05-.4-3.7-20.65-11.15-36.75-4.8-10.45-11.15-18.95h-.05q0-.1-.1-.2 3.65-3 7.15-6.4l.7-.7q.05 0 .05-.05l7.25-8.05 1-1.2q.6-.8 1.2-1.55l.05-.05q18.5-24.6 18.5-56.85z"
           id="SkiSki001__Symbol_10_0_Layer0_0_FILL" />
        <path
           fill="#F7BE86"
           d="M-36.05 227.75h-.2l-3.9.15-1.3.1q-8.5.6-13.15 1.65-4.7 1-5.35 1.3-.15.05-.25.1 8-1.3 16.1-1.8.3-.05.65-.05l2-.1q.2-.05.35-.05h.3q15.4-.65 30.05 2l4.15.7q1.15.2 2.3.45 1.75.35 3.45.75l.3.1q.1 0 .2.05.15 0 .3.05-.4-.15-.8-.25-1.7-.6-3.45-1.05-.55-.15-1.05-.3-.15-.05-.25-.05-10.8-3-22-3.6-.4-.05-.8-.05-.55-.05-1.15-.05l-6.5-.05m3.4-52.2q3.05 1.2 6.25 0 1.6-1.65.35-3.6-.1-.15-.15-.25-3.05-1-6.9 0-.5.7-.6 1.4-.2 1.1.8 2.25.1.1.25.2M3.2 203.7q-1.25-1.15-2.25 0-.05.25 0 .55.25 1.6.15 3.25l.1.05q.7.3 1.05-.35l.1-.2q.15-.45.3-.85.25-.8.4-1.55.05-.15.05-.3l.1-.6m55.4 25.95q-4.65-1.05-13.15-1.65l-1.3-.1-3.9-.15h-.2l-6.5.05q-.6 0-1.15.05-.4 0-.8.05-11.2.6-22 3.6-.1 0-.25.05-.5.15-1.05.3-1.75.45-3.45 1.05-.4.1-.8.25.15-.05.3-.05.1-.05.2-.05l.3-.1q1.7-.4 3.45-.75 1.15-.25 2.3-.45l4.15-.7q14.65-2.65 30.05-2h.3q.15 0 .35.05l2 .1q.35 0 .65.05 8.1.5 16.1 1.8-.1-.05-.25-.1-.65-.3-5.35-1.3M29.55 173.1q-.2 1.1.8 2.25.1.1.25.2 3.05 1.2 6.25 0 1.6-1.65.35-3.6-.1-.15-.15-.25-3.05-1-6.9 0-.5.7-.6 1.4z"
           id="SkiSki001__hll_0_Layer0_0_FILL" />
        <path
           fill="#DE9957"
           d="M-54 165.45q-.05.05-.05.1l-4.3 21.85q-.45 2.1-.85 4.05l-.1.6q-.2.8-.35 1.6-1.5 7.35-2.3 12.15-.75 4.4.45-.6.4-2.5 1.45-6.25.1-.6.25-1.25.7-3.15 1.3-5.65.65-3.05 1.15-5.1h.05l-.05-.05v-.05q.2-.9.35-1.55.2-.95.4-1.55v-.05q0-.15.05-.25.15-.75.2-.85l3.25-16.8.05-.05q0-.25-.1-.4-.1-.2-.3-.2-.2-.05-.3 0-.05 0-.05.05-.05 0-.1.05t-.1.2m81.8 53.1q5.828-.808 11.3-1.95-.15 0-.3.05-.95.05-1.9.15-.75.05-1.5.15-13.1 1.2-26.3 1.45-4.5.1-9 .1-17-.1-34.1-1.8-.65-.1-1.2-.15 5.808 1.176 11.85 2 11.28 1.525 23.45 1.85h.55v.1l1.4 12.2v-.4l.05.4 1.4-12.2v-.1h.05q.15 0 .35.05l5.2-.2q9.762-.455 18.7-1.7m30.1-53.2l-.05-.05q-.15-.05-.35 0-.2 0-.3.2-.1.15-.05.4l3.25 16.85q.1.2 1.05 4.3v.05q.45 2 1.1 4.95.55 2.4 1.2 5.4l.1.4q.25 1.2.5 2.25 1 3.35 1.35 5.75 1.05 4.3.3.1-.9-5.3-2.65-13.9-.4-2.15-.9-4.5L58.1 165.7v-.1q-.1-.2-.2-.25m2.25-34.1q-1.35 1.05-2.8 2.1l-1.55 1.15q-20.35 14.1-45.8 16l-1.1.05q-3.35.2-6.8.2h-.2q-3.45 0-6.8-.2l-1.1-.05q-25.45-1.9-45.8-16l-1.55-1.15q-1.45-1.05-2.8-2.1l-1.15-.9q10.019 8.81 21.45 14.1 17.928 7.84 37.75 7.85h.2q19.823-.01 37.75-7.85 11.45-5.3 21.45-14.05l-1.15.85z"
           id="SkiSki001__hdd_0_Layer0_0_FILL" />
        <filter
           id="SkiSki001__Filter_1"
           x="-20%"
           y="-20%"
           width="140%"
           height="140%"
           color-interpolation-filters="sRGB">
          <feColorMatrix
             in="SourceGraphic"
             values="1 0 0 0 0 0 1 0 0 0 0 0 1 0 0 0 0 0 0.75 0"
             result="result1"
             id="feColorMatrix93" />
        </filter>
      </defs>
      <use
         xlink:href="#SkiSki001__Symbol_10_0_Layer0_0_FILL"
         transform="translate(96.75 58)"
         id="SkiSki001__col1n" />
      <use
         xlink:href="#SkiSki001__hll_0_Layer0_0_FILL"
         transform="matrix(1.00052 0 0 1 190.5 98.75)"
         id="SkiSki001__col1d" />
      <use
         filter="url(#SkiSki001__Filter_1)"
         xlink:href="#SkiSki001__hdd_0_Layer0_0_FILL"
         transform="matrix(1.00052 0 0 1 190.5 98.75)"
         id="SkiSki001__col1s" />
    </g>
  </g>
  <g
     transform=""
     id="g111">
    <g
       transform=""
       id="g109">
      <defs
         id="defs106">
        <path
           fill="#000000"
           d="M125.7 0q-.2.05-.35.1Q62.1 12.35.85.2.6.1.35.1.2.05.1.05.05 0 0 0q0 .05.05.1v19.5q.35-.1.7-.15h.1q32.4-5.15 62 2.9 29.7-8.1 62.3-2.85.15 0 .3.05.15 0 .25.05V.05l.05-.05h-.05z"
           id="LegPan001__Symbol_1_0_Layer0_0_FILL" />
      </defs>
      <use
         xlink:href="#LegPan001__Symbol_1_0_Layer0_0_FILL"
         transform="translate(129.65 310.25)"
         id="LegPan001__col1n" />
    </g>
  </g>
  <g
     transform=""
     id="g119">
    <g
       transform=""
       id="g117">
      <defs
         id="defs114">
        <path
           fill="#000000"
           d="M146.9 7.7q-9-5.25-23.3-6.95-13.1-1.45-27.4 0-7 .8-14.2 2.45l-8.3 2.05-8.3-2.05Q58.2 1.55 51.2.75 36.9-.7 23.8.75 9.1 2.5 0 8h147.4l-.5-.3z"
           id="LegSho001__Symbol_2_0_Layer0_0_FILL" />
      </defs>
      <use
         xlink:href="#LegSho001__Symbol_2_0_Layer0_0_FILL"
         transform="translate(118.8 326)"
         id="LegSho001__col1n" />
    </g>
  </g>
  <g
     transform=""
     id="g139">
    <g
       transform=""
       id="g137">
      <defs
         id="defs128">
        <path
           fill="#252525"
           d="M167.15 18.9l-.1-.3q-.85-2.15-2.1-3.9l-.1-.1Q162.3 11 158.7 10q0-.1-.1-.1 0-.35.2-.8.2-.45.2-.9 0-.55-.1-1.05-.65-3.5-5.6-5.5Q151.15.8 148.75.4q-.5-.1-.95-.15-.75.65-1.45 1.25l-1.85 1.4q-.6.5-1.25.95-.75.6-1.55 1.15l-1.55 1.15q-3.7 2.55-7.6 4.75-10 5.55-21.1 8.45-.95.25-1.85.45-6.95 1.65-14.25 2.3-.5 0-1.05.05l-1.1.05q-3.1.2-6.3.2h-1.2q-3.2 0-6.3-.2l-1.1-.05q-3.9-.3-7.65-.85l-.5-.1q-1.35-.2-2.65-.45-.55-.1-1.05-.2-.7-.15-1.35-.25-1.95-.45-3.85-.95-10.65-2.75-20.3-7.95-4.35-2.4-8.5-5.25L30.9 5q-1.45-1.05-2.8-2.1l-1.85-1.4Q25.4.75 24.6 0q-2.55.6-5.25 1.65-4.95 2-5.6 5.5-.1.5-.1 1.05 0 .45.2.9t.2.8q-.1 0-.1.1-3.6 1-6.15 4.6l-.1.1q-1.25 1.75-2.1 3.9l-.1.3q-.5 1.35-.85 2.9-.6.45-1.15.9-1.35 1.35-2.3 3.55-.2.4-.4.9Q.4 28.2.25 29.1q-1.4 6.85 5.4 7.4.4.05.85 0 .2 0 .45-.05l5.3.15L26 58.3q-.7 2.45-1.15 3.95l-2.5 10.25-1.3 11.75q-.05-.05-.1-.05L15.15 95q.9-.1 1.75-.1 7.7-.3 15.55-.15 7.1.1 14.2.6 5.3.35 10.65.9l10.5 1.3q6.85 1.1 13.6 2.55l4.65-7.65.55-.7 5.45 8.4q24.8-4.95 49.3-5.4l5.75-.05q1 0 2.05.05 3.15 0 6.3.15h2.1l-5.5-10.8q-.05.05-.15.05l-1.6-11.5-3.35-13.7 14-22.2 5.65-.25h.4q6.8-.55 5.4-7.4-.15-.9-.55-1.95-.25-.65-.55-1.25-.95-2-2.15-3.2-.55-.45-1.15-.9-.35-1.55-.85-2.9z"
           id="ShiSpe105__Symbol_185_0_Layer0_0_FILL" />
        <path
           fill="#434343"
           d="M24.95 23.85q.2.05.4.15l.5.2q12.25 3.65 22.45 1.75-2.45.15-8.15-.25-6.25-.45-11.5-2.45-5.3-2.05-8.7-4.25-3.4-2.25-6.95-4.95-3.5-2.7-6.65-4.95-2.6-1.85-4.3-3.05Q1.1 5.4 0 4.75q1.7 1.4 3.25 2.8 7.2 5.2 9.9 8.2 2.65 2.95 5.2 4.65 2.4 1.55 6.6 3.45m44.25 1.1q-1.95.55-4.85 1.5-2.95.9-10.2 2.5-7.3 1.55-20.7 2.15 15.15 3.8 35.75-6.15m-22.8-5.5q4.45 0 8.75-.85 5-1 9.8-3.2-10.9 3.6-21.3 2.5-.75-.1-1.5-.25-2.35-.35-4.3-.85-1.25-.25-2.45-.7-.6-.25-2.95-1.5-2.9-1.45-4.85-3.2-1.45-1.3-4.1-3.95-.1-.1-.2-.15-1.3-1.15-2.55-1.9-.55-.1-1.05-.2.5.4.95.85.45.45 1 1.1 1.3 1.5 3.25 3.95 3.1 3.8 7.35 5.85 1.05.5 1.75.75.05 0 .15.05 1.45.5 3.15.9.4.05.8.15.1 0 .35.1.65.1 1.4.2.4 0 .85.15 2.7.2 5.7.2M84.7 1q.95-.55 1.95-1-6.8 2.3-8.05 3.8-1.4 1.5-4.65 5.7-3.25 4-4.65 6.05-.1 0-.1.1-1.5 2.05-4.95 4.1-3.45 1.95-8.45 5.1 8.85-2.9 13.4-7.15 1.4-1.4 2.7-2.55.35-.45.75-.8 4.2-4.3 5.95-7.3Q80.9 2.8 84.7 1z"
           id="ShiSpe105__Symbol_186_0_Layer0_0_FILL" />
        <path
           fill="#121212"
           d="M1.45 10.45Q3 9.3 4.35 8.4q2-1.35 3.45-2.05-3.55.85-5.3 1.5-.6.25-1.15.55l-.5.3q-.5 1.35-.85 2.9.7-.55 1.45-1.15M86.9 39.1q6.4.2 13.65-3.45 9.1-4.6 10.75-5.55-20.6 9.95-35.75 6.15h-.05q3.85 2.15 11.4 2.85m3.6-8l.05-.05q-.1 0-.15.05-10.2 1.9-22.45-1.75l-.5-.2q-.2-.1-.4-.15-4.2-1.9-6.6-3.45-2.55-1.7-5.2-4.65-2.7-3-9.9-8.2-1.55-1.4-3.25-2.8-.35-.2-.45-.3-.25-.15-.45-.3-5.35-4.4-13.5-6.05-1.15-.25-2.35-.4l-.6-.1q-5.15-1-9.4-1.85-.45-.1-.85-.2-1.35-.25-2.6-.5-.55-.1-1.05-.2l6.45 2.05q.6.15 1.3.35.3.1.7.25 3.1.75 6.15 1.75.05 0 .15.05 1 .35 2.1.75.05.05.1.05Q38.15 9.2 46.9 16.6q3.5 2.85 7.4 6.9.75.75 1.6 1.65 3.8 3.55 8.45 5.6 17.1 5.35 26.15.35m17.55-11.05l-1 .5q-4.8 2.2-9.8 3.2-4.3.85-8.75.85-3 0-5.7-.2-.45-.15-.85-.15-.75-.1-1.4-.2-.25-.1-.35-.1-.4-.1-.8-.15-1.7-.4-3.15-.9-.1-.05-.15-.05-.7-.25-1.75-.75-4.25-2.05-7.35-5.85-1.95-2.45-3.25-3.95-.55-.65-1-1.1-.45-.45-.95-.85-.7-.15-1.35-.25.15.3.35.65.45.75 1 1.4.05.1.15.2 1.1 1.25 1.95 2.6.85 1.35 2.2 3.45t2.65 3.2q3.6 2.95 6.2 3.9l.35.1q.2.05.45.15l.1.05q.8.2 1.55.35 0-.05.1-.05l1.2.2q.75.1 1.5.25.85.1 1.75.2 2.9.35 6.05.2 8.5-.2 14.55-3.55.1-.1.45-.2 3.75-2.05 4.8-2.75l.05-.05q.2-.25.3-.35h-.1m-3.4-10.1q.15-.2.3-.35Q98 11.25 90.7 11.9q-.5 0-1.05.05l-1.1.05q-3.1.2-6.3.2h-1.2q-3.2 0-6.3-.2l-1.1-.05q-3.9-.3-7.65-.85l-.5-.1q.75.75 1.7 1.5.8.6 1.7 1.15 2.55 1.6 5.55 2.6 3.1.95 6.65 1.3 1.7.15 3.5.15 6.35 0 11.45-1.9 2.25-.9 4.25-2.15 2.75-1.7 4.35-3.7M148.5.8q-.3.05-.55.1-4.25.8-9.35 1.85l-.6.1q-.65.05-1.25.2l-1.1.2-1.1.2-.4.2h-.1l-.4.1q-2.8.7-4.9 1.4-1 .45-1.95 1-3.8 1.8-6.1 6.05-1.75 3-5.95 7.3-.4.35-.75.8-1.3 1.15-2.7 2.55-4.55 4.25-13.4 7.15 3.7-.1 6.8-1.1 3.15-1.05 7.45-3.85 3.05-1.95 5.2-4.25.85-1.05 1.6-2.05 2.5-3.55 6.1-7.2 3.6-3.8 5.8-4.7.8-.35 1.6-.65l3.1-.95q.05 0 .1-.05.55-.2 1.1-.35.5-.2 1-.35.05-.05.15-.1 3.05-1 6.15-1.75.4-.15.7-.25.7-.2 1.3-.35L152.5 0q-.5.1-1.05.2-1.4.3-2.95.6m-14.75 4.9q.8-.3 1.7-.6l-1.85.65q.083-.017.15-.05m29.6 5.9q-.35-1.55-.85-2.9l-.5-.3q-.55-.3-1.15-.55-1.75-.65-5.3-1.5 1.45.7 3.45 2.05 1.35.9 2.9 2.05.75.6 1.45 1.15m-.6 9q-.2-.45-.4-.75-.55-.85-1.3-1.85 0-.05-.05-.05-.25-.3-.55-.6-2.3-1.45-4.75-2.25l-.7-.2q-1.55-.5-3.15-.75h-2.8l-.05.05h-2.5q-1.65-.55-2.6-1.2-1.85-1.15-3.05-1.15h-.05q-1.1.55-2.3 1.4-.65 1.3-.9 3.05 0 .1-.1.3-.2-.2-.35-.3h-.05q0-.15-.15-.15-.1-.1-.2-.15-.55-.4-.9-.55-.35.25-.4.3-2.7 2.15-4.3 4.65l-.8-.25q-1.05-.3-3.45-.75-.65 1.4-.95 2.4 0-.1-.1-.25-.25-.3-.55-.75l-.75-.5-1.95 5.25q-.65-1.6-.95-2.05-.65 1.3-1.5 3.25-.3.55-.65 1.2-1.3 2.35-2.45 4-2.5 3.35-4.35 3.35-1.05 0-2.5-1-.1.55-.3 1.4-.1 0-.1.1-.45 1.1-.45 2.05-.2.15-.3.25-1.55.85-2.4.85-1.4 0-1.4-1.85-.95.75-1.4 1.95-.2.55-.55 2.4-.95-.45-1.7-1.4-.75-1.1-1.2-1.65-.75.75-.95 1.65-.15.5-1.1.5h-.85q-.25-.1-.35-.75-2.05 2.2-7.75 2.7-1.75.25-7.25.25l-3.55-1.4q-1.4 0-3.45.65-.65.2-1.1.4-.2-.75-.3-1.5-.15-.35-.15-.55-1.25.55-2.15.55v-3.8h-.2q0 1.4-1.95 4.35-1.7-2.5-2.7-2.5-.3 1.1-1.4 2.6-8.05-2.25-10.8-4.1-2.75-1.85-3.9-2.7-1.15-.85-1.95-1.65-.65-.65-1.45-1.8l-.5-.7q-1.15-1.65-4.35-4.35-3.15-2.75-7.9-5.55l-.9-.6-1-.6v-1.8q-1.95 1.4-4.25 2.9-.45-3.7-.2-5.3-.1 0-.2.05-.45.1-1.4.8-.15 0-.15.15l-.05.05q-.2.1-.35.25-.1-.2-.1-.3-.25-1.75-.9-3.05-1.2-.85-2.3-1.4h-.05q-1.2 0-3.05 1.15-.95.65-2.6 1.2h-2.5l-.05-.05h-2.8q-1.65.25-3.2.8l-.7.2q-2.45.8-4.7 2.2-.35.3-.6.65-.05.05-.05.1-.75.95-1.25 1.75-.2.3-.4.75-.25.55-.45 1.1 2.6-2.25 3.75-3 .4-.25.65-.35.7-.25 1.9-.9.35-.2.8-.45-.05.1-.1.25.413-.138.85-.35-.04.05-.1.05.9-.5 3-1.1.2-.1.5-.2h5.4q.4-.05.85-.15.5-.45 1.55-.8h.3l.25-.25 1-.45.15.15q.05-.1.2-.15.4-.2.65-.2h.05q0-.35 1.45.65.5.3.8 1.25l.4 2q.3 1.6.55 2.25.25.75.95 2.3v-.35H26l.8 1.9 4.45-2.4v.7q-.1 1-.25 1.65 4.6-.1 8.65 3.3 3.95 3.4 6.3 6.35 1.55 2.4 4.1 4.05 2.5 1.65 3.7 2.3 8.2 4.05 12.05 3.75.05-.1.15-.2 1-1.3 1.3-1.85.45.95 2.4 3.85l2.15-1.9q.75.75.95 1.45.2.7.6.4.4-.35 1.55-.8.25 0 3.2.4.35.05.75.1l1.9.15q.15 0 .3.05V68.1q.75 2 1.2 0V45.25q2.1.15 3.9.45 1.2.05 1.95.05 4.3 0 10.05-2.6l1.3 1.55q.95-1.65 1.5-1.95.1 0 1.6 1.15 1.35.95 2.25 1.15l-.05-1.25q0-.8.2-1.65.35-1.45.4-1.85.5.65.6.7.05.05.7.05 3.5 0 4.7-4.85.3.35 1.6 1.1 1.55.85 2.3.85.7 0 2.4-2.2 1.35-1.85 1.8-2.7.8-1.65 2.6-5.9.2.3 1.1 2 0 .05.05.05.2.15.35.4l2.4-4.75q.65.3 1.3 1.25l.1.15 1.3-4.4.05-.05q.75.3 3.4.75.15 0 1.25-1.1l.75-.8q.9-.95 1.4-1.75.85 1.15 1.1 2.45l.45-.45q.9-2.05 3-3.75.65-.5.9-.8.5-.45.65-.95.3-1 .35-1.1.15-.25.45-.3l.2-.2.4.2q.55.1 2.05.85l1.2.6H149.2q.15 0 .3-.05 2.15-.35 3.15-.35 1.1 0 1.65.3l1.05.9q.7.6 1.35 1.1l.35.15q.85.3 1.75.65.2.05.55.3 1.1.7 3.85 3.05-.2-.55-.45-1.1z"
           id="ShiSpe105__Symbol_187_0_Layer0_0_FILL" />
        <path
           fill="#666666"
           d="M24.9 2q-.3-.95-.8-1.25-1.45-1-1.45-.65h-.05q-.25 0-.65.2-.15.05-.2.15L21.6.3l-1 .45-.25.25h-.3q-1.05.35-1.55.8-.45.1-.85.15h-5.4q-.3.1-.5.2-2.1.6-3 1.1.06 0 .1-.05-.437.212-.85.35-.3.8-.35.95-.05.15.1.15l-.1.2-.4 1.1q-.3.75-.6 1.55-.25.7-.5 1.45-.6 1.55-1.1 3.15-.25.65-.45 1.35-.05 0-.1.05l-.2.1h.25q-.35 1.05-.65 2.1-.1.3-.2.65-.2.65-.4 1.4v.05l-.05.05q-.2.65-.35 1.35-.1.2-.1.4-.1.3-.15.6-.1.2-.15.45-.15.55-.25 1.15l-.1.4q-.4 1.55-.7 3.2-.15.65-.3 1.35l-.5 2.7q-.1.65-.2 1.35-.2 1.2-.35 2.5-.05.3-.1.65 2.6-2.35 6.05-3.2 1.85-.45 3.95-.5h1.25q.2 0 .45.05 1.7.05 3.45.5.2.05.45.15l.05.05q1.75.6 3.35 1.65.75.5 1.5 1.1.3.25.65.5.1.15.25.25v.05q.15.1.35.3l.1.1.05-.25.05-.05q.05-.05.05-.1.1-.1.2-.3l4.35-21.15v-.05-.15q0-.1.05-1.15.1-.7.1-1.85v-.2-.65l.1-.5q-.7-1.55-.95-2.3Q25.6 5.6 25.3 4l-.4-2m1.35 11.2l.05-.05q-.047.142-.05.25v-.2m64.1 54.55H91.95q.55-.15 1.3-.15 20.1-.7 43.15-4.85l.9-.2q1.4-.3 2.8-.55l6.7-1.5h.2q.15-.05.2-.05.1-.05.15-.1l.6-.05q.2-.05.3-.1h.2l.95-.2-.55-1.8h-.05l-2.3-9.45q-63.2 12-127.95-.15L15.8 59.85l.75.25v.05q.25.05.55.15h.05l.9.2h.2l6.7 1.5q1.85.35 3.7.75Q50.3 66.8 72 67.6q.65 0 1.3.15h2.8q2.05 0 4.1.1h4.75q2.05-.1 4.1-.1h1.3m71.9-47.95v-.05l-.7-2.15-.2-1.05q-.05-.15-.1-.25-.45-1.5-.85-2.9-.25-.7-.45-1.35-.55-1.6-1.1-3.15-.25-.75-.5-1.45-.3-.8-.6-1.55l-.5-1.3q-.25-.55-.4-1.05l.7.3q-.65-.5-1.35-1.1l-1.05-.9q-.55-.3-1.65-.3-1 0-3.15.35-.15.05-.3.05H147.1l-1.2-.6Q144.4.6 143.85.5l-.4-.2-.2.2q-.3.05-.45.3-.05.1-.35 1.1-.15.5-.65.95-.25.3-.9.8-2.1 1.7-3 3.75l.3-.35q.05 1.35.2 2.75.05 1.2.3 3.1 0 .2.05.4v.05q.25 2.35.45 2.65v.05q-.1-.2-.15-.25l3.8 18.45q0 .05.05.1.05.1.15.2l.05.05v.05l.05.3V35l.05-.05q.2-.2.4-.35v-.05q1.25-1.15 2.65-1.95 1.5-1 3.15-1.6.05-.05.15-.05l.3-.1q1.75-.45 3.45-.5.25-.05.45-.05H155q2.35.05 4.45.65 1.15.3 2.25.85 1.8.85 3.3 2.2-.05-.35-.1-.65-.15-1.35-.35-2.65l-.2-1.3-.5-2.7q-.15-.7-.3-1.35-.05-.35-.1-.65-.15-.55-.25-1.1-.2-.75-.35-1.5-.05-.1-.1-.25-.15-.6-.3-1.25l-.1-.4-.1-.4z"
           id="ShiSpe105__Symbol_188_0_Layer0_0_FILL" />
        <path
           fill="#999999"
           d="M5.55 27.75q0-.5.55-1.75.1-.25.2-.4h-.35q-1.3.3-2.6 1.05-.4.25-.85.45-.85.55-1.7 1.3-.15 0-.25.1-.05.05-.1.15-.2 1.2-.35 2.5-.05.3-.1.65 2.6-2.35 6.05-3.2v-.05q-.1 0-.2.05H5.8q-.15-.25-.2-.5-.05-.2-.05-.35m.2-3.45q-.45-.85-.45-1.5 0-.25.1-.55-2.25.8-4.25 2.35l-.5 2.7q.1-.05.15-.1.4-.4.85-.75.45-.2.75-.45 1.6-1.05 3.35-1.5v-.2m.55-6.2q-.15.05-.25.05-1.4.4-2.7 1.05l-1.2.85q-.4 1.55-.7 3.2 1.95-1.5 4.2-2.25v-.05q-.1-.2-.1-.8 0-1.1.75-2.05m.75-1.45v-1-.2q.55-1 .75-1.5h-.35q-2.15.5-4.15 1.65v.05l-.05.05q-.2.65-.35 1.35-.1.2-.1.4-.1.3-.15.6-.1.2-.15.45 2.2-1.35 4.55-1.85m1.6-7.8q.1-.15.2-.25-.2-.6-.2-1.05 0-.6.6-1.35l.3-.3q-1.75.25-3.4.9-.6 1.55-1.1 3.15 1.7-.8 3.6-1.1M4.6 11.3q-.05 0-.1.05l-.2.1h.25q-.35 1.05-.65 2.1-.1.3-.2.65.25-.15.45-.25.4-.2.85-.4.65-.3 1.3-.45.7-.25 1.4-.35l-.25-1.4q0-.25.45-1.2-1.7.35-3.3 1.15m3.15-8.8l-.1.2-.4 1.1q-.3.75-.6 1.55 1.5-.5 3.05-.65-.05 0-.05-.05-.05 0-.05-.05-.05-.1-.05-.8 0-.75.4-1.55.1-.1.15-.2-1.25.1-2.35.45m3.6-1.85q.1-.2.25-.4.05-.15.15-.25-2.1.6-3 1.1.1 0 .2-.05 1.2-.3 2.4-.4m145.8 9.5q.45.95.45 1.2l-.25 1.4q1.85.3 3.55 1.2.15.1.35.2-.45-1.5-.85-2.9-1.65-.75-3.25-1.1m-.75-2.6q0 .45-.2 1.05.1.1.2.25 1.8.25 3.55 1.05-.55-1.6-1.1-3.15-1.65-.65-3.35-.85l.3.3q.6.75.6 1.35m-.1-6.45q-.9-.5-3-1.1.2.3.4.65 1.1.1 2.2.35l.4.1m2.05 4.2q-.3-.8-.6-1.55l-.5-1.3q-1.1-.3-2.3-.4.05.1.15.2.4.8.4 1.55 0 .65-.05.8 0 .05-.1.1 1.5.15 3 .6m6.2 23.25l-.05-.05q-.1-.1-.25-.1-.85-.75-1.7-1.3-.45-.2-.85-.45-1.2-.7-2.4-1 .05.25.15.55.3 1.05.3 1.5 0 .15-.05.4-.1.15-.2.4-.05.15-.05.3 1.15.3 2.25.85 1.8.85 3.3 2.2-.05-.35-.1-.65-.15-1.35-.35-2.65m-1.9-2.55q.3.25.75.45.45.35.85.75.05 0 .1.05l-.5-2.7q-1.05-.8-2.15-1.35-1-.55-2.05-.95.1.25.1.5.1.4.1.5 0 .65-.3 1.35 1.1.25 2.15.85.5.25.95.55m.9-2.8q-.05-.35-.1-.65-.15-.55-.25-1.1-.2-.75-.35-1.5l-1.15-.75q-1.3-.65-2.7-1.05-.1 0-.25-.05.75.95.75 2.05 0 .6-.1.8V21q1.2.4 2.3 1.05.95.5 1.85 1.15m-1.3-5.55v-.05l-.7-2.15q-1.9-1.05-3.95-1.5h-.35q.2.5.75 1.5v1.2q1.9.4 3.7 1.4.4.15.75.4l-.1-.4-.1-.4z"
           id="ShiSpe105__Symbol_189_0_Layer0_0_FILL" />
        <path
           fill="#434343"
           d="M.45 26.6q0 .65-.3 1.1-.1.15-.15.35 1.75.6 3.35 1.65 1.25-1.65.15-2.9-.7-.55-1.55-.95-.4-.3-.85-.4-.55-.25-1.05-.4.05.2.2.7.2.6.2.85m0-2.6q.3.15.65.25.45.1.85.45.55.2 1 .5.2.15.3.25.45-.25.65-.55.45-.55.45-1 0-.3-.2-.6Q2.5 22.2.8 21.55q.45.8-.05 1.75-.2.4-.3.7M5 19.95q-.05-.05-.15-.1-1.3-1.05-2.6-1.7v.55q0 1.15-.4 1.7-.1.1-.3.25.3.1.65.25 1.05.55 2.15 1.3.3-.45.5-.85.25-.5.25-.9l-.1-.4v-.1m.95-3.05q-.1-.3-.2-.65-.45-.4-.9-.7-.85-.65-1.7-1.05v.1q.05 1.1-.3 1.85-.15.2-.4.6 1.25.6 2.4 1.5.15.1.25.2l.35-.35q.5-.4.5-1.5m-1.2-9.1q-.1.5-.65 1.45-.1.25-.25.5.7.4 1.35.9.55.45 1.2.95.85-.85.95-1.95v-.2q-.2-.2-.4-.3-.55-.5-1.1-.95-.55-.45-1.1-.8v.4m.1 3.75q-.35-.25-.7-.45-.25-.15-.45-.25.15.35.15.45 0 .8-.35 1.65-.1.2-.15.45.75.4 1.5.9.5.35 1 .75.55-1.4.65-2.25-.75-.7-1.65-1.25m.8-7.7q-.05.75-.4 1.55-.25.5-.5.8 1.1.75 2.55 1.85l.3-.75q.55-1.2.3-1.5-.2-.35-.55-.55-.85-.8-1.7-1.4m2.25-1.2q0-.55-.2-.95-.1-.25-.35-.35Q6.55.6 5.7 0q.15.45.15.85 0 .75-.35 1.7 1.1.7 2.1 1.7.3-.6.3-1.6m125.8 22.4q-.5.15-1.05.4-.45.1-.85.4-.85.4-1.55.95-.85 1-.25 2.25.1.2.25.45.05-.05.15-.1.05.1.2.25 1.5-1 3.15-1.6.05-.05.15-.05-.1-.05-.2-.15-.05-.05-.1-.15-.2-.3-.25-.7-.05-.2-.05-.4 0-.25.2-.85.15-.5.2-.7m-4.95-5.1v.1l-.1.4q0 .65.75 1.75 1.1-.75 2.15-1.3.35-.15.65-.25-.2-.15-.3-.25-.4-.55-.4-1.7v-.55q-1.4.7-2.75 1.8m.85 3.35q-.2.3-.2.6 0 .45.45 1 .2.3.65.55.1-.1.3-.25.45-.3 1-.5.4-.35.85-.45.35-.1.65-.25-.1-.3-.3-.7-.5-.95-.05-1.75-1.7.65-3.35 1.75m1-8.7v-.1q-1.35.65-2.6 1.75-.1.35-.2.65 0 1.1.5 1.5l.35.35q1.25-1.05 2.65-1.7-.25-.4-.4-.6-.35-.75-.3-1.85m-.7-3.3q0-.1.15-.45-.2.1-.45.25-1.3.75-2.35 1.7.1.85.65 2.25 1.2-1 2.5-1.65-.05-.25-.15-.45-.35-.85-.35-1.65m-3.5-1.85v.2q.1 1.1.95 1.95.65-.5 1.2-.95.65-.5 1.35-.9-.15-.25-.25-.5-.55-.95-.6-1.5-.05-.1-.05-.2V7.4q-.5.3-.95.7-.65.5-1.25 1.05-.2.1-.4.3m1.85-6.9q-.35-.95-.35-1.7 0-.4.15-.85-.85.6-1.65 1.35-.25.1-.35.35-.2.4-.2.95 0 1 .3 1.6 1-1 2.1-1.7m.25 2.85q-.35-.8-.4-1.55-.85.6-1.7 1.4-.35.2-.55.55-.25.3.3 1.5l.3.75q1.45-1.1 2.55-1.85-.25-.3-.5-.8z"
           id="ShiSpe105__Symbol_191_0_Layer0_0_FILL" />
        <path
           fill="#252525"
           d="M17.7 50.15l-1.9 8.05q.4.1.8.15 5.75 1.35 11.6 2.5Q45 64.1 62.4 65.4q5.5.35 11.5.6v-9.8q-27.95-.75-56.2-6.05M24.45 2q-.3-.95-.8-1.25-1.45-1-1.45-.65h-.05q-.25 0-.65.2-.15.05-.2.15L21.15.3l-1 .45-.25.25h-.3q-1.05.35-1.55.8.25-.05.55-.15l.5.2q.9.45 1.8 1.1.85.6 1.65 1.35.25.1.35.35.2.4.2.95 0 1-.3 1.6-1-1-2.1-1.7-1-.7-2.1-1.2-1.65-.85-3.35-1.2-1.4-.3-2.85-.3h-1.5q-1.2.1-2.4.4-.5.2-.95.35-.3.8-.35.95-.05.15.1.15 1.1-.35 2.35-.45.45-.1.95-.1.3-.1.75-.1h1.05q1.45.1 2.85.3 1.5.35 2.9 1 1.4.55 2.7 1.5.85.6 1.7 1.4.35.2.55.55.25.3-.3 1.5l-.3.75q-1.45-1.1-2.55-1.85-.55-.35-1.15-.65-1.75-.95-3.55-1.4-1.4-.3-2.85-.3h-.2q-.45-.1-.85-.1-.65 0-1.3.1-.35 0-.75.05h-.05Q7.7 7 6.2 7.5q-.25.7-.5 1.45 1.65-.65 3.4-.9.3-.05.6-.05.9-.15 1.65-.15.4 0 .85.15h.25q1.4 0 2.8.3 1.5.35 2.8 1 1 .45 1.9 1.05.55.35 1.1.8.55.45 1.1.95.2.1.4.3v.2q-.1 1.1-.95 1.95-.65-.5-1.2-.95-.65-.5-1.35-.9-.45-.3-.9-.5-.85-.45-1.75-.65-.5-.2-1.15-.35-1.4-.4-2.85-.4h-.3q-.45-.1-.85-.1-1.4 0-2.75.25-.15 0-.3.05-1.9.3-3.6 1.1-.25.65-.45 1.35 1.6-.8 3.3-1.15 1.85-.45 3.8-.45.4 0 .85.1h.3q1.45 0 2.85.45.5.1.95.2.65.25 1.3.55.4.15.85.35.25.15.55.3.2.1.45.25.35.2.7.45.9.55 1.65 1.25-.1.85-.65 2.25-.5-.4-1-.75-.75-.5-1.5-.9-.5-.3-1.05-.5-.55-.3-1.1-.4-.65-.25-1.15-.45-1.4-.35-2.85-.45h-.3q-.65-.1-1.2-.1h-.4q-1.65 0-3.25.45-.7.1-1.4.35-.65.15-1.3.45-.45.2-.85.4-.2.1-.45.25-.2.65-.4 1.4 2-1.15 4.15-1.65h.35q1.5-.45 3.15-.45h.4q.55 0 1.2.1h.3q1.2 0 2.4.35h.1q.1.1.35.1.85.2 1.8.65.65.25 1.3.6.85.4 1.7 1.05.45.3.9.7.1.35.2.65 0 1.1-.5 1.5l-.35.35q-.1-.1-.25-.2-1.15-.9-2.4-1.5-.5-.25-1-.45-1.95-.9-4.25-1.1H12q-.75-.1-1.5-.1h-.55q-1.85.1-3.35.45-2.35.5-4.55 1.85-.15.55-.25 1.15l-.1.4 1.2-.85q1.3-.65 2.7-1.05.1 0 .25-.05.3-.1.65-.2 1.95-.5 4-.5.75 0 1.5.1h.4q1.85.2 3.5.75.8.3 1.55.7 1.3.65 2.6 1.7.1.05.15.1v.1l.1.4q0 .4-.25.9-.2.4-.5.85-1.1-.75-2.15-1.3-.35-.15-.65-.25-.4-.15-.75-.3-1.75-.65-3.6-.85H12q-.75-.1-1.65-.1-2.7 0-5.05.75-.05 0-.1.05-2.25.75-4.2 2.25-.15.65-.3 1.35 2-1.55 4.25-2.35 2.5-.85 5.4-.85 1.1 0 2.05.1 1.65.2 3.15.65.1 0 .2.1.15.05.25.1 1.7.65 3.35 1.75.2.3.2.6 0 .45-.45 1-.2.3-.65.55-.1-.1-.3-.25-.45-.3-1-.5-.4-.35-.85-.45-.35-.1-.65-.25l-.4-.2q-1.1-.4-2.3-.5-.2-.15-.55-.15-.4-.1-.75-.1h-.4q-.25-.1-.45-.1h-.95l-1 .1q-1.4 0-2.8.45-.3.1-.75.2-1.75.45-3.35 1.5-.3.25-.75.45-.45.35-.85.75-.05.05-.15.1-.1.65-.2 1.35.05-.1.1-.15.1-.1.25-.1.85-.75 1.7-1.3.45-.2.85-.45 1.3-.75 2.6-1.05h.35q1.45-.45 2.9-.55l1.1-.1h.2q.65 0 1.3.1.55 0 1.05.1.35 0 .65.1.9.1 1.85.45.15.05.35.15.5.15 1.05.4.45.1.85.4.85.4 1.55.95 1.1 1.25-.15 2.9.75.5 1.5 1.1.3.25.65.5.1.15.25.25v.05q.15.1.35.3l.1.1.05-.25.05-.05q.05-.05.05-.1.1-.1.2-.3L26.1 13.1v-.05-.15q0-.1.05-1.15.1-.7.1-1.85v-.2-.65l.1-.5q-.7-1.55-.95-2.3-.25-.65-.55-2.25l-.4-2m1.4 11.15q-.047.142-.05.25v-.2l.05-.05M88.6 66.1v-9.9q-3.15.1-6.25.1h-.45q-.65-.1-1.3 0-2.5-.1-4.95-.1v9.9q2.45 0 4.95.1.65-.1 1.3 0h4.3q1.2-.1 2.4-.1m1.5-9.85v9.85q22.65-.5 45.85-5.25l.5-.1q5.1-1 10.15-2.1l.4-.1q.25-.1.55-.15l.8-.2-1.9-7.9q-28.05 5.35-56.35 5.95m72.2-34.4q-.15-.6-.3-1.25-.35-.25-.75-.4-1.8-1-3.7-1.4-1.5-.35-3.35-.45h-.55q-.75 0-1.5.1h-.4q-2.3.2-4.25 1.1-.5.2-1 .45-1.4.65-2.65 1.7l-.35-.35q-.5-.4-.5-1.5.1-.3.2-.65 1.25-1.1 2.6-1.75.65-.35 1.3-.6.95-.45 1.8-.65.25 0 .35-.1h.1q1.2-.35 2.4-.35h.3q.65-.1 1.2-.1h.4q1.65 0 3.15.45h.35q2.05.45 3.95 1.5l-.2-1.05q-.05-.15-.1-.25-.2-.1-.35-.2-1.7-.9-3.55-1.2-1.6-.45-3.25-.45h-.4q-.55 0-1.2.1h-.3q-1.45.1-2.85.45-.5.2-1.15.45-.55.1-1.1.4-.55.2-1.05.5-1.3.65-2.5 1.65-.55-1.4-.65-2.25 1.05-.95 2.35-1.7.25-.15.45-.25.7-.4 1.4-.65.65-.3 1.3-.55.45-.1.95-.2 1.4-.45 2.85-.45h.3q.45-.1.85-.1 1.95 0 3.8.45 1.6.35 3.25 1.1-.25-.7-.45-1.35-1.75-.8-3.55-1.05-.15-.05-.3-.05-1.35-.25-2.75-.25-.4 0-.85.1h-.3q-1.45 0-2.85.4-.65.15-1.15.35-.9.2-1.75.65-.45.2-.9.5-.7.4-1.35.9-.55.45-1.2.95-.85-.85-.95-1.95v-.2q.2-.2.4-.3.6-.55 1.25-1.05.45-.4.95-.7.9-.6 1.9-1.05 1.3-.65 2.8-1 1.1-.25 2.8-.35.45-.05.95-.05.45 0 .8-.05.4.05 1 .15.3 0 .6.05 1.7.2 3.35.85-.25-.75-.5-1.45-1.5-.45-3-.6h-.15q-.3-.05-.65-.05-.65-.1-1.3-.1-.4 0-.85.1h-.2q-1.45 0-2.85.3-1.8.45-3.55 1.4-.6.3-1.15.65-1.1.75-2.55 1.85l-.3-.75q-.55-1.2-.3-1.5.2-.35.55-.55.85-.8 1.7-1.4 1.3-.95 2.7-1.5 1.4-.65 2.9-1 1.4-.2 2.85-.3h1.05q.45 0 .75.1.5 0 .95.1 1.2.1 2.3.4-.25-.55-.4-1.05l.7.3q-.65-.5-1.35-1.1l-1.05-.9q-.55-.3-1.65-.3-1 0-3.15.35-.14.047-.3.05h2.75q.3.1.5.2 2.1.6 3 1.1l-.4-.1q-1.1-.25-2.2-.35h-1.5q-1.45 0-2.85.3-1.7.35-3.35 1.2-1.1.5-2.1 1.2-1.1.7-2.1 1.7-.3-.6-.3-1.6 0-.55.2-.95.1-.25.35-.35.8-.75 1.65-1.35.9-.65 1.8-1.1l.5-.2q.6.2 1.1.3l-1.2-.6Q143.95.6 143.4.5l-.4-.2-.2.2q-.3.05-.45.3-.05.1-.35 1.1-.15.5-.65.95-.25.3-.9.8-2.1 1.7-3 3.75l.3-.35q.05 1.35.2 2.75.05 1.2.3 3.1 0 .2.05.4v.05q.25 2.35.45 2.65v.05q-.1-.2-.15-.25l3.8 18.45q0 .05.05.1.05.1.15.2l.05.05v.05l.05.3V35l.05-.05q.2-.2.4-.35v-.05q1.25-1.15 2.65-1.95-.15-.15-.2-.25-.1.05-.15.1-.15-.25-.25-.45-.6-1.25.25-2.25.7-.55 1.55-.95.4-.3.85-.4.55-.25 1.05-.4.2-.1.35-.15.95-.35 1.85-.45.3-.1.65-.1.5-.1 1.05-.1.65-.1 1.3-.1h.2l1.1.1q1.45.1 2.9.55h.35q.1 0 .2.05 1.2.3 2.4 1 .4.25.85.45.85.55 1.7 1.3.15 0 .25.1l.05.05-.2-1.3q-.05-.05-.1-.05-.4-.4-.85-.75-.45-.2-.75-.45-.45-.3-.95-.55-1.05-.6-2.15-.85-.15-.05-.25-.1-.45-.1-.75-.2-1.4-.45-2.8-.45l-1-.1h-.95q-.2 0-.45.1h-.4q-.35 0-.75.1-.35 0-.55.15-1.2.1-2.3.5l-.4.2q-.3.15-.65.25-.45.1-.85.45-.55.2-1 .5-.2.15-.3.25-.45-.25-.65-.55-.45-.55-.45-1 0-.3.2-.6 1.65-1.1 3.35-1.75.1-.05.25-.1.1-.1.2-.1 1.5-.45 3.15-.65.95-.1 2.05-.1 2.9 0 5.4.85 1.05.4 2.05.95 1.1.55 2.15 1.35-.15-.7-.3-1.35-.9-.65-1.85-1.15-1.1-.65-2.3-1.05-.05-.05-.1-.05-2.35-.75-5.05-.75-.9 0-1.65.1h-.4q-1.85.2-3.6.85-.35.15-.75.3-.3.1-.65.25-1.05.55-2.15 1.3-.75-1.1-.75-1.75l.1-.4v-.1q1.35-1.1 2.75-1.8.75-.4 1.55-.7 1.65-.55 3.5-.75h.4q.75-.1 1.5-.1 2.05 0 4 .5.35.1.65.2.15.05.25.05 1.4.4 2.7 1.05l1.15.75q-.05-.1-.1-.25z"
           id="ShiSpe105__Symbol_190_0_Layer0_0_FILL" />
      </defs>
      <use
         xlink:href="#ShiSpe105__Symbol_185_0_Layer0_0_FILL"
         transform="translate(106.2 227.1)"
         id="ShiSpe105__col1n" />
      <use
         xlink:href="#ShiSpe105__Symbol_186_0_Layer0_0_FILL"
         transform="translate(152.95 242.45)"
         id="ShiSpe105__col1l" />
      <use
         xlink:href="#ShiSpe105__Symbol_187_0_Layer0_0_FILL"
         transform="translate(110.85 237.3)"
         id="ShiSpe105__col1d" />
      <use
         xlink:href="#ShiSpe105__Symbol_188_0_Layer0_0_FILL"
         transform="translate(110 251)"
         id="ShiSpe105__col2n" />
      <use
         xlink:href="#ShiSpe105__Symbol_189_0_Layer0_0_FILL"
         transform="translate(110 253.15)"
         id="ShiSpe105__col2l" />
      <use
         xlink:href="#ShiSpe105__Symbol_191_0_Layer0_0_FILL"
         transform="translate(125.65 253.95)"
         id="ShiSpe105__col2d" />
      <use
         xlink:href="#ShiSpe105__Symbol_190_0_Layer0_0_FILL"
         transform="translate(110.45 251)"
         id="ShiSpe105__col2s" />
    </g>
  </g>
  <g
     transform=""
     id="g155">
    <g
       transform=""
       id="g153">
      <defs
         id="defs146">
        <path
           fill="#000000"
           d="M26.45 4.5l.1-.45q-3.5-2.1-7.1-3.1L17.2.45Q10.05-.8 4 1.75 1.8 9.85.15 17.95q-.05.25-.1.6-.05.1-.05.2 12.75-6.85 22.5 2.6.05.2.15.35l.1.2q0-.1.05-.2 0-.15.05-.3.1-.8.35-1.7.1-.5.25-1 1.65-6.6 3-14.2M161.2 1.75Q155.8-.55 149.6.2q-5.85 1.05-10.7 3.75-.1.05-.15.1l.3 1.35v.05l3.45 16.1q0-.05.05-.05 9.4-9.65 22.55-2.85-1.45-8.45-3.9-16.9z"
           id="AccJew033__Symbol_101_0_Layer0_0_FILL" />
        <path
           fill="#EEEEEE"
           d="M10.95 4.7q.95-2.05.45-3.7-.8-1.25-2.1-.9L1.35 2.35l5.6 2.35q3.3 1.6 3.85.3.05-.15.15-.3m-.8 7.05q0-.1.05-.1 1.25-2.2.6-4.4-.1-.3-.2-.5Q9.75 5.6 7 6.8L0 9.85l.85.3h.2v.05l5.3 1.7q3.3.95 3.8-.15M155.4.1q-1.3-.35-2.1.9-.5 1.65.45 3.7.1.15.15.3.55 1.3 3.85-.3l5.6-2.35L155.4.1m8.45 10.05l.85-.3-7-3.05q-2.75-1.2-3.6-.05-.1.2-.2.5-.65 2.2.6 4.4.05 0 .05.1.5 1.1 3.8.15l5.2-1.65v-.05h.1l.1-.05h.1z"
           id="AccJew033__Symbol_41_0_Layer0_0_FILL" />
        <path
           fill="#FFFFFF"
           d="M4.85 7.5q-2-1.4-3.75-.4Q0 8 0 10.25q0 .4.35 1.5 1 1.8 3.85 1.2l4.45-1.45q-.15.1-.15.15 0 .45.5.45.55 0 .9-.35.25-.3.25-.6 0-.5-.6-.75-.35-.1-.5.05L4.85 7.5M6.1 5.4l3.7-1.9L4.85.7Q4.35.45 4.2.35 3.2 0 2.25 0q-.3.1-.6.15Q1.3.35 1 .6-.5 2.75.6 5.1q.25.5.7.85 1.75 1 4.8-.55m131.35 6.35q.35-1.1.35-1.5 0-2.25-1.1-3.15-1.75-1-3.75.4l-4.2 3q-.2-.2-.6-.15-.75.05-.75.7 0 .9 1.2.9.65 0 .65-.45l4.35 1.45q2.85.6 3.85-1.2m-.25-6.65q1.1-2.35-.4-4.5-.3-.25-.65-.45-.3-.05-.6-.15-.95 0-1.95.35-.15.1-.65.35L128 3.5l3.7 1.9q3.05 1.55 4.8.55.45-.35.7-.85z"
           id="AccJew033__Symbol_20_0_Layer0_0_FILL" />
        <path
           fill="#DDDDDD"
           d="M1.65 8.1l-1.4.45q-.4 1.05-.2 2.15 0 .1.05.25.35 1.5 1.65 1.45L11.8 11 2.75 6.5q-1-.3-1.95 1l.85.6M3.3 6h.05l10-1.4L3.95.05q-.7-.2-1.2.6Q2.3 1.3 2.1 2q-.3.8-.35 1.65Q1.7 5.95 3.05 6h.25m117.9 4.95q.05-.15.05-.25.2-1.1-.2-2.15l-1.4-.45.85-.6q-.95-1.3-1.95-1L109.5 11l10.05 1.4q1.3.05 1.65-1.45m-2-8.95q-.2-.7-.65-1.35-.5-.8-1.2-.6l-9.4 4.55 10 1.4h.3q1.35-.05 1.3-2.35-.05-.85-.35-1.65z"
           id="AccJew033__Symbol_10_0_Layer0_0_FILL" />
        <path
           fill="#CCCCCC"
           d="M6.85 8.15q.15-.6.3-1.15v-.05h-.1L0 9.25l6.15 2.45q.25-1.05.45-2 .1-.8.25-1.55M7.7 4.9L8.85 0l-7.4 1.7L7.7 4.9M168 0l1.25 4.9 6.15-3.2L168 0m8.7 9.35l.1-.05h-.1L169.75 7h-.1v.05q.15.55.3 1.15.15.75.25 1.55.2.95.4 1.95l6.1-2.35z"
           id="AccJew033__Symbol_3_0_Layer0_0_FILL" />
      </defs>
      <use
         xlink:href="#AccJew033__Symbol_101_0_Layer0_0_FILL"
         transform="translate(109.85 265.9)"
         id="AccJew033__col1n" />
      <use
         xlink:href="#AccJew033__Symbol_41_0_Layer0_0_FILL"
         transform="translate(110.15 268.05)"
         id="AccJew033__col2n" />
      <use
         xlink:href="#AccJew033__Symbol_20_0_Layer0_0_FILL"
         transform="translate(123.6 268.15)"
         id="AccJew033__col2l" />
      <use
         xlink:href="#AccJew033__Symbol_10_0_Layer0_0_FILL"
         transform="translate(131.85 271.1)"
         id="AccJew033__col2d" />
      <use
         xlink:href="#AccJew033__Symbol_3_0_Layer0_0_FILL"
         transform="translate(104.05 271.25)"
         id="AccJew033__col2s" />
    </g>
  </g>
  <g
     transform=""
     id="g165">
    <g
       transform=""
       id="g163">
      <defs
         id="defs159">
        <path
           fill="#FFD3A8"
           d="M34.65 11q0-3.2-2.25-5.45-1.65-1.65-3.8-2.1-.3-.05-.55-.1-.25-.05-.5-.05-.15-.05-.35 0-.15-.05-.35 0h-.4q-.7.05-1.25.15-.15.05-.35.1Q20.7-.05 15.1 0 9.35-.05 5.2 3.65q-.05.05-.1.15-.2.1-.35.25-.05 0-.05.05l-.05.05-.2.2q-.25.25-.45.5-.05 0-.05.05l-.05.05-.3.3Q0 9.4 0 15q0 6.2 4.45 10.6Q8.85 30 15.1 30q2.9 0 5.4-.95.1-.05.2-.05.05-.05.15-.1h.05q.05-.05.15-.1.4-.15.75-.35l.8-.4q.1-.05.15-.1l.1-.05q1.5-.95 2.9-2.3 3.25-3.25 4.1-7.45.05-.05.1-.05l.3-.1q1.15-.55 2.15-1.55 2.25-2.25 2.25-5.45m135.6-6.85V4.1l-.05-.05q-.2-.15-.35-.25-.05-.1-.1-.15-4.2-3.7-9.9-3.65-5.65-.05-9.7 3.55-.2-.05-.35-.1-.4-.1-.8-.1l-.8-.05q-.2-.05-.35 0-.25-.05-.4 0-.25 0-.45.05h-.05q-.25.05-.45.1-2.2.45-3.85 2.1-2.3 2.25-2.3 5.45t2.3 5.45q.95 1 2.15 1.55l.3.1q.85 4.25 4.1 7.5 1.35 1.35 2.9 2.3.05 0 .1.05t.15.1q.35.2.75.4.35.2.75.35l.2.1h.05q.05.05.15.1.1 0 .2.05 2.5.95 5.4.95 6.25 0 10.65-4.4t4.45-10.6q-.05-5.6-3.65-9.75-.15-.15-.25-.3l-.1-.1q-.25-.25-.45-.5-.15-.1-.25-.2z"
           id="BodHan001__Symbol_2_0_Layer0_0_FILL" />
        <path
           fill="#F7BE86"
           d="M15.5 7.75q0-3.2-2.25-5.45Q11.6.65 9.45.2 9.15.15 8.9.1 8.65.05 8.4.05q-.15-.05-.35 0Q7.9 0 7.7.05h-.4Q6.6.1 6.05.2 5.9.25 5.7.3q-1.95.45-3.45 2Q0 4.55 0 7.75t2.25 5.45q1.7 1.7 3.95 2.1l1.5.15h.1l.75-.05q1.15-.1 2.15-.5.05-.05.1-.05l.3-.1q1.15-.55 2.15-1.55 2.25-2.25 2.25-5.45M12.45 3q1.95 1.95 1.95 4.75 0 2.75-1.95 4.7-.85.9-1.85 1.4-1 .45-2.05.55l-.75.05h-.1l-1.3-.15q-1.9-.4-3.35-1.85-2-1.95-1.95-4.7Q1.05 4.95 3.05 3q1.45-1.45 3.3-1.8.5-.1 1-.15H7.8q.4 0 .85.1 2.15.25 3.8 1.85m124.3 4.75q-.05-3.2-2.3-5.45-1.5-1.55-3.4-2H131q-.2-.05-.35-.1-.4-.1-.8-.1l-.8-.05q-.2-.05-.35 0-.25-.05-.4 0-.25 0-.45.05h-.05q-.25.05-.45.1-2.2.45-3.85 2.1-2.3 2.25-2.3 5.45t2.3 5.45q.95 1 2.15 1.55l.3.1q1 .4 2.25.55l.75.05h.1l1.5-.15q2.2-.4 3.9-2.1 2.25-2.25 2.3-5.45M133.7 3q1.95 1.95 1.95 4.75 0 2.75-1.95 4.7-1.45 1.45-3.35 1.85l-1.3.15h-.1l-.75-.05q-1.1-.1-2-.55-1.05-.5-1.95-1.4-1.95-1.95-1.9-4.7-.05-2.8 1.9-4.75 1.65-1.6 3.8-1.85h.05q.4-.1.85-.1H129.4q.5.05 1 .15 1.85.35 3.3 1.8z"
           id="BodHan001__Symbol_1_0_Layer0_0_FILL" />
      </defs>
      <use
         xlink:href="#BodHan001__Symbol_2_0_Layer0_0_FILL"
         transform="translate(105.05 280.6)"
         id="BodHan001__col1n" />
      <use
         xlink:href="#BodHan001__Symbol_1_0_Layer0_0_FILL"
         transform="translate(124.2 283.85)"
         id="BodHan001__col1d" />
    </g>
  </g>
  <g
     transform=""
     id="g174">
    <g
       transform=""
       id="g172">
      <defs
         id="defs168">
        <path
           fill="#000000"
           d="M27.95.55q-.15-.35-.5-.5-.4-.15-.75.05Q14.55 5.7 1.35.1.95-.1.6.1.25.2.1.6q-.2.35 0 .7.1.35.5.55Q14.65 7.8 27.5 1.8q.35-.15.5-.5.15-.4-.05-.75z"
           id="FacMou001__Symbol_1_0_Layer0_0_FILL" />
      </defs>
      <g
         id="FacMou001__col1n"
         transform="translate(178.5 224.8)">
        <use
           xlink:href="#FacMou001__Symbol_1_0_Layer0_0_FILL"
           id="FacMou001__col1n_FL" />
      </g>
    </g>
  </g>
  <g
     transform=""
     id="g189">
    <g
       transform=""
       id="g187">
      <defs
         id="defs179">
        <path
           fill="#FFFFFF"
           d="M44.2 17.6Q51.382 9.87 53.05.05H.2Q.15.45.1.9q-.2 2.7.05 5.15.25 3.15 1.25 6 1.65 4.65 5.15 8.4 7.25 7.75 18.25 6.9 11.05-.8 19.4-9.75m55.7 2.85q3.75-4 5.35-9.15.75-2.4 1-5.05.3-2.6.1-5.4-.05-.4-.05-.8H53.5q-.05 0 0-.05h-.05q1.6 9.85 8.8 17.6 8.35 8.95 19.4 9.75 11 .85 18.25-6.9z"
           id="FacEye015__Symbol_18_0_Layer0_0_FILL" />
        <path
           fill="#000000"
           d="M6.8.7q0-.35-.05-.7H.1Q0 .35 0 .7q0 1.4 1 2.35.95 1 2.4 1.05 1.4-.05 2.4-1.05 1-.95 1-2.35M32 .7q0 1.4 1 2.35 1 1 2.45 1.05 1.4-.05 2.35-1.05 1-.95 1-2.35 0-.35-.05-.7H32.1q-.1.35-.1.7z"
           id="FacEye015__Symbol_23_0_Layer0_0_FILL" />
        <path
           fill-opacity="0.251"
           d="M236.45 146.15q-8.25-9.05-19.35-9.85-7.25-.55-12.9 2.7-2.95 1.6-5.5 4.35-3.98 4.404-5.55 10.1-.293 1.029-.5 2.1-.05.2-.05.35-.053.382-.1.75-.044-.393-.1-.8 0-.15-.05-.35-.202-1.045-.5-2.05-1.552-5.726-5.55-10.15-2.55-2.75-5.5-4.35-5.65-3.25-12.9-2.7-11.1.8-19.35 9.85-8.212 8.55-9.15 19.9h1.6q.974-10.69 8.7-18.8 7.8-8.55 18.3-9.35 6.75-.55 12 2.5h.05q2.7 1.5 5.1 4.05 3.574 3.98 5.05 9.05.363 1.169.45 1.8.144.635.7 3.05.55 2.415.6 3.25.333 3.262.4 4.4l.45.05q.019-.124.4-3.65.387-3.523.7-4.8.308-1.28.4-2.1.141-.81.5-2 1.493-5.04 5.05-9 2.4-2.55 5.1-4.05h.05q5.25-3.05 12-2.5 10.5.8 18.3 9.35 7.708 8.091 8.65 18.75h1.65q-.956-11.319-9.15-19.85z"
           id="FacEye015__Layer6_0_FILL" />
      </defs>
      <g
         id="FacEye015__col1n"
         transform="translate(139.3 165.95)">
        <use
           xlink:href="#FacEye015__Symbol_18_0_Layer0_0_FILL"
           id="FacEye015__col1n_FL" />
      </g>
      <g
         id="FacEye015__col2n"
         transform="translate(173 166)">
        <use
           xlink:href="#FacEye015__Symbol_23_0_Layer0_0_FILL"
           id="FacEye015__col2n_FL" />
      </g>
      <use
         xlink:href="#FacEye015__Layer6_0_FILL"
         id="use185" />
    </g>
  </g>
  <g
     transform=""
     id="g201">
    <g
       transform=""
       id="g199">
      <defs
         id="defs194">
        <path
           fill="#725849"
           d="M170.9 35.8q-2.25-2.75-4.75-5.4-1.1-1.15-2.2-2.25-1.3-1.3-2.65-2.55Q133.9 0 95.9 0 74.8 0 56.95 7.9q-14.25 6.3-26.4 17.7-1.35 1.25-2.65 2.55-1.1 1.1-2.2 2.25Q15.5 41.2 9.3 53.7q-4.1 7.95-6.4 17.25Q1.35 78.15.6 86L.05 97.35q-.05.2 0 .45Q0 99.5 0 101.3q1.65-2.3 3.35-5.15l7.85-14.9q.1-.3.25-.6L12 79.5q.7-1.65 1.4-3.2 5.55-12.3 10.25-21 5.15-9.55 9.25-14.8 1.85-2.45 3.5-3.95.1-.1.25-.15.1-.15.25-.25.9-.8 1.8-1.3 7.15-4.55 18.25-2.65 1.5.25 3.1.65.1.05.2.05.95.2 1.95.5 3.35.85 6.8 2.35l1 .4q2.6 1.2 5.3 2.8h-.1q10.55 6.55 20.55 6.5h.45q10 .05 20.55-6.5h-.1q2.7-1.6 5.3-2.8l1-.4q3.45-1.5 6.8-2.35 1-.3 1.95-.5.1 0 .2-.05 13.2-3.2 21.35 2 .9.5 1.8 1.3.15.1.25.25.15.05.25.15 1.65 1.5 3.5 3.95 4.1 5.25 9.25 14.8 1.25 2.35 2.6 4.95 3.6 7.05 7.65 16.05.7 1.55 1.4 3.2l.55 1.15q.15.3.25.6l7.85 14.9q1.546 2.591 3.05 4.7.583-7.331-.3-14.85-.45-4.85-1.6-10.6l-.1-.6-.05-.15q-.05-.25-.1-.45-.95-4.8-2.35-9.25l-3.75-9.55q-4.9-10.35-12.5-19.6z"
           id="HaiSho018__Symbol_139_0_Layer0_0_FILL" />
        <path
           fill="#463329"
           d="M56.3 2.25q1.5.25 3.1.65-1.4-.5-3.1-1.1-.45-.2-.95-.35Q50.6 0 46.7 0 34.65 0 26.6 10.3q-3.7 4.75-10.05 18.85-5.75 13-7.75 19.8-.7 2.5-4.6 11.6L0 70.35q1.35-2 2.7-4.15l7.85-14.9q.1-.3.25-.6l.55-1.15q.7-1.65 1.4-3.2 5.55-12.3 10.25-21 5.15-9.55 9.25-14.8 1.85-2.45 3.5-3.95.1-.1.25-.15.1-.15.25-.25.9-.8 1.8-1.3Q45.2.35 56.3 2.25M116 9q-10.5 4.05-20.45 4h-.45q-9.95.05-20.45-4h-.1q10.55 6.55 20.55 6.5h.45q10 .05 20.55-6.5h-.1m54.25 12q-3.7-7.5-6.2-10.7Q156 0 143.95 0q-3.9 0-8.65 1.45-2.25.8-4.05 1.45 13.2-3.2 21.35 2 .9.5 1.8 1.3.15.1.25.25.15.05.25.15 1.65 1.5 3.5 3.95 4.1 5.25 9.25 14.8 1.25 2.35 2.6 4.95 3.6 7.05 7.65 16.05.7 1.55 1.4 3.2l.55 1.15q.15.3.25.6l7.85 14.9q1.35 2.15 2.7 4.15l-4.2-9.8q-3.9-9.1-4.6-11.6-2-6.8-7.75-19.8-2.05-4.6-3.85-8.15z"
           id="HaiSho018__Symbol_68_0_Layer0_0_FILL" />
        <path
           fill="#876C5C"
           d="M167.85 39.65q1.45 1.6 2.85 3.25 9.35 11.35 14.1 24.45l-.7-2.4-3.75-9.55q-.2-.4-.4-.75-.15-.3-.25-.6l-.65-1.3q-.15-.2-.25-.4l-.05-.2q-.1-.15-.15-.25-.1-.2-.2-.35-.1-.2-.15-.35-.1-.2-.2-.35-.1-.15-.15-.3-4.15-7.65-10.05-14.75-1.5-1.85-3.1-3.6-.55-.6-1.05-1.15-1.35-1.45-2.8-2.9Q132.7 0 92.85 0 71.75 0 53.9 7.9q-15.8 7-29.05 20.25-1.55 1.55-3 3.15-6.05 6.5-10.6 13.6l-.7 1.1q-.5.8-.95 1.6l-.1.15q-.15.15-.2.35l-.2.3-.45.8q-.3.45-.55 1l-.1.15-.05.15q-.45.75-.85 1.55-.45.8-.85 1.65l-.15.35q-.15.2-.2.4l-.05.05Q2.95 60.3 1 66.9l-.05.05q-.05.15-.1.35Q.4 68.85 0 70.45q.5-1.6 1.05-3.15 6.85-18.95 23.4-34.25 3.85-3.55 7.9-6.6Q42.45 18.8 53.9 14.2q17.85-7.3 39-7.3 39.3 0 67.3 25.15l1.1 1q3.5 3.2 6.55 6.6z"
           id="HaiSho018__Symbol_20_0_Layer0_0_FILL" />
      </defs>
      <use
         xlink:href="#HaiSho018__Symbol_139_0_Layer0_0_FILL"
         transform="translate(96.55 57.6)"
         id="HaiSho018__col1n" />
      <use
         xlink:href="#HaiSho018__Symbol_68_0_Layer0_0_FILL"
         transform="translate(97.2 87.55)"
         id="HaiSho018__col1d" />
      <use
         xlink:href="#HaiSho018__Symbol_20_0_Layer0_0_FILL"
         transform="translate(99.6 57.6)"
         id="HaiSho018__col1l" />
    </g>
  </g>
  <g
     transform=""
     id="g209">
    <g
       transform=""
       id="g207">
      <defs
         id="defs204">
        <path
           fill="#000000"
           d="M1.5 19.15L34 2.8 32.4 0 0 16.25l1.5 2.9M93 18.3l.55-3.15-35.7-6.2-.75 3.2 35.85 6.15H93z"
           id="FacBro002__Symbol_2_0_Layer0_0_FILL" />
      </defs>
      <use
         xlink:href="#FacBro002__Symbol_2_0_Layer0_0_FILL"
         transform="translate(145.55 119.4)"
         id="FacBro002__col1n" />
    </g>
  </g>
  <g
     id="g225">
    <g
       id="g223">
      <defs
         id="defs219">
        <filter
           id="Watermark__Filter_1"
           x="-20%"
           y="-20%"
           width="140%"
           height="140%"
           color-interpolation-filters="sRGB">
          <feColorMatrix
             in="SourceGraphic"
             values="1 0 0 0 0 0 1 0 0 0 0 0 1 0 0 0 0 0 0.49 0"
             result="result1"
             id="feColorMatrix211" />
        </filter>
        <g
           id="Watermark__Symbol_121_0_Layer0_0_FILL">
          <path
             d="M6.4 1q.05-.15 0-.25-.1-.1-.2-.15Q4.8 0 3.5 0 1.9 0 1.05.7q-1 .7-1 2.05 0 .65.3 1.2.2.45.6.85l.05.05q.4.35 1.25.75.85.35 1.05.5h.05q.1 0 .15.1v.1q0 .1-.05.15l-.05.05q-.15.05-.5.05-.5 0-1.15-.15v.05q-.6-.25-1.25-.5-.1-.1-.25-.05-.1.05-.15.15-.1.1-.1.2V8.2q0 .1.05.2t.2.15q.6.25 1.15.4h.05q.6.1 1.45.1 1.05 0 1.8-.3.85-.4 1.25-1.05.45-.7.45-1.6 0-.9-.45-1.55-.45-.6-1.65-1.1l-1.2-.6V2.8q-.1-.05-.15-.15 0-.1.05-.1.15-.1.45-.1.75 0 1.8.55h.2q.1 0 .2-.05l.1-.2L6.4 1m-.75.1l-.4 1.1q-1.05-.45-1.8-.45-.6 0-.85.25-.35.25-.35.65-.05.4.45.75.2.15 1.3.7h.05q.95.35 1.35.85.3.45.3 1.15t-.35 1.2q-.3.45-.95.8-.65.25-1.5.25-.75 0-1.35-.1h.05Q1.15 8.15.7 8V6.8q.45.15.85.3h.05q.7.15 1.3.15.6 0 .9-.2.4-.25.4-.75 0-.25-.05-.4-.2-.3-.55-.45-.2-.1-1.05-.5-.7-.35-1.1-.65-.3-.3-.45-.65-.25-.45-.25-.9 0-.95.75-1.5h-.05Q2.2.7 3.5.7q1.05 0 2.15.4m7.9 1.95q0-1.35-.85-2.15-.85-.8-2.55-.8H7.3q-.15 0-.25.1t-.1.25V8.6q0 .15.1.25t.25.1h2.2q.15 0 .25-.1t.1-.25V6.2h.3q1.6 0 2.55-.75V5.4q.85-.85.85-2.35M10.15.8q1.4 0 2.05.6.65.6.65 1.65 0 1.15-.6 1.85h-.05q-.75.6-2.05.6H9.5q-.15 0-.25.1t-.1.25v2.4h-1.5V.8h2.5m.8 3.35q0-.05.05-.05.3-.4.3-1 0-1.25-1.2-1.25h-.6q-.15 0-.25.1t-.1.25v1.9q0 .15.1.25t.25.1h.4q.65 0 1.05-.3M10.6 3.1q0 .3-.15.5-.2.15-.55.15h-.05v-1.2h.25q.5 0 .5.55M30.65.45q0-.15-.1-.25T30.3.1h-6.2q-.15 0-.25.1t-.1.25v.3Q23.7.65 23.6.6 22.2 0 20.9 0q-1.6 0-2.45.7-1 .7-1 2.05 0 .6.25 1.2.2.45.6.85l.05.05q.45.35 1.3.75.85.35 1 .45.05 0 .1.05.05 0 .05.05.05.1.15.2 0 .05-.05.1-.2.1-.55.1-.55 0-1.2-.15v.05q-.6-.25-1.25-.5-.1-.1-.2-.05-.15.05-.2.15-.097.048-.1.2V4.7q0-.15-.1-.25t-.25-.1h-3.2q-.15 0-.25.1t-.1.25v1.75q0 .15.1.25t.25.1h3.2q.15 0 .25-.1.097-.097.1-.2v1.7q0 .1.05.2t.2.15q.6.25 1.15.4h.05q.55.1 1.4.1 1.1 0 1.85-.3.85-.4 1.25-1.05.45-.7.45-1.6 0-.9-.45-1.55-.45-.6-1.65-1.1-.95-.45-1.2-.6-.15-.1-.15-.2t.05-.1l.05-.05q.1-.05.35-.05.8 0 1.8.55h.2q.05 0 .15-.05l.15-.15.65-1.7v1.15q0 .15.1.25t.25.1h1.65v6q0 .15.1.25t.25.1h2.15q.15 0 .25-.1t.1-.25v-6h1.7q.15 0 .25-.1t.1-.25V.45m-.7.35v1.1h-1.7q-.15 0-.25.1t-.1.25v6h-1.45v-6q0-.15-.1-.25t-.25-.1h-1.65V.8h5.5M22.6 2.2q-1-.45-1.8-.45-.65 0-.85.25H20q-.35.25-.35.65t.4.75h.05q.25.15 1.3.7h.05q.95.35 1.35.85.3.45.3 1.15t-.35 1.2q-.3.45-.95.8-.65.25-1.55.25-.75 0-1.25-.1-.45-.1-.9-.25V6.8q.45.15.85.3H19q.7.15 1.35.15.55 0 .9-.2.4-.25.4-.75 0-.25-.2-.45-.1-.3-.45-.4h.05q-.15-.1-1.1-.5-.75-.35-1.15-.65-.3-.3-.45-.65v.05q-.2-.45-.2-.95 0-.95.75-1.5h-.05Q19.6.7 20.9.7q1.05 0 2.1.4l-.4 1.1m-5.9 2.85V6.1h-2.5V5.05h2.5m22-4.6q0-.15-.1-.25t-.25-.1h-2.2q-.15 0-.25.1t-.1.25V5.2q0 .75-.2 1.05h-.05q-.2.3-.65.3t-.65-.3q0-.05-.05-.05-.25-.3-.25-1V.45q0-.15-.1-.25T33.6.1h-2.2q-.15 0-.25.1t-.1.25V5.4q0 1.75 1 2.7.95.95 2.8.95 1.85 0 2.85-.95 1-1 1-2.75V.45M36.5 5.2V.8H38v4.55q0 1.45-.8 2.25-.8.75-2.35.75t-2.3-.75q-.8-.75-.8-2.2V.8h1.5v4.4q0 1 .4 1.45.4.6 1.25.6t1.25-.6q.35-.4.35-1.45m10.8-.85q0-2.05-1.15-3.15T42.85.1h-2.8q-.15 0-.25.1t-.1.25V8.6q0 .15.1.25t.25.1h2.6q2.2 0 3.45-1.2 1.2-1.2 1.2-3.4M45.65 1.7q.95.9.95 2.65 0 1.9-1 2.9-1.05 1-2.95 1H40.4V.8h2.45q1.85 0 2.8.9m-2.75.15h-.65q-.15 0-.25.1t-.1.25v4.6q0 .15.1.25t.25.1h.5q1.2 0 1.75-.65v-.05q.5-.65.5-2 0-1.3-.45-1.9-.55-.7-1.65-.7M44 3v-.05q.3.5.3 1.5 0 1.05-.35 1.6-.4.4-1.2.4h-.15v-3.9h.3q.7 0 1.1.45M50.95.45q0-.15-.1-.25T50.6.1h-2.2q-.15 0-.25.1t-.1.25V8.6q0 .15.1.25t.25.1h2.2q.15 0 .25-.1t.1-.25V.45m-2.2.35h1.5v7.45h-1.5V.8M60.3 4.5q0-2.2-1.1-3.35T56 0q-2.1 0-3.2 1.15T51.7 4.5q0 2.2 1.15 3.35 1.05 1.2 3.15 1.2 2.1 0 3.2-1.15t1.1-3.4m-1.6-2.85q.9.95.9 2.85 0 1.95-.9 2.9t-2.7.95q-1.75 0-2.6-.95l-.05-.05q-.95-.95-.95-2.85 0-1.9.9-2.85Q54.2.7 56 .7q1.8 0 2.7.95m-1.15.9Q57 1.8 56 1.8q-1.95-.05-1.95 2.7 0 2.8 1.95 2.75 1 0 1.55-.75.45-.65.45-2t-.45-1.95M56 2.5q.6 0 1 .45.3.5.3 1.55t-.35 1.6H57q-.4.45-1 .45-1.25-.05-1.25-2.05 0-1.95 1.25-2m7.25 5.2q0-.75-.35-1.05-.45-.4-1.15-.4t-1.05.4h-.05q-.4.35-.4 1.05 0 .6.4 1t1.1.4q.7 0 1.1-.4.4-.4.4-1m-.85-.55l.05.05q.1.15.1.5 0 .3-.2.5t-.6.2q-.4 0-.6-.2-.2-.2-.2-.5 0-.35.2-.5v-.05q.2-.2.6-.2.4 0 .65.2m7.95-5.95Q69.2.1 67.1.1h-2.8q-.15 0-.25.1t-.1.25V8.6q0 .15.1.25t.25.1h2.6q2.2 0 3.4-1.2 1.2-1.2 1.2-3.4 0-2.05-1.15-3.15M67.1.8q1.8 0 2.75.9t.95 2.65q0 1.9-1 2.9t-2.9 1h-2.25V.8h2.45m0 1.05h-.6q-.15 0-.25.1t-.1.25v4.6q0 .15.1.25t.25.1h.45q1.2 0 1.75-.65.55-.7.55-2.05 0-1.3-.5-1.9-.55-.7-1.65-.7m-.25.7h.25q.7 0 1.1.45.35.45.35 1.45 0 1.05-.4 1.6-.4.4-1.2.4h-.1v-3.9m10.6 0q.15 0 .25-.1t.1-.25V.45q0-.15-.1-.25t-.25-.1H72.6q-.15 0-.25.1t-.1.25V8.6q0 .15.1.25t.25.1h4.85q.15 0 .25-.1t.1-.25V6.8q0-.15-.1-.25t-.25-.1H75.2v-.8h2.05q.15 0 .25-.1t.1-.25V3.5q0-.15-.1-.25t-.25-.1H75.2v-.6h2.25M77.1.8v1.05h-2.25q-.15 0-.25.1t-.1.25v1.3q0 .15.1.25t.25.1h2.05v1.1h-2.05q-.15 0-.25.1t-.1.25v1.5q0 .15.1.25t.25.1h2.25v1.1h-4.15V.8h4.15z"
             id="path214" />
          <path
             fill="#FFF"
             d="M5.25 2.2l.4-1.1Q4.55.7 3.5.7q-1.3 0-2.05.55h.05q-.75.55-.75 1.5 0 .45.25.9.15.35.45.65.4.3 1.1.65.85.4 1.05.5.35.15.55.45.05.15.05.4 0 .5-.4.75-.3.2-.9.2-.6 0-1.3-.15h-.05q-.4-.15-.85-.3V8q.45.15.9.25h-.05q.6.1 1.35.1.85 0 1.5-.25.65-.35.95-.8.35-.5.35-1.2t-.3-1.15q-.4-.5-1.35-.85H4q-1.1-.55-1.3-.7-.5-.35-.45-.75 0-.4.35-.65.25-.25.85-.25.75 0 1.8.45m6.95-.8q-.65-.6-2.05-.6h-2.5v7.45h1.5v-2.4q0-.15.1-.25t.25-.1h.65q1.3 0 2.05-.6h.05q.6-.7.6-1.85 0-1.05-.65-1.65M11 4.1q-.05 0-.05.05-.4.3-1.05.3h-.4q-.15 0-.25-.1t-.1-.25V2.2q0-.15.1-.25t.25-.1h.6q1.2 0 1.2 1.25 0 .6-.3 1m5.7 2V5.05h-2.5V6.1h2.5m4.1-4.35q.8 0 1.8.45l.4-1.1Q21.95.7 20.9.7q-1.3 0-2.05.55h.05q-.75.55-.75 1.5 0 .5.2.95v-.05q.15.35.45.65.4.3 1.15.65.95.4 1.1.5H21q.35.1.45.4.2.2.2.45 0 .5-.4.75-.35.2-.9.2-.65 0-1.35-.15h-.05q-.4-.15-.85-.3V8q.45.15.9.25.5.1 1.25.1.9 0 1.55-.25.65-.35.95-.8.35-.5.35-1.2t-.3-1.15q-.4-.5-1.35-.85h-.05q-1.05-.55-1.3-.7h-.05q-.4-.35-.4-.75T20 2h-.05q.2-.25.85-.25m9.15.15V.8h-5.5v1.1h1.65q.15 0 .25.1t.1.25v6h1.45v-6q0-.15.1-.25t.25-.1h1.7M36.5.8v4.4q0 1.05-.35 1.45-.4.6-1.25.6t-1.25-.6q-.4-.45-.4-1.45V.8h-1.5v4.6q0 1.45.8 2.2.75.75 2.3.75 1.55 0 2.35-.75.8-.8.8-2.25V.8h-1.5m10.1 3.55q0-1.75-.95-2.65-.95-.9-2.8-.9H40.4v7.45h2.25q1.9 0 2.95-1 1-1 1-2.9m-4.35-2.5h.65q1.1 0 1.65.7.45.6.45 1.9 0 1.35-.5 2v.05q-.55.65-1.75.65h-.5q-.15 0-.25-.1t-.1-.25V2.2q0-.15.1-.25t.25-.1m8-1.05h-1.5v7.45h1.5V.8m9.35 3.7q0-1.9-.9-2.85Q57.8.7 56 .7q-1.8 0-2.7.95-.9.95-.9 2.85 0 1.9.95 2.85l.05.05q.85.95 2.6.95 1.8 0 2.7-.95.9-.95.9-2.9M56 1.8q1 0 1.55.75.45.6.45 1.95t-.45 2q-.55.75-1.55.75-1.95.05-1.95-2.75 0-2.75 1.95-2.7m6.45 5.4l-.05-.05q-.25-.2-.65-.2t-.6.2v.05q-.2.15-.2.5 0 .3.2.5t.6.2q.4 0 .6-.2.2-.2.2-.5 0-.35-.1-.5m7.4-5.5Q68.9.8 67.1.8h-2.45v7.45h2.25q1.9 0 2.9-1t1-2.9q0-1.75-.95-2.65m-3.35.15h.6q1.1 0 1.65.7.5.6.5 1.9 0 1.35-.55 2.05-.55.65-1.75.65h-.45q-.15 0-.25-.1t-.1-.25V2.2q0-.15.1-.25t.25-.1m10.6 0V.8h-4.15v7.45h4.15v-1.1h-2.25q-.15 0-.25-.1t-.1-.25V5.3q0-.15.1-.25t.25-.1h2.05v-1.1h-2.05q-.15 0-.25-.1t-.1-.25V2.2q0-.15.1-.25t.25-.1h2.25z"
             id="path216" />
        </g>
      </defs>
      <use
         filter="url(#Watermark__Filter_1)"
         xlink:href="#Watermark__Symbol_121_0_Layer0_0_FILL"
         transform="translate(304.4 372.3)"
         id="use221" />
    </g>
  </g>
</svg>
