<?xml version="1.0" encoding="UTF-8" standalone="no"?>
<svg
   xmlns:dc="http://purl.org/dc/elements/1.1/"
   xmlns:cc="http://creativecommons.org/ns#"
   xmlns:rdf="http://www.w3.org/1999/02/22-rdf-syntax-ns#"
   xmlns:svg="http://www.w3.org/2000/svg"
   xmlns="http://www.w3.org/2000/svg"
   xmlns:xlink="http://www.w3.org/1999/xlink"
   xmlns:sodipodi="http://sodipodi.sourceforge.net/DTD/sodipodi-0.dtd"
   xmlns:inkscape="http://www.inkscape.org/namespaces/inkscape"
   id="stage-svg"
   preserveAspectRatio="none"
   viewBox="0 0 385 385"
   version="1.1"
   sodipodi:docname="goodFairy.svg"
   inkscape:version="1.0.2-2 (e86c870879, 2021-01-15)">
  <metadata
     id="metadata248">
    <rdf:RDF>
      <cc:Work
         rdf:about="">
        <dc:format>image/svg+xml</dc:format>
        <dc:type
           rdf:resource="http://purl.org/dc/dcmitype/StillImage" />
        <dc:title></dc:title>
      </cc:Work>
    </rdf:RDF>
  </metadata>
  <defs
     id="defs246" />
  <sodipodi:namedview
     pagecolor="#ffffff"
     bordercolor="#666666"
     borderopacity="1"
     objecttolerance="10"
     gridtolerance="10"
     guidetolerance="10"
     inkscape:pageopacity="0"
     inkscape:pageshadow="2"
     inkscape:window-width="732"
     inkscape:window-height="480"
     id="namedview244"
     showgrid="false"
     inkscape:zoom="1.0625"
     inkscape:cx="400"
     inkscape:cy="400"
     inkscape:window-x="0"
     inkscape:window-y="0"
     inkscape:window-maximized="0"
     inkscape:current-layer="stage-svg" />
  <g
     transform=""
     id="g46">
    <g
       transform="matrix(-1,0,0,1,385,0)"
       id="g44">
      <defs
         id="defs36">
        <linearGradient
           id="PlaOut044__Gradient_1"
           gradientUnits="userSpaceOnUse"
           x1="192.5"
           y1="378.975"
           x2="192.5"
           y2="203.025"
           spreadMethod="pad">
          <stop
             offset="0%"
             stop-color="#85C840"
             id="stop2" />
          <stop
             offset="100%"
             stop-color="#A7D775"
             id="stop4" />
        </linearGradient>
        <linearGradient
           id="PlaOut044__Gradient_2"
           gradientUnits="userSpaceOnUse"
           x1="192.5"
           y1="382.262"
           x2="192.5"
           y2="198.637"
           spreadMethod="pad">
          <stop
             offset="0%"
             stop-color="#85C840"
             id="stop7" />
          <stop
             offset="100%"
             stop-color="#A7D775"
             id="stop9" />
        </linearGradient>
        <linearGradient
           id="PlaOut044__Gradient_3"
           gradientUnits="userSpaceOnUse"
           x1="192.5"
           y1="2"
           x2="192.5"
           y2="76"
           spreadMethod="pad">
          <stop
             offset="0%"
             stop-color="#72CDF3"
             id="stop12" />
          <stop
             offset="100%"
             stop-color="#B1E3F8"
             id="stop14" />
        </linearGradient>
        <g
           id="PlaOut044__Layer7_0_FILL">
          <path
             fill="url(#PlaOut044__Gradient_1)"
             d="M0 163.75v3.05q.388-.15.65-.15.75 0 3.75.45l2.3.35q.55-.05 1.1-.15h.3q.15-.05.2-.15l.85-.75q.95-.7 2.7.15.9 0 2.3.3 3.7.7 4.45 2v-1.7q0-.85.25-3.4H0m275.6 3.5q2-2.3 3.45-2.7.3-.05.6 0 .3-.05.7-.05.25 0 3.15.8 3 .95 3.45.95 2.45.15 3.3 1 .4-3.3.4-3.4v-.1H264.4q.35 1.35.35 2.35 0 1.05.15 1.9 0 .45.8 5.75.2 1.3.3 2.55 1.6-.75 5.05-.9 1-4.1 4.55-8.15z"
             id="path17" />
          <path
             fill="url(#PlaOut044__Gradient_2)"
             d="M385 385V161.05H0v2.7h18.85q-.25 2.55-.25 3.4v1.7q-.75-1.3-4.45-2-1.4-.3-2.3-.3-1.75-.85-2.7-.15l-.85.75q-.05.1-.2.15h-.3q-.55.1-1.1.15l-2.3-.35q-3-.45-3.75-.45-.262 0-.65.15V385h385M279.05 164.55q-1.45.4-3.45 2.7-3.55 4.05-4.55 8.15-3.45.15-5.05.9-.1-1.25-.3-2.55-.8-5.3-.8-5.75-.15-.85-.15-1.9 0-1-.35-2.35h26.25v.1q0 .1-.4 3.4-.85-.85-3.3-1-.45 0-3.45-.95-2.9-.8-3.15-.8-.4 0-.7.05-.3-.05-.6 0z"
             id="path19" />
          <path
             fill="url(#PlaOut044__Gradient_3)"
             d="M385 161.05V0H0v161.05h385z"
             id="path21" />
        </g>
        <g
           id="PlaOut044__Layer6_0_FILL">
          <path
             fill="#265904"
             d="M143.7 157.85q-.6-.2-1-.8-.65-1-1-1-1 0-1.45 1.3-.5 1.35-1.5 1.35-1.5 0-2.35-2.3-.15-.35-.5-.65-.65 2.25-.9 3.5 0 .3.1 2.1.1 1.35.35 2.4h7.9q-.2-1.25-.2-2.2 0-1.05.55-3.7M19.85 151.6q-1.1.5-1.35.6-.65.2-2 2.05-1 1.4-1.2 2.05-.2.05-.3.05-.15 0-1.3-1.45-1.15-1.5-2.15-1.5-.75 0-1.9 1.25-.55.7-1.2 1.55-.3.35-2 1.45-.6.45-.95.8-.8-.55-1.4-2.05-.15-.5-.25-.9-.6-.95-2.05-1.25-1.005.386-1.8.8v8.7h18.85v-.1-1.4q.05-1 .7-6 .3-2.15.3-4.5v-.15m263.55 4.65l-.05-.05q-1.15.3-1.8.3-.15 0-1.05-.7-1-.6-2.15-.6-.45 0-1.6.6-1.15.6-1.7.6-1.55-.9-2.55-.9-.45 0-2 .55-1.5.6-1.65.6-.5 0-1.5-1.6-.2-.4-.45-.65-.2-.05-.35-.15-.2.3-.35.65-.65.9-1.5.9-1.55 0-2.3-1.4-.15-.15-.15-.35-.4.15-.8.35-.45.2-.85.4.2.55.55 1.3.7 1.45 2.3 5 .6 1.45.95 2.65h26.25q0-.95-.15-3.9-.15-2.45-.1-4.15-.9-.2-2.3-.2-.15.2-.3.45-1.1 1.55-2.25 1.55-1 0-2.15-1.25z"
             id="path24" />
          <path
             fill="#666"
             d="M83.8 96.6q1-1.7 1-2.55 0-2.2-4.55-4.65-4-2.15-7.15-2.3-.35-.25-1.05-.25-2.85.4-5.7.55-5.8.55-8.65.55-2.15-.65-3.95-.65-6.9 0-9.35 2.4-1.6 1.55-1.6 4.85 0 .5.2 1.85.2 1.3.2 1.8v2.1q.05 1.55 1.05 1.55h2.1q-1.1.65-1.7.95h-.85q-1.1-.05-1.55.2-.05 0-.15.05.1-1.75.1-2.75 0-1.7-.25-2.55-.55-2.15-2.6-2.15-1 .1-2.95-1-1.65-1-1.75-1-1.05-.85-2.15-.85l-2.9-.2q-3.55 0-6.6 2.85-3.4 3.2-3.4 8.1 0 .1.3 2.85.45 2.75 1.95 2.75.35.25 1 .5.2.05.35.15l.1.7q.05 1.05.05 1.8-.05.15-.15.35-.6 1.9-.5 2.6.15 1.05 0 2.65-.1.85-.25 2.55 0 .45-.45 5.6-.15 2.45-.15 4.95 0 3.65-1.85 12.5-.1.35.05.6-.2.45-.2.75 0 .35.15 3.5 0 1-.15 3.3v.15q0 2.35-.3 4.5-.65 5-.7 6v1.5q-.25 2.55-.25 3.4v1.7q-.75-1.3-4.45-2-1.4-.3-2.3-.3-1.75-.85-2.7-.15l-.85.75q-.05.1-.2.15h-.3q-.55.1-1.1.15l-2.3-.35q-3-.45-3.75-.45-.262 0-.65.15v11q1.26.4 3.4.4l1.7-.15q.4 0 .7.1.2.05.5.2 1.35.65 3.3.65 1.4-.3 1.65-.3l1.5.15q.55.05 1.5.05.5 0 .75-.2h.1q.9 0 1.3-.1h2.15v.25q0 .75.05 1.15.15 1.05.3 1.2.15.15.3.4.2.25.65.25.85.15 2.2.15 1.15 0 1.55-.1-.143-.048-.25-.05h.5q2.6 0 3.8-.35.15.1.5.1.8 0 4.45-2.25h.05v2.25q.1.7.25 1.25v.2q0 .15.35.4.1.05.25.05.3.15.75.25h4.65q2.65 0 6.95.1.3 0 .65.05 1.45-.3 3.45-.75 3.2-.85 4.3-1.25 2.2-.85 4.05-1.15.1 0 .15-.05.3.65 1.55 1.35.9.15 2.75.8 3.85.9 10.15.9.45 0 1.6.15.3.1.7.1 1.7.2 2.3.2 4.9 0 7.85-1.05Q87 182.5 91.1 181q.75-.25 2.15-1.1v4.75q.2 2.5 2.05 2.5 1 0 2.25-.1.2.1.45.1h10q3.9.2 6.2.2l5.45-.4 4 .25q.35 0 1.05-.05h.3q2.5 0 4.55-.4 2-.3 3.7-.3l2.75.2q2 0 2.7-1.2.75-1.3.45-4.6-.1-1.15.25-3.15.3-2.3.3-3.25 0-.3-.4-2.15-.4-1.7-.55-2.15-.2-.85-1.2-2.2-1.25-1.85-1.45-2.15-.45-.85-.65-2.05-.25-1.05-.35-2.4-.1-1.8-.1-2.1.25-1.25.9-3.5.15-.7.35-1.4 1.45-5.3 1.45-10 .15-1 .2-1.45.1-.6-.15-1.05v-.55q-.15-2.95-.05-3.7.15-2 .15-3.35-.1-1.65-.1-3 0-5.25-.15-7.1v-4.35q-.15-3.55-.15-3.85l-.05-4.6q-.1-.25-.1-.7-1.05-3.05-1.05-3.7 0-.75.2-1.35.1-.25.15-.45 0-.1-.05-.2-.15-.5-.25-.8-.15-.65-.55-.95-.5-.4-2.6-1.35-2.3-1.1-3.05-1.1h-1.15q-1.15 0-2.55.15h-.05q-1.85.15-2.85.25-.3-.3-3.55-.25h-.15l-4.2.15h-.65q-2.6.1-4 .25-1.35.15-2.5.15-3.45-.15-5.3-.15-1.4.45-3 2.2-.7 1.45-.85 3.7 0 .15-.7 3.6-.75 3.45-.75 4v.1q-.15-.15-.4 0-.45-.1-1.2-.1h-1.3q.055-.002.2-.05l-6.3.15q-.6-2.4-.9-3.65-.55-2.15-1.15-3.5-1.65-3.85-1.7-4.1-1.7-2.8-3.75-2.8-.3 0-.55.05-.25-.05-.4-.05h-.15q-.2-.1-.2 0h-.5q.35-.25 1.15-.8 1.1-.7 1.4-1.05.75-.85 1.7-2.4m-22.65 5.6q.45-.05 1.15-.05.15 0 .55.05-2 1.95-3.1 6.45-1.15 4.3-1.15 8.6v.1q-.2-.55-.45-1.1-1.25-2.45-1.25-2.85 0-.05.5-.9.45-.85.45-1.15 0-.75-1.3-3.9-1.4-3.1-1.4-3.55.1-.7 0-1.1.3-.05.6-.15.4-.05 1.1-.2h3.05q.25 0 .55-.15.3 0 .7-.1m-39.8 66.1l.1.1h-.1v-.1m102.9-32.9q-.05-.1-.05-.25.05-.15.05-.25.1.15 0 .5M330.5 77.7q-1.7 3.55-1.85 5.4-3.25.05-6.9.05l-2.5.4q-2.45.4-4.1.4-1.35 0-1.85.15-.55-.25-.95-.3-2.35-.8-2.9-.8-.3-.05-.6-.05h-1.8q-1.3.05-2.75-.15-1.7-.4-2.85-.4H291.4q-2.4.15-5.45-.1-4.85-.2-6-.3-.6 0-1.9.25-1.3.15-2.7.15h-3.3q-9.6-.4-11.2-.4l-4.75.3q-1.95 0-3.85.25-1.9.15-2.85.15-6 0-10.65.95-1.8.3-2.8.6-1 .55-1.8.75-.1 0-.2.1-.2-.25-.3-.4-.3-1.05-2.05-1.85-.3-.15-.55-.2-.25-.25-.6-.25l-5.45-.15q-.45 0-1.1.05-2.15-1.15-15.9-4.05-2.8-.45-6.3-.9-4.45-.55-6.9-.95-1.65-.3-3.2-.5-1-.2-2-.2-4.3-.35-4.9.65-.5.15-.8.85-.3.75-.3 1.9 0 .6-.25 1.7-.15.7-.15 1.15V82h-.45q-3 0-4.65 1.15l-.5-.3q-1.9-1.35-2.6-2.3-.55-.7-1.4-1.6-.05-.25-.15-.45-.6-1.4-1.3-2.3-.35-.8-.7-1.15-.45-.7-1.5-1.15-.8-.25-4-.55-3.3-.3-5.55-.3-3.6.05-7.2.6-7.2 1.05-7.2 5.6l.05.4q-.3.7-.45 1.85-.45 2.15-.45 3.5v.85q0 .25-.1.45-.2 1.8-.2 2.4 0 .05.05 1.7 0 .3.1.6v.7q0 .45.15.9.2.55.55.8.2.6.65 2 .85 2.65.85 4.75 0 1.2-.2 5.5-.8 2.55-1.25 5.4-.15.75-1.55 6.65-.5 2.65-.6 5.15-.3.55-.25 1.45 0 .85.25 2.5 0 .3.1 2.95 0 1.1.15 3.1 0 .75-.15 2.45-.1.9.15 3.05.15 1.85.15 5.7 0 1 .15 3.1.05 2.15.05 3.3l-.05 2.2q0 1 .15 1.55-.1 1.3-.6 3.6v.05q-.55 2.65-.55 3.7 0 .95.2 2.2.2 1.25.65 2.8.85 3.05.85 6.15 0 .6-.1 1.75-.15 1.3-.15 1.85l.1 1.75q.05.4.15.7.65.6 1.05 1.15 0 .1.1.15.45.15 1.3.4h.45q-.3 2.45-.3 4.3 0 2.45.15 3 .6 1.6 2.4 2.05.45.3 1.35.4.8.1 1.6 0v.1q.15 0 1-.1 1-.1 2.1 0l3.85.25q1.6 0 5.95.05.7 0 1.3-.05l8.7.3q2 0 3.15.15 1.15.05 1.55.05h.9q6.6 0 11.35-4.05 4.1-3.45 5.1-8.9h.05q4.85 0 8.15-.8.7-.15 1.3-.35h.1q.85-.15 7.2-.3-.15 2.05-.15 4.15 0 1.3.3 5.6 0 .35-.25 1.45-.05.9.35 1.45 1.15 1.45 6.65 1.6 0 .4 4.75 0 2.4-.15 5-.35h2q1.3 0 2.7-.25h10.8q2.5 0 4.55-.4 1.1-.2 1.75-.5h.15q.5 0 5.15-.7 3-.4 7.25-.55 1 0 .9-3.05h3.4q2.35.5 3.8.65h5.15q.85-.5 1.4-2.05h.05q1.25.4 3.65.4 3.2 0 5.3-.15-.15 1.5-.15 2.45 0 1.85.3 2.45 1.05 2.05 4.9 1.3h9.45q.45-.1 13.35-.4h5.55q2.75-.6 12.55-.75 1.4 0 1.95-.75 4.15-.4 5.2-4.15 4.4 2.6 8.05 2.6H355.65q.3-.1 1.3 0 .85-.15 1.25-.55.25.1.55.3.9.55 2 1.55.5.25 1.15.55.7.3 1.3.75l.05.1q2.25 1.15 4.4 1.15 2.85 0 5.85-.65 2.95-.7 3.75-.7 2.162 0 7.75.35V83.65q-.072.032-.15.05-.95.15-1.15.15-2.7 0-15.9-.7-13.75-.75-14.75-.85h-7.45q-.15-.3-.45-.65-1-1.4-1.3-1.85-5.15-7.3-7.9-7.3-3.1 0-5.45 5.2m18.7 31.65l-.35-5.9q0-1.8-.4-2.7l1.6-.15v-.1q3.85.1 7.05.5 2.8.35 8.85.45-3.85 1.85-3.85 6.75 0 2.4.4 3.75.4 1.45.4 3.1 0 .75-1.7 6.3-1.7 5.5-1.7 10.4 0 .25.15.95.25.7.25 1 0 .45-.4 4.2l.55 7.3q0 2.15.2 7.7 0 .7-.45 4.45-.9-.7-2.15-.95-.6-2.15-.55-4.8 0-.55-.3-4.3-.35-3.95-.35-4.95l.3-9.6q.2-1.5.2-2.35-.05-1.55-.8-2.45-.65-.55-2.65-.85-2.15-.15-2.85-.3-1.2-.25-2.15-.15 0-5.55.35-10.7.35-6.2.35-6.6M233.65 85.3q-.05 0-.2.15.05-.15.15-.2l.05.05m1.95 9.25q-.15-.25-.3-.65.45.65 1.15.95-.1 0-.2.05-.45-.2-.65-.35m-63.05 7.5V102q.1 0 .15.05h-.15m117.8 36.5q-.1 2.3-.1 8.75 0 .2.15 3.3.1 3.2 0 4.9v.2q-.05 1.7.1 4.15.15 2.95.15 3.9v.1q0 .1-.4 3.4-.85-.85-3.3-1-.45 0-3.45-.95-2.9-.8-3.15-.8-.4 0-.7.05-.3-.05-.6 0-1.45.4-3.45 2.7-3.55 4.05-4.55 8.15-3.45.15-5.05.9-.1-1.25-.3-2.55-.8-5.3-.8-5.75-.15-.85-.15-1.9 0-1-.35-2.35-.35-1.2-.95-2.65-1.6-3.55-2.3-5-.35-.75-.55-1.3-.45-.95-.6-1.3-.55-1.3-.7-2.3-.05-.25-.05-.4-.1-1.35-.1-1.45v-.6q.1-.3.1-.7v-.4q0-2.3.3-3.6.55-2 1.05-4.3.1-.55.4-3.7.25-3.2.25-4.45.15-4.9.15-7.3 0-2.3-.15-5.5-.2-3.3-.2-3.55 0-.75.4-5.3.3-4.6.3-6.15 0-.5-2.9-1.65-3.3-1.3-3.55-1.55-.45-.3-1.05-.85 1 .15 1.45.15 2.3.15 4.75.85 2.6.6 3.55.7 7.45.55 15.95.4 1.55 0 13.15-2.55.85-.25 2.75-.4-1 1.15-1.85 3.45-.85 2.45-1.85 6.6-.65 2.4-.9 5.8-.15 1.9-.25 5.65v9.45q-.5 3.85-.65 8.7z"
             id="path26" />
          <path
             fill="url(#PlaOut044__Gradient_3)"
             d="M124.2 135.15q0 .15.05.25.1-.35 0-.5 0 .1-.05.25M235.3 93.9q.15.4.3.65.2.15.65.35.1-.05.2-.05-.7-.3-1.15-.95m-1.85-8.45q.15-.15.2-.15l-.05-.05q-.1.05-.15.2z"
             id="path28" />
          <path
             fill="url(#PlaOut044__Gradient_1)"
             d="M21.45 168.4l-.1-.1v.1h.1z"
             id="path30" />
          <path
             d="M172.55 102v.05h.15q-.05-.05-.15-.05z"
             id="path32" />
        </g>
        <path
           fill="#333"
           d="M137.4 111.35q-.1-.25-.1-.7-1.05-3.05-1.05-3.7 0-.75.2-1.35.1-.25.15-.45 0-.1-.05-.2-.15-.5-.25-.8-.15-.65-.55-.95-.5-.4-2.6-1.35-2.3-1.1-3.05-1.1h-1.15q-1.15 0-2.55.15-.3.4-.7.75 0 .1-2.5 2.1-1.1.9-1.85 1.9-.85.8-1.55 2.7-.85 2.4-.85 3.45 0 .55.25 1.45.3 1.1.3 1.5 0 .95-1.45 1.35-1.85.4-2.7 1.45-.4.4-1.15 2.45-.3.5-.45.85-.3.5-.45.85-.2.4-.2.8 0 .6.35 1.2.3.6.3 1.55 0 1-.85 3.45-.55 1.55-.8 2.85 0 .05.1.2 0 .15-.15.5v.6q0 1.3 1.45 3.15.75.9 1.45 1.85 0 1.2-3.05 3.8l-2.1 2.1q-.05.05-.05.15.15.3.45.85.75 1.45.75 2.45 0 .3-.2 1.25 0 .65-.95 2.45-.9 1.85-.9 2.5 0 .05.05.25.3.8 1.8 3.9.3.5.45 1 .45-.2.9-.35 1-.4 2.4-.95 1.15-.35 2.1-.9 1.35-.7 1.9-1.55.35-.55.4-1.15.05-.7.35-1.05-.35-.5-.7-1.15-1.5-2.7-1.65-2.85-.25-.5-.8-2.55-.45-2-.45-2.4 0-2 2.4-6.2 2.75-4.55 3.5-6 1.3-2.35 1.8-3.05.85-1 1.6.05.55.8.75 1.7.1.25.3 2.7.25 2.6.25 3.35v.25q.15 1.3.15 1.7 0 1.2-.85 3-.7 2.2-2.2 5.8-1.95 4.4-2.7 5.85v.3q0 .4-.1.7.4.6.85 1.4 0 .1.1.2.2.5 1.05 1.5 1.3 1.45 2.3 1.45.85 0 .95-1.3.05-1.35.85-1.35.7 0 .75.7.1.4 0 .7 0 1.3.3 4.6.25.15.25.55 0 .25-.3 1.1-.1.2-.15.4-.2.45-.35.65-.15.1-.3.45-.05.4-.3.7-.55.9-.55 1.55 0 .6.55 1.15.1.05.15.2 2.3.85 2.3 3.3 0 .55-.45 1.5-1.15 1.3-3.75 1.45-.1.05-.15.15-.8.7-1 1.05.15 1.7 1.2 2.55.15 0 .35.1.6.3 1.45.75 4.3 2.4 4.3 5 0 .85-.15 1.05-.35.7-1.7.85-2.95.7-4.4.95h.3q2.5 0 4.55-.4 2-.3 3.7-.3l2.75.2q2 0 2.7-1.2.75-1.3.45-4.6-.1-1.15.25-3.15.3-2.3.3-3.25 0-.3-.4-2.15-.4-1.7-.55-2.15-.2-.85-1.2-2.2-1.25-1.85-1.45-2.15-.45-.85-.65-2.05-.25-1.05-.35-2.4-.1-1.8-.1-2.1.25-1.25.9-3.5.15-.7.35-1.4 1.45-5.3 1.45-10 .15-1 .2-1.45.1-.6-.15-1.05v-.55q-.15-2.95-.05-3.7.15-2 .15-3.35-.1-1.65-.1-3 0-5.25-.15-7.1v-4.35q-.15-3.55-.15-3.85l-.05-4.6M12.75 169.6q-.35.1-.65.35-3.3 1.75-3.3 4.45 0 1.05.8 2.45.1.15.2.2l.3.5q.15.2.3.35.55 0 1.45.15 1.3.4 2.15.55.1.1.25.1.05 0 .2.05l.55-.05h.1q.9 0 1.3-.1h2.15v-.05-.25q0-.55-.1-.75-.05-.8-.15-1.65-.15-1.6-.15-3.2v-.3q0-.65.05-1.3.1-.7.2-1.5-.7-.2-1.35-.45v.1q-.15-.15-.35-.15 0-.1-.1-.1-.2-.05-.45-.05h-.55q-1.15-.15-2.75.6-.1 0-.1.05m25.9-61.25q-.7-.3-1.9-.3-1.8 0-2.35 3.35-.3 1.7-.2 3.4 0 1.75-.45 2.85-.4.85-1.95 3.35-.5 1-.6 2.85 0 1.1.1 3.25 0 .85.15 1.9.05 1 .05 2.3 0 .7.15 1.95.25 1.2.25 1.95 0 .7-.15 4.8-.4 2.3-.7 3.5.05.25.05.7 0 .1-1.2 1.6-1.25 1.55-1.25 3.1 0 .05.8 2 .75 2 .75 4 0 .15-.05.4-.25 1.65-2.4 7.4-.05.3-.15 1.05-.15.85-.3 2.35.6.35.85 2.35l-.4 2.15q0 .1.4 3.3 0 .15.3 2.7.35 2.45.35 2.95v.3q-.05 1.15-.3 1.35-.3.15-.85.3.15.1.5.1.8 0 4.45-2.25h.05v-.65q.25-.55.3-1.25 0-.55-.05-1.25l-.3-2.45q0-1.5 1.3-7.6.3-1.3.5-2.4.8-4.05.8-5.8v-.25q-.1-.6-.45-2.15-.65-1.95-.65-2.15.1-2.15.15-3.5-.15-.25-.15-.55.1-.25.15-.4 0-.35.15-.6v-.25q-.15-1.6-.15-2.15 0-4.35 1.4-13.7.15-.95.7-3.4.2-1 .4-1.7-.2-1.85-.2-1.9 0-1.7.5-5.25.3-3.2.6-4.1 1.25-4.3 1.3-4.8.15-.45.45-1.2.4-.8.5-1.15l.05-.1q-.7 0-1.3-.3m42.15-7.45q-.75.3-1.55 1.4-.85 1.3-1.7 3.75-1.5 4.45-1.5 7.35 0 1.55 1 8.1.05.65.05 2t.1 1.95q0 .65.45 2.1.3 1.4.3 2.05 0 .1.25 2.65 0 .45.05.85.4.8.4 1.05 0 1-1.15 2.75-.3.55-.55 1-.3 1.1-.55 1.85.1.25.5 1.15.35 1.15.35 1.55 0 .05-.05.75 1.15.3 1.15 1 0 .4-.45 1.55-.5 1.05-.5 2.2l.15 2.15q-.35.1-.45.65-.15.45-.15 1.45v4.9q0 .25.25 3.1l.15 3.15v.4q-.05.8-.25 2.35-.15 2-.15 2.9 0 3 .25 9.75 0 1.75-1.45 3.6-.4.5-.8.95-.05.15-.15.3l-.3.3q.3.1.7.1 1.7.2 2.3.2 4.9 0 7.85-1.05Q87 182.5 91.1 181q.75-.25 2.15-1.1.9-2.15.9-6.35v-.1q-.2-3.3-.2-3.75v-.45q-.2-.3-.25-.7-.45-1.3-.45-1.85-.2-1.8-.25-2.95-.15-1.4-.15-1.75 0-.5.3-2.6.25-1.75.25-2.5l-.15-2.55q0-.2-.05-.3 0-.1-.05-.15-.3-.7-.3-2.45l.55-4.5q-.1-1.35.05-2.3 0-.5.1-.85v-.95q.6-.65 1.55-3 1.75-4.65 2.9-6.7 1.75-3.05 2.3-5.3.3-1.15.45-2.55.45.5 1.1 1 2.15 1.8 4.3 1.8.75 0 .9-.8 0-.85-3.3-4.3-3.3-3.35-3.35-3.45-.65-.75-1-1.9-.4-1-.7-1.7-.15-.25-.25-.45-.3-.45-.6-.6-.15-.15-.4 0-.45-.1-1.2-.1h-1.3q.055-.002.2-.05l-6.3.15q-.6-2.4-.9-3.65-.55-2.15-1.15-3.5-1.65-3.85-1.7-4.1-1.7-2.8-3.75-2.8-.3 0-.55.05m-41.45-5.3q-1 .1-2.95-1-1.65-1-1.75-1 .45.3.75.8 0 .05-1 .65-.65.4-1.8 1.1-2.95 1.6-2.95 3.7.95 3.6.95 3.65 0 .65-7.15 4.7-.75.4-1.6.9.35.25 1 .5.2.05.35.15l.1.7q.05 1.05.05 1.8.25-.45.7-.85 0-.15.25-.35.15-.25.45-.55.3-.25.7-.45.4-.25.9-.55 2.6-1.15 3.25-1.45 1.5-1.15 2.9-2 2-1.3 2.55-.85.85 0 2.6.7 1.9.6 2.75 1.15.1-.25.25-.6.05-.3.2-.65.4-.9.55-1.35.15-.45.25-.8.15-.35.45-.6.1-1.75.1-2.75 0-1.7-.25-2.55-.55-2.15-2.6-2.15m44.45 1q1-1.7 1-2.55 0-2.2-4.55-4.65-4-2.15-7.15-2.3.35.15.35.6 0 .55-1.15 1-1.7.6-2.65 1.05-1.35.7-2.3 1.7Q65.9 93 65.9 95.3q0 1.4.9 2.55.85 1.15.85 1.3 0 .3-.05.6-.15.3-.7.45H65q-1.65 0-9.4.8-1.35.15-2.5.3-2.25.2-4 .3-1.55.15-2.75.25-1.1.65-1.7.95h1.7v.1q0 .25 1.45-.25.15 0 .35-.05.95 0 .7 1.15 0 .7-2.45 9.05-2.45 8.35-2.45 9.2 0 2.15.55 6.3.6 4.1.6 4.25l.6 3.65q.65 3.7.65 4.15v.8q.15.3.2.75 0 .75.15 2.4 0 .5.3 3.3 0 1.15-.15 4.45v1.4q-.05 2.5-.05 4.65 0 .55-.45 3.15-.25 1.55-.45 2.5t-.35 1.35q-.85 2.35-.85 7 0 1.75.1 2.5.05.65.35 3.1.1.5.65 2.8.2 1 .3 1.8.05.55.05.9 0 .45-.3.65.3 0 .65.05 1.45-.3 3.45-.75 3.2-.85 4.3-1.25 2.2-.85 4.05-1.15.1 0 .15-.05.3-.35.45-1.55.1-.6.1-1.45 0-.95-.55-2.95-.55-2.05-.7-2.8-.2-1.25-.7-2.8-.05-.75-.5-1.3.05-.9.2-2.15 0-.55-.15-1.95-.1-.95-.3-2.25-.4-3.3-.4-3.85l.25-1.55q.45-2.7.65-3.95.1-.75.1-.95.15-4.7.15-5 .1-3.6.1-6.2.25-.85.4-1.4.35-1.85 2.15-4.35 1.6-2.15 1.6-2.35 0-.5-1.15-.9T59 129.95q0-.85.15-2.15.15-1.4.15-2.15-.3-1.5-.3-2 .3-1.15.3-2 0-.85-.1-1.65-.15-1.3-.5-2.5-.1-.1-.1-.15-.2-.55-.45-1.1-1.25-2.45-1.25-2.85 0-.05.5-.9.45-.85.45-1.15 0-.75-1.3-3.9-1.4-3.1-1.4-3.55.1-.7 0-1.1.3-.05.6-.15.4-.05 1.1-.2h3.05q.25 0 .55-.15.3 0 .7-.1.45-.05 1.15-.05.15 0 .55.05.3.1.65.25 1 0 1.95-.1h.7q2.45-.05 4-.45h1.15q1.2.1 2.5 0h3q2.1-.15 2.6-.9l.15-.15q.35-.25 1.15-.8 1.1-.7 1.4-1.05.75-.85 1.7-2.4m198.25 75.35l-4.1-5.65q0-.6.65-1.15.45-.45 1.05-.6-.3-.05-.6 0-1.45.4-3.45 2.7-3.55 4.05-4.55 8.15.75-.1 1.7-.1h.05q1.35 0 2.5.15 1.75.15 3.2.45 2.1.65 2.55 1.55.05.25.05.45v.8q-.05.35-.05.9-.1.15-.1.4v.2q-.05.5-.15 1.15 0 .35-.05.55 0 .15-.1.3v.25q-.15.6-.3 1.05v.1h.05q1.25.4 3.65.4 3.2 0 5.3-.15.05-.5.15-.95 0-.3.05-.55v-9.5q0-.15.1-.4.05-.75.3-1.9.05-.3.15-.95-.4.5-.75 1.15-1.65 2.25-1.7 2.5-.1.2-.45 2-.1.2-.15.35-.55 1.45-1.5 1.85-.2.1-.35.15h-.3q-.7 0-1.2-.3-.65-.55-.95-1.7 0-.15-.1-.35 0-.2-.1-.35-.5-2.9-.5-2.95m-87.1-91.4q.15.15.25.3-.45.15-1.3.25-1.45.15-4.15.15-.6 0-1.15.1-3.3.05-4.45.65-.3.15-.45.3.3-.05.6-.05.45 0 1.2-.1h.35q1.05 0 2.8-.05h1.7q2-.1 3.85-.15 2.15-.1 4.05-.1h.85q1.45 0 7.75.55 6.25.45 6.8.45 2.5 0 5.9-.3 2.5-.25 4.35-.25-2.15-1.15-15.9-4.05-2.8-.45-6.3-.9-4.45-.55-6.9-.95-1.65-.3-3.2-.5l3.35 4.65M352.8 98.5h-8.05q-6.2 1.1-8.5 1.35-.45.05-1.25.05-.55 0-.85.1h-2.45l-.2.05q-.25 0-3.7-.35-1.15-.1-1.55-.2-.15 0-.3-.05h-.05q-1.55-.1-2.55-.75-.1 0-.15-.1-.15-.1-.4-.15-2.9-.6-4.35-.85-1.5-.25-2.4-.05.3-1.15.3-4 0-2.25-.05-3l-.2-1.45q-.05-.95-.45-1.5-.35-.6-.7-1.45-.05-.05-.05-.2-.4-.95-.55-1.3-.15-.2-.2-.35-.5-.15-.85-.2-.55-.25-.95-.3.25.3.4.65.25.5.4 1.1.05.1.05.15.15.45.25 1 .3.6.45 1v.1q.05.2.15.5.1.15.15.4.25.45.4 2.4.05.3.05.6.25 1.55.25 1.9 0 .65-.15 1.15 0 .45-.15.85-.1.15-.15.3-.15.8-.25 1.15h-.55l-1.65.25h-.1v-.15L310 97q-6.3-.4-7.4-.4-6.05 0-10.75.7-4.6.7-5 .7l-3.05.35q-.4 0-2.45.15-2.1.1-2.3.1l-4-.25q-2 0-4.2.25-2.35.1-2.95.1-7.8 0-14.75-1.85-6.9-1.95-15.9-1.95-.45 0-.8-.05-.1 0-.2.05-.45-.2-.65-.35-.15-.25-.3-.65-.4-.45-.7-1.15-.7-1.45-.7-2.45-.3-3.05-.3-3.3 0-.9.15-1.55v-.15h-.1q-.05 0-.2.15-.3.25-.8.65-.05.2-.05.5 0 .1.45 5.5.3 1.6.85 2.75-1.15.2-2.45.35-3.3.55-7.9.55-1.7-.05-2.95-.15-3.9.6-6.3.6l-3.5.35q-.95 0-2.1.05-.9.1-2.05.15-.25 0-1.95.3-.2.1-.5.15-4.15 1.25-5.85 1.25l-2.85.25H193.95q-1.45.05-2.3.05-2 0-3.5-.05-1.3 0-2.3-.1-3.7-.7-3.95-.7-.2 0-.45-.05h-.85q-2.45 0-4.15.15-1.85.2-4.3.7-4.45.9-4.5.9h-.15q.05.1.05.15v.1q-.4-.1-.75-.4-.3-.1-.45-.3-.1-.1-.1-.15-.6-.8-1-2.15-.15-.25-.25-.65-.15-1.15-.3-1.8-.2-1.8-.2-1.85v-2q.05-.6.9-2.55.55-1.15 1.45-2.05.15-.5.55-1 .7-.95 1.55-1.4.2-.4 1.6-.6 1-.15 2.15-.15 1.85 0 2.85.6l1.05.7q.5-.3 1.4-.95h.1l-.5-.3q-1.9-1.35-2.6-2.3-.55-.7-1.4-1.6-.3-.3-.5-.6-.45-.5-.85-.8-.4.95-3.85 2.85-4.15 2.15-4.7 4-.35 1.05-1.3 3.75.15 1.45-.3 1.95-.75.65-5.6.65-2.05 0-5.85.65-3.35.5-4.45.5-.2.25-.5.25-.35 0-.55-.55v-.05q-.1-.25-.15-.55v.7q0 .45.15.9.2.55.55.8.2.05.45.05l3.65-.3 5.65.25q.35.05 1.15.15h.2q1.6 0 3.55.7-.85.3-1.85.6-4.05 1.3-4.3 1.35-1.1.55-1.7 2.5-.3 1.05-.55 2.6-1.2 4.05-1.35 5.05-.4 2.45-.4 5l.25 3.9v1.3q0 .25-.1.5.1.5.1 1.35 0 2.15-.1 2.95-.15.9-.15 2.8 0 2-.15 3l-.15 6.55q0 .2.1 2.45 0 .75.2 2.4 0 .65-.05.9-.1.3-.25.45v.1q0 1.15-.55 4.6-.7 3.7-.7 3.9-.1 1.85-.1 5.1-.05 1.5-.05 3.35l-.45 2.85q-.45 2.9-.45 3.9v6.7q0 .05-.15 4.85-.15 2.05-.45 3.2-.35 1.45-.85 1.45h-.25q0 .1.1.15.45.15 1.3.4h.45q.1-.85.25-1.75.15-1 .35-2.1.95-5 .95-8.5 0-.25-.15-.7-.25-.55-.25-.75 0-.55.35-2.9.35-2.7 1.2-7.85.15-1 .35-2.1 1.95-11.8 2.1-13.8 1.45-20.3 1.45-26.65 0-3.9 1.15-7.05 2.1-6 7.6-6 .6 0 2.4-.15 1.35-.1 2.2-.15.15.15.65.15H168.8q.9-.25 2.85 0 3.65.35 4.95 1.45 1 1.3 2.25 4.55.2.6.6 2.3.4 1.35.7 2.2.15.25.25.3.15.25.3.4.45.7 1.5 1.55 2 .75 7.8.75 4.1 0 4.45 2.05.2 1.15-.55 3-.1 1.7 0 5 0 .3-.1 5 0 .25-.05.4.6 1.75.6 2.15 0 1.2-.3 1.65-.6.85-2.75.85-1.8 1.55-2.65 2.95-.45 2-.8 3-.65 1.65-3.55 2.5-4.7 2.8-5.6 7-.1.45-.45 3.45-.25 2.1-.85 3.4l1 .05q.45-.2.9-.45 2.25-1 2.7-1 1.05 0 1.55.3.35.15.8.25l1.4-.1q.7-.15 1.55-.45 1.45-.55 2.35-.55 1.55 0 2.7.8.4.25.65.45.3.3.3.55 0 1.15-2 1.9l-3.15 1.05q-.65.35-1.45.7-3.35 1.4-3.35 2.95v.9q.25 0 1.25-.05.65 0 1.2.4.65.55 1.1 1.75.4 1.05.45 2.2 0 .85-.75 1.45-.45.4-2.05 1.55-.7.55-.8 1.4v1.6q.15 0 1.15-.3.8-.25 1.6-.25 1.25 0 1.85.85.3.45.3.9 0 1.25-1.5 7.25-.15.6-.45 4-.1.35-.25.75-.3 1.05-.75 1.6.15.1.15.25 0 1-1.5 1.6-1.3.55-3.3.6h.4q6.6 0 11.35-4.05 4.1-3.45 5.1-8.9.35-1.85.35-3.85l-.35-10.5q.35-3.65.35-4.1l.15-9.5q0-.95-.2-3.7-.3-2.85-.3-5.35 2.2-24.8 2.2-28.2-.35-4.3-.7-5.6-.6-2.15-1-2.75-.45-.95-1.65-1.15-.1 0-4.1-.4-.35-.1-.75-.1-1.15-.05-3-.3.4-.05.6-.05.7-.15 1-.15.25.15.7.15.4 0 1.7-.15 2.55-.25 8.3-.85 3.5 0 6.8-.8.65-.15 1.25-.3 1.45-.35 3-.65-.1 1.05-.85 2.9-.55 1.05-1.85 3.9-2.6 6.15-2.6 13.2 0 1.4.15 2.1v8.05q.1.4.4 4 .2 3.45.2 4.2 0 .85-.3 2.55-.3 1.75-.3 2.55 0 .6 1.15 12.8l.1 1.2q.35 3.9.6 6.6.45 5 .45 5.85 0 .55-.4 2.4 0 .25.1.85.05.85.3 2.45 0 .85-1.9 1.55.85-.15 7.2-.3.1-.65.1-1.15v-7.55q-.25-2-.25-2.9v-.4q-.1-.35-.15-.8-.05-.3-.1-.65 0-3.1-.05-3.9-.15-1.5-.2-3.05-.1-1.75-.1-3.55.2-6 .2-9.3 0-.55.15-1-.15-.4-.15-.65 0-.75.15-1.65.1-.95.1-1.95-.15-2.6-.15-5.3l-.25-3.9q0-.7-.15-2.7-.05-1.6 0-2.65.1-1.1-.05-3.25-.1-1.9-.1-2.05 0-.55.1-.8-.1-.3-.1-.7.15-1.6.15-2.75 0-1.2 2.15-4l-.05-.35.2-2.1-.2-3.5q0-2 1-2.65.2-.15 4.9-2.15.45 0 1 .1H224.2q.4.05 1.1.05 1.3 0 1.55-.05.05 0 .2-.15.1-.15.25-.15h.9q.65.35 1.3.35h.1q2.05 0 4.45-1.2 1.05-.6 1.6-1.15.15.05.3.15.4.45 1.3.55.25.05.8.15.45.15 1.2.45 1.3.45 3.1 1.05 1.2.65 2.45 1.5 0 .05 2 1.6 3.7 3.05 4.9 7 .55 1.9 1.6 6.65 1.1 5.4 1.1 7.2 0 .1-.1.35-.05.15-.05.3 0 .7.45 7.9 0 2.3-1.25 6.9-.65 2.7-.95 3.85-.35.55-.4 1.7-.1.75 0 2.3l.2 6.5q0 .8-.15 2.55-.1.7-.1 1.25-.1.9-.1 1.35 0 .95-.15 2.75-.25 1.85-.25 2.65v.1q.05.25.15 1.1.25 1.1.7 1.1h.1q0 .05.05.05.85.95.6 1.8l.5 9.2-.65 5.75q0 .3.25.75 0 .55-.4 2.1-.2 1-.3 1.6-.05.45-.05.7v.7q.15.6.65.7h.15q.5 0 5.15-.7 3-.4 7.25-.55 1 0 .9-3.05-.05-.55-.05-1v-1.15q-.1-.5-.1-.95v-.3q0-.85-.1-1.75 0-.25-.05-.5 0-.65-.1-1.35-.05-.85-.2-1.7-.1-1.25-.3-2.55-.8-5.3-.8-5.75-.15-.85-.15-1.9 0-1-.35-2.35-.35-1.2-.95-2.65-1.6-3.55-2.3-5-.35-.75-.55-1.3-.45-.95-.6-1.3-.55-1.3-.7-2.3-.05-.25-.05-.4-.1-1.35-.1-1.45v-.6q.1-.3.1-.7v-.4q0-2.3.3-3.6.55-2 1.05-4.3.1-.55.4-3.7.25-3.2.25-4.45.15-4.9.15-7.3 0-2.3-.15-5.5-.2-3.3-.2-3.55 0-.75.4-5.3.3-4.6.3-6.15 0-.5-2.9-1.65-3.3-1.3-3.55-1.55-.45-.3-1.05-.85 1 .15 1.45.15 2.3.15 4.75.85 2.6.6 3.55.7 7.45.55 15.95.4 1.55 0 13.15-2.55.85-.25 2.75-.4 1.45-.15 3.6-.15 2.25-.05 5.15 0 1.55 0 2.75-.05h.55q.4.05.8.15 1.15.15 2.5.15h1.95q.75-.1 1.35-.25.95-.15 1.25-.55.05-.15.2-.35.7.2 1.65.6 3.65 1.7 5.95 4.05.95 1.5 1.95 4.15 1.15 3 1.15 4.45 0 .5-.25 1.25-.3.75-.3.85 0 4.05.45 9.2.15 2.25.85 9.05.4 3.25 1.55 9.15 1.15 6.3 1.55 9.15.35 3.2 1.9 9.1.25.95.5 1.8.4 1.7.75 3.1.65 2.7.9 4.2.1.65 1 5.8.3 2 .75 4.6.65 3.35.95 5.25.05.6.2 1.15.15 1.05.15 1.3 0 1.25-.15 1.6-.05.25-.2.5 4.15-.4 5.2-4.15v-.15q.1-.25.15-1.1 0-.9.1-2.7v-.35-1.5q0-.9-.1-1.8v-.8q.15-.05.4-.2 4.45-2.8 8.5-3.25.8-.05 1.5-.05h.15l2.8-.65q1.15 0 2 .3.4.2.7.4.3.25.6.55.35.3.5.55.45.6.45 1.15 0 2.15-.1 2.6-.15.4-.15 2.55v.3q0 3.3-1 4.95-.15.25-.35.55-.1.1-.15.25-.1.2-.25.45.25.1.55.3.9.55 2 1.55.5.25 1.15.55 1.15-.7 1.65-2.85v-.1q.4-1.45.4-3.35 0-1.25 1.3-5.7t1.3-9.3q0-1.8.05-3.4.05-2.45.25-4.55.2-1.7.35-3.25.25-2.95.5-5.5v-7.95q.1-.45.4-1.9.4-1.6.4-2.15 0-.25-.25-.85-.15-.7-.15-.9 0-.5.25-1.25.3-.9.35-1.6.15-1 .15-2.85 0-1.6.1-4.05.25-2.85.25-4.25.05-1.35.5-4.3.5-2.7.5-4.05-.1-3.7.05-4.15.85-2.3 5.2-4.05 1.7-.65 7.95-3 .3-.15.6-.35.523-.237 1-.5v-2.8h-.95q-.6-.05-1.15-.05-.5-.1-1-.15-2.15 0-8.8-.1h-1.15q-3.25.65-3.7.65-2.35 0-3.35-.35-2.7-.05-6.15-.35-4.15-.45-5.95-.65m-2.75 2.1v-.1q3.85.1 7.05.5 2.8.35 8.85.45-3.85 1.85-3.85 6.75 0 2.4.4 3.75.4 1.45.4 3.1 0 .75-1.7 6.3-1.7 5.5-1.7 10.4 0 .25.15.95.25.7.25 1 0 .45-.4 4.2l.55 7.3q0 2.15.2 7.7 0 .7-.45 4.45-.9-.7-2.15-.95-.6-2.15-.55-4.8 0-.55-.3-4.3-.35-3.95-.35-4.95l.3-9.6q.2-1.5.2-2.35-.05-1.55-.8-2.45-.65-.55-2.65-.85-2.15-.15-2.85-.3-1.2-.25-2.15-.15 0-5.55.35-10.7.35-6.2.35-6.6l-.35-5.9q0-1.8-.4-2.7l1.6-.15m-12.5 1.15q-.1.25-.1.6 0 .65.25 2.25.3 1.6.3 1.9l-.3 3.7q-.25 4-.25 5.35 0 1.4-.2 6.1 0 2.45-.1 3.9-.05 1.45-.05 3 0 4.9-.65 11.3-.15-.5-.3-.85-2.35-7.55-2.35-13 .35-3.9.35-4.35 0-3-1.15-7.45-1.75-6.55-2-7.6-.2-2.95-.6-4.4-.05-.35-.25-.75 3.5.45 5.4.45 1-.05 2-.15m.05 41.85q.85.15 2.15.4.7.15 1.65.3 3.45 0 4.3 2.85.15.6.15 3.3 0 2.15-1.15 6.8-.3 1.35-.6 2.4-.45 1.3-.85 2.2 2.6.85 3.3 1 .45.1.9.25.4.05.75.15.55.1 1.1.25 1.05-.5 1.05-2.4 0-.75-.15-3.4v-.05q0-.6-.05-1.25-.1-1.6-.25-3.75-.45-7.2-.45-7.5 0-3.7-.45-8.45-.25-1.95-.3-3.6-.1-.85-.2-1.65v-1.3q-.05-.4-.05-.75.9.05 2 .45.6.15 1.15.4l.05.05q1.15.45 2 .95.35.2.65.45.75.45 1.05 1.05.85 4.85.85 6.45 0 6.6-1.85 14.15-.05.4-.15.7-.15.3-.15.6-.25.6-.4 1.25-.3 1.35-.5 2.45-.3 1.05-.45 1.75-.25 1-.25 1.1-.25.9-.45 1.75-.15.3-.25.45-.05.2-.1.35-.05.1-.05.2h.4q.9.3 1.2 1 .15.2.15.6v.15q0 .75-1.5 2.1-.35.2-.65.45l-.15.15q-1.35 1-3.6 2.3-3.6 2-5.05 2.85-.1-.7-.15-1.3-.25-1.3-.5-2.65-.45-2.3-1.2-4.65v-.15q-.2-.55-.35-1.05-.05-.1-.05-.2-.05-.15-.05-.2-.1-.35-.15-.65-.2-.55-.25-1.05-.15-.45-.3-.95-.1-.35-.15-.65-.95-3.75-.95-6.15 0-.25.25-.65.15-.3.15-.5 0-.15-.1-.7-.05-.25-.15-.55-.3-1-.3-1.45.4-1.55.4-2 0-.25-.1-.45 0-.45-.15-1.15-.3-1.15-.7-2.85m-8.95-60.5q1.35 0 2.75-.1 6.2-.15 10.15-.7h4.05q-.15-.3-.45-.65-1-1.4-1.3-1.85-5.15-7.3-7.9-7.3-3.1 0-5.45 5.2-1.7 3.55-1.85 5.4z"
           id="PlaOut044__Layer5_0_FILL" />
      </defs>
      <use
         xlink:href="#PlaOut044__Layer7_0_FILL"
         id="use38" />
      <use
         xlink:href="#PlaOut044__Layer6_0_FILL"
         id="use40" />
      <use
         xlink:href="#PlaOut044__Layer5_0_FILL"
         id="use42" />
    </g>
  </g>
  <g
     transform=""
     id="g73">
    <g
       transform=""
       id="g71">
      <defs
         id="defs59">
        <path
           fill="#170700"
           d="M18.9 16.8q-.5 8.7-6.55 13.2Q9.6 32.05.45 36.1q-.2.65-.45 1.3l23.65-4.9q-.3-3.65-1.15-6.6-.95-3.65-3.4-9.1h-.2m33.8 11.05q-5.75-12.7-4.15-25.35L49.4 0q-2.15 3.3-3.3 10.1-1.2 6.75 1.2 18.25 9.4 5.1 5.4 8.3 8.2-3.55 0-8.8z"
           id="PetPet015__Symbol_63_0_Layer0_0_FILL" />
        <path
           fill="#000000"
           d="M22.25 70.6q.55.75 1.1 1.65 3.35 5.8 3.35 14 0 5.75-1.65 10.35-.2.45-.35.85l2-.45q.25-.65.45-1.3 1.35-4.3 1.35-9.5 0-9.1-4.2-15.5-4.15-6.45-10.05-6.4-5.9-.05-10.1 6.4Q0 77.1 0 86.2q0 9.05 4.15 15.45.45.75 1 1.4 1.55.65 3.25 1.2.95.25 2.25.15-1.9-1.45-3.5-4.2-3.4-5.8-3.35-13.95-.05-8.2 3.35-14 3.35-5.8 8.1-5.75 4-.05 7 4.1M81.4 44.2l1.15-3.35q-8 5.1-18.05 5.15-14.05 0-23.95-9.95Q30.6 26.1 30.6 12.1q0-5.75 1.65-10.8l.2-.6L30.3 0q-.1.25-.15.5-1.75 5.3-1.7 11.35-.05 15 10.6 25.65 10.65 10.65 25.7 10.65 9.1 0 16.65-3.95z"
           id="PetPet015__Symbol_52_0_Layer0_0_FILL" />
        <path
           fill="#A37831"
           d="M8.1 111.25q-1.1-2.05-2.6-2-1.55-.05-2.65 2-1.1 2.05-1.05 5-.05 2.9 1.05 4.95 1.1 2.05 2.65 2.05 1.4 0 2.5-1.8.05-.1.1-.25 1.1-2.05 1.1-4.95 0-2.95-1.1-5m-5.35-8.95q-.5-1.35-1.15-1.35-.65 0-1.1 1.35-.5 1.35-.5 3.25t.5 3.25q.45 1.35 1.1 1.35.65 0 1.15-1.35.45-1.35.5-3.25-.05-1.9-.5-3.25m4.65 0q-.05-1.95-.5-3.3-.5-1.35-1.15-1.3-.65-.05-1.1 1.3-.5 1.35-.5 3.3 0 1.9.5 3.2.45 1.35 1.1 1.35.65 0 1.15-1.35.45-1.3.5-3.2m4.3 3.25q0-1.9-.45-3.25-.5-1.35-1.15-1.35-.7 0-1.15 1.35-.45 1.35-.45 3.25t.45 3.25q.45 1.35 1.15 1.35.65 0 1.15-1.35.45-1.35.45-3.25m22.2-99.5q-.2-.35-.35-.7-.75-1.3-1.85-2.4Q28.75 0 24.65 0 20.5 0 17.5 2.95q-2.95 2.95-2.9 7.15-.05 4.1 2.9 7.05 1.4 1.4 3.05 2.15.2.1.45.15 2.35-4.3 6.1-8.05 3.05-3.1 6.55-5.2.1-.05.25-.15m15.3 40.4q.65.15 1.75.35.35.05 1.6.35h-.35q-1.1 0-1.95-.25v.15q6.5.45 7.3 6.2-.1 4.8 4.65 5 3.8.2 3.8-9.1-.4-2.85-.95-5.25-3-12.2-12-13.55-9.85-.5-15.45 9.35-1.3 2.3-2.4 5.3-2.1 9.25 1.75 10.15 4.15.7 6.1-4.65 1.95-4.4 7.1-3.45l.05-.15q-.6-.2-1-.45m42.05-33.5q-2.1-3.6-6.1-4.75-4.05-1.05-7.65 1.05-1.5.85-2.6 2.1.05 0 .1.05 7.2 7.2 9.2 16.5 1.7-.25 3.35-1.2 1.9-1.1 3.1-2.75.2-.3.45-.65.75-1.25 1.15-2.75 1.05-4.05-1-7.6z"
           id="PetPet015__Symbol_37_0_Layer0_0_FILL" />
        <path
           fill="#FFF"
           d="M367.9 223.8q-1-2.35-2.95-4.15-1.65-1.45-3.45-2.2-2.25-.9-4.8-.75-.6 0-1.2.1-2.7.5-4.75 2.3-.8.65-1.5 1.55-1 1.2-1.55 2.6-.15-1.25-.55-2.4-1.15-3.75-4.25-5.7-.15-.1-.2-.15-.55-.3-1.15-.55-4.2-1.95-8.7-.2-1.05.4-1.95 1-1.3.75-2.3 1.8-.85.8-1.45 1.85-.4.45-.65 1.05-.2.25-.3.55-2.25 4.4-.85 8.9.75 2.35 2.3 4.05l.45.45q1.2 1.15 2.9 1.9.4.2.85.4 5.6-9.85 15.45-9.35 9 1.35 12 13.55 1.6-.15 3.05-.7.25-.15.55-.3 2-1.05 3.6-2.95 2.6-3.35 2.5-7.75-.05-.45-.05-.85-.05-.45-.1-.8-.3-1.75-.95-3.25z"
           id="PetPet015__Layer3_0_FILL" />
        <path
           d="M341.35 237.2q-.2.1-.4.15-.1.05-.25.15-.45.5-.6 1.35-.2.5-.15 1.15v.4q-.05.3.05.5.1.95.55 1.25.1.1.3.1.35 0 .5-.25.55-.35.25-1.9V239q.1-.05.3-.1.1.1.3.25.5.45.55 1.25 0 .05-.05 1.25-.05.95.5 1.1.5.4 1.25.65h.05q.85.25 1.95.25.35 0 .7-.05l.6-.2q.3-.05.5-.25h-.05q.3-.4.35-2-.2-1.35.6-1.4l.1-.05q.15.3.4.95.05.15-.15 1.35 0 1.05.7 1.15.1.05.3.1.3-.05.45-.25.15-.1.15-.3l-.05-.05q.3-.45.3-2.4-.05-1-.3-1.65-.15-.05-.2-.15-.1-.05-.15-.05-1.3-.85-2.55-1.3-.1-.05-.15-.05-.2-.1-.35-.1-2.3-.7-4.6-.2-.85.15-1.7.45z"
           id="PetPet015__Layer3_1_FILL" />
        <path
           d="M352.95 227.7q.7.7 1.65.7t1.6-.7q.7-.65.7-1.6 0-.95-.7-1.65-.65-.65-1.6-.65-.95 0-1.65.65-.65.7-.65 1.65t.65 1.6m-11.55-5.45q-.65-.65-1.6-.65-.95 0-1.65.65-.65.7-.65 1.65t.65 1.6q.7.7 1.65.7t1.6-.7q.7-.65.7-1.6 0-.95-.7-1.65z"
           id="PetPet015__Layer3_2_FILL" />
        <g
           id="PetPet015__Symbol_87_0_Layer0_0_FILL"
           fill="#2E0E00">
          <path
             d="M125.05 37.85q2.45-1.4 4.2-3.4 2.35-2.75 3.35-6.45 1.75-6.5-1.6-12.35-3.4-5.9-9.9-7.65t-12.35 1.65q-3.2 1.85-5.15 4.6Q95.4 8.75 85 8.8q-6.5-.05-12.1 2.1-1.15-3.4-3.9-6.15Q64.25 0 57.5 0q-6.8 0-11.55 4.75Q41.2 9.5 41.2 16.3q0 6.75 4.75 11.5 1.85 1.85 4.05 3-13.4 2.85-24.05 12.15Q10.5 54.3 3.75 71.7q-7.45 17.5 0 36.85 6.6 18.9 21.9 25.1 1.55.65 3.25 1.2.95.25 2.25.15 2.1 1.6 4.6 1.6.9 0 1.75-.2 3.6-.9 6.35-5.6.75-1.3 1.35-2.75l25.65-5.35v4.15q14.5 6.8 29.05 0 8.2-3.55 0-8.8-5.75-12.7-4.15-25.35l7.3-21.25q3.1-2 5.9-4.8 9.95-9.95 9.95-23.95 0-1.4-.1-2.7 3.2-.4 6.25-2.15M84.2 54.35h-.1l.05-.15h.05v.15z"
             id="path54" />
          <path
             d="M84.1 54.35h.1v-.15h-.05l-.05.15z"
             id="path56" />
        </g>
      </defs>
      <use
         xlink:href="#PetPet015__Symbol_87_0_Layer0_0_FILL"
         transform="translate(260.3 189.2)"
         id="PetPet015__col1n" />
      <use
         xlink:href="#PetPet015__Symbol_63_0_Layer0_0_FILL"
         transform="translate(307.5 279.4)"
         id="PetPet015__col1d" />
      <use
         xlink:href="#PetPet015__Symbol_52_0_Layer0_0_FILL"
         transform="translate(280.8 219.8)"
         id="PetPet015__col1s" />
      <use
         xlink:href="#PetPet015__Symbol_37_0_Layer0_0_FILL"
         transform="translate(294.25 196.5)"
         id="PetPet015__col2n" />
      <use
         xlink:href="#PetPet015__Layer3_0_FILL"
         id="use65" />
      <use
         xlink:href="#PetPet015__Layer3_1_FILL"
         id="use67" />
      <use
         xlink:href="#PetPet015__Layer3_2_FILL"
         id="use69" />
    </g>
  </g>
  <g
     transform=""
     id="g88">
    <g
       transform=""
       id="g86">
      <defs
         id="defs81">
        <path
           fill="#E9AF8B"
           d="M191.5 95.8q0-39.7-28.05-67.75-16.2-16.2-36.3-23.05-14.7-5-31.4-5t-31.4 5q-20.1 6.85-36.3 23.05Q0 56.1 0 95.8q0 32.25 18.5 56.85l.05.05q.6.75 1.2 1.55l1 1.2L28 163.5q0 .05.05.05l.7.7q3.5 3.4 7.15 6.4v.05l-.05-.05q-5.81 7.718-10.6 17.75-.078.183-.2.35l-.3.7q-.06.17-.15.35-.117.253-.25.5l-2.6 6.15q-5.345 13.608-8.3 30.1-.05.2-.05.4-.15 2.45.15 4.85Q15.7 245.9 31 249.35q.2.05.45.1l.05-.05q.15.05.25.05.2.6.4 1.15.4.95 1.1 1.75 0 .05.05.1v19.45q-3.9.7-7.8 2.5-.6.267-1.2.55-.94.67 0 .8h143.25q1 0 0-.6-.775-.405-1.55-.75-3.9-1.8-7.8-2.5v-19.45q.05-.05.05-.1.7-.8 1.1-1.75.2-.55.4-1.15.1 0 .25-.05l.05.05q.25-.05.45-.1 15.3-3.45 17.45-17.55.3-2.4.15-4.85 0-.2-.05-.4-3.7-20.65-11.15-36.75-4.8-10.45-11.15-18.95h-.05q0-.1-.1-.2 3.65-3 7.15-6.4l.7-.7q.05 0 .05-.05l7.25-8.05 1-1.2q.6-.8 1.2-1.55l.05-.05q18.5-24.6 18.5-56.85z"
           id="SkiSki001__Symbol_10_0_Layer0_0_FILL" />
        <path
           fill="#D79C78"
           d="M-36.05 227.75h-.2l-3.9.15-1.3.1q-8.5.6-13.15 1.65-4.7 1-5.35 1.3-.15.05-.25.1 8-1.3 16.1-1.8.3-.05.65-.05l2-.1q.2-.05.35-.05h.3q15.4-.65 30.05 2l4.15.7q1.15.2 2.3.45 1.75.35 3.45.75l.3.1q.1 0 .2.05.15 0 .3.05-.4-.15-.8-.25-1.7-.6-3.45-1.05-.55-.15-1.05-.3-.15-.05-.25-.05-10.8-3-22-3.6-.4-.05-.8-.05-.55-.05-1.15-.05l-6.5-.05m3.4-52.2q3.05 1.2 6.25 0 1.6-1.65.35-3.6-.1-.15-.15-.25-3.05-1-6.9 0-.5.7-.6 1.4-.2 1.1.8 2.25.1.1.25.2M3.2 203.7q-1.25-1.15-2.25 0-.05.25 0 .55.25 1.6.15 3.25l.1.05q.7.3 1.05-.35l.1-.2q.15-.45.3-.85.25-.8.4-1.55.05-.15.05-.3l.1-.6m55.4 25.95q-4.65-1.05-13.15-1.65l-1.3-.1-3.9-.15h-.2l-6.5.05q-.6 0-1.15.05-.4 0-.8.05-11.2.6-22 3.6-.1 0-.25.05-.5.15-1.05.3-1.75.45-3.45 1.05-.4.1-.8.25.15-.05.3-.05.1-.05.2-.05l.3-.1q1.7-.4 3.45-.75 1.15-.25 2.3-.45l4.15-.7q14.65-2.65 30.05-2h.3q.15 0 .35.05l2 .1q.35 0 .65.05 8.1.5 16.1 1.8-.1-.05-.25-.1-.65-.3-5.35-1.3M29.55 173.1q-.2 1.1.8 2.25.1.1.25.2 3.05 1.2 6.25 0 1.6-1.65.35-3.6-.1-.15-.15-.25-3.05-1-6.9 0-.5.7-.6 1.4z"
           id="SkiSki001__hll_0_Layer0_0_FILL" />
        <path
           fill="#BB7E59"
           d="M-54 165.45q-.05.05-.05.1l-4.3 21.85q-.45 2.1-.85 4.05l-.1.6q-.2.8-.35 1.6-1.5 7.35-2.3 12.15-.75 4.4.45-.6.4-2.5 1.45-6.25.1-.6.25-1.25.7-3.15 1.3-5.65.65-3.05 1.15-5.1h.05l-.05-.05v-.05q.2-.9.35-1.55.2-.95.4-1.55v-.05q0-.15.05-.25.15-.75.2-.85l3.25-16.8.05-.05q0-.25-.1-.4-.1-.2-.3-.2-.2-.05-.3 0-.05 0-.05.05-.05 0-.1.05t-.1.2m81.8 53.1q5.828-.808 11.3-1.95-.15 0-.3.05-.95.05-1.9.15-.75.05-1.5.15-13.1 1.2-26.3 1.45-4.5.1-9 .1-17-.1-34.1-1.8-.65-.1-1.2-.15 5.808 1.176 11.85 2 11.28 1.525 23.45 1.85h.55v.1l1.4 12.2v-.4l.05.4 1.4-12.2v-.1h.05q.15 0 .35.05l5.2-.2q9.762-.455 18.7-1.7m30.1-53.2l-.05-.05q-.15-.05-.35 0-.2 0-.3.2-.1.15-.05.4l3.25 16.85q.1.2 1.05 4.3v.05q.45 2 1.1 4.95.55 2.4 1.2 5.4l.1.4q.25 1.2.5 2.25 1 3.35 1.35 5.75 1.05 4.3.3.1-.9-5.3-2.65-13.9-.4-2.15-.9-4.5L58.1 165.7v-.1q-.1-.2-.2-.25m2.25-34.1q-1.35 1.05-2.8 2.1l-1.55 1.15q-20.35 14.1-45.8 16l-1.1.05q-3.35.2-6.8.2h-.2q-3.45 0-6.8-.2l-1.1-.05q-25.45-1.9-45.8-16l-1.55-1.15q-1.45-1.05-2.8-2.1l-1.15-.9q10.019 8.81 21.45 14.1 17.928 7.84 37.75 7.85h.2q19.823-.01 37.75-7.85 11.45-5.3 21.45-14.05l-1.15.85z"
           id="SkiSki001__hdd_0_Layer0_0_FILL" />
        <filter
           id="SkiSki001__Filter_1"
           x="-20%"
           y="-20%"
           width="140%"
           height="140%"
           color-interpolation-filters="sRGB">
          <feColorMatrix
             in="SourceGraphic"
             values="1 0 0 0 0 0 1 0 0 0 0 0 1 0 0 0 0 0 0.75 0"
             result="result1"
             id="feColorMatrix78" />
        </filter>
      </defs>
      <use
         xlink:href="#SkiSki001__Symbol_10_0_Layer0_0_FILL"
         transform="translate(96.75 58)"
         id="SkiSki001__col1n" />
      <use
         xlink:href="#SkiSki001__hll_0_Layer0_0_FILL"
         transform="matrix(1.00052 0 0 1 190.5 98.75)"
         id="SkiSki001__col1d" />
      <use
         filter="url(#SkiSki001__Filter_1)"
         xlink:href="#SkiSki001__hdd_0_Layer0_0_FILL"
         transform="matrix(1.00052 0 0 1 190.5 98.75)"
         id="SkiSki001__col1s" />
    </g>
  </g>
  <g
     transform=""
     id="g96">
    <g
       transform=""
       id="g94">
      <defs
         id="defs91">
        <path
           fill="#C1D2E2"
           d="M125.7 0q-.2.05-.35.1Q62.1 12.35.85.2.6.1.35.1.2.05.1.05.05 0 0 0q0 .05.05.1v19.5q.35-.1.7-.15h.1q32.4-5.15 62 2.9 29.7-8.1 62.3-2.85.15 0 .3.05.15 0 .25.05V.05l.05-.05h-.05z"
           id="LegPan001__Symbol_1_0_Layer0_0_FILL" />
      </defs>
      <use
         xlink:href="#LegPan001__Symbol_1_0_Layer0_0_FILL"
         transform="translate(129.65 310.25)"
         id="LegPan001__col1n" />
    </g>
  </g>
  <g
     transform=""
     id="g104">
    <g
       transform=""
       id="g102">
      <defs
         id="defs99">
        <path
           fill="#000000"
           d="M146.9 7.7q-9-5.25-23.3-6.95-13.1-1.45-27.4 0-7 .8-14.2 2.45l-8.3 2.05-8.3-2.05Q58.2 1.55 51.2.75 36.9-.7 23.8.75 9.1 2.5 0 8h147.4l-.5-.3z"
           id="LegSho001__Symbol_2_0_Layer0_0_FILL" />
      </defs>
      <use
         xlink:href="#LegSho001__Symbol_2_0_Layer0_0_FILL"
         transform="translate(118.8 326)"
         id="LegSho001__col1n" />
    </g>
  </g>
  <g
     transform=""
     id="g133">
    <g
       transform=""
       id="g131">
      <defs
         id="defs123">
        <path
           fill="#3A2619"
           d="M151.3 24.65v-.05q2.2-13.85-10.25-20.05h.05q-1.85-.9-2.45-1.8-.15-.2-.25-.4-.45-.6-.85-1.15l-.9-1.2-1.85 1.4q-.6.5-1.25.95-.75.6-1.55 1.15l-1.55 1.15q-2.8 1.95-5.75 3.7-.7.6-1.35 1.3v.05q-1.45 1.4-2.6 3.1-.85 1.1-1.6 2.35-1.5 2-2.65 5.7l-.1.2q-.5 1.35-.9 2.75-4.75 10.95-17.6 10.95-20.1.95-41.35-.1-11.85-.3-16.9-10.7-1.25-2.6-2.75-5-2-3.4-4.5-6.45-.9-1.1-1.85-2.1l-.5-.6q-.6-.65-1.25-1.3-3.05-1.8-6.05-3.85L21.2 3.5q-1.45-1.05-2.8-2.1L16.55 0q-.1.05-.15.15l-.5.7q-.55.75-1.1 1.55-.7.95-1.9 1.6-3.6 2.2-5.95 5.05Q1.55 15.4 2.4 24.8l.35.15q-.65 1.55-1.25 3.2l13.5 5.2.2.05 5.35 2.1q-.05.05-.05.15L13.05 74.9v1.15q-.25 3.85-3 7.75-.75 2.7-.85 5.2v4.8q-.1.4-.35 1.25-.35.85-.85 1.9-.75 1.4-2.1 2.8-1.35 1.35-3.95 2.7-.85.45-1.85.9-.35.8.8 1.55 1.45.95 5.35 1.7 5 1 14 1.75 1.5.1 3.15.25 2.7.2 5.75.35.6.05 2.95-.1v1.65l-.65 2.15q6.9 4.25 16.7 3.95 3.6-.15 7.6-.9 2.15-.45 4.35-.7.1-.05.2-.05v-2.55q.15-2.55.45-5 .4-4.15 1.2-8.1 1.7-9.75 6.45-17.5l3.35.25q5.2.25 9.95 0l2.95-.25Q88.6 87.85 91 96.35q.6 2.3 1.1 4.8l1.2 11.25v2.55q.1 0 .2.05.95.1 1.85.3 1.2.15 2.4.4 3.4.65 6.6.85 10.45.55 17.7-3.9l-.65-2.15v-1.55q2.35.05 2.95 0 3-.15 5.7-.35.45 0 .9-.05 18.15-1.4 21.65-3.65 1.15-.75.8-1.55-.75-.35-1.4-.7-4.3-4.15-5.45-7.6-.5-2.85-.4-3.45.1-.7.1-1.5-.05-1.6-.55-3.45-1-.95-1.85-2.1-.1-.15-.25-.3-2.75-3.9-3-7.75v-.25-.4-.5q0-.3.05-.6.05-.55.2-1.1V71.2l-4.8-19L133 35.85l-.05-.1v-.05l4.95-1.85v-.2l14.45-5.15v-.15h.3q-.05-.15-.05-.3l-.8.3q-.65-1.65-1.25-3.2l.85-.35-.1-.15z"
           id="ShiDre021__Symbol_106_0_Layer0_0_FILL" />
        <path
           fill="#2C1C12"
           d="M73.65 70.85l-12.35 5.3q11.85 3.3 24.7.2l-12.35-5.5m-2.25-.95l-8.45-3.6q-.75 4.7-3.7 9.25L71.4 69.9m-8.25-5.4l10.1 4.55 9.85-4.6-10.25-3.8-9.7 3.85m7.3-4.75l-8.5-3.2q1.05 3.35 1.2 6.15l7.3-2.95m-9.3-5.9h-.05l12 4.8 12-4.9-11.85-3.65-12.1 3.75M33 96.1q2.15-5.15.7-10.95-1.05-4.5-1.8.8-.75 5.25-7.15 12.75l-2.85 6.7q2.9.2 6.25.4.5.05 2.1 0Q31 99.4 33 96.1M22.2 16.2q-.102-.156-.15-.3-.5-.9-1.05-1.7-.35-.55-.7-1.05-4.05-6.15-9.7-10Q7 5.35 4.65 8.2-.75 14.55.1 23.95l5.5 2.2-.05-.4L4.5 20.6q-1.1-5.4 4.7-5.05.95.1 3.05 1 2.4 1.05 2.75 1.7.35.65-.65 1.65-.95 1-2.6.6-1.6-.4-2.2.65-.5.85-.5 3.2 0 1.65.65 3.45l8.85 3.5q.75-3.75.75-7.25-.05-5.15-3.5-8.35-1.55-1.2-4.15-3.1-5.4-3.95 4.9-.9 2.1.8 3.75 2.3 1.045.946 1.9 2.2m1.35-7.95q-1.6-1.7-3.25-3.2-1.85-1.7-3.8-3.15-1.4-1-2.9-1.9-.55.75-1.1 1.55 4.35 2.95 7.8 7.4 1.4 1.75 2.65 3.75 0 .05.05.1.85-1.65 2.35-2.45-.9-1.1-1.8-2.1m46.6 40.9l-13.1-4q.9 3.45 2.55 7.45l10.55-3.45m-13.6-6l16.6 5.05 15.4-5.05h-32m29.35 8.9q1.35-3.2 2.15-6.75l-11.8 3.85 9.65 2.9m1.8 23.5q-3.35-4.55-4.4-9.1l-7.85 3.6 12.25 5.5m26.4 8.85q-1.4 6.6 1.3 9.7 2.7 3.05 3.25 11.7 2.1.15 2.7.1 3.2-.2 6-.4-1-3.85-4.6-7.75-6.4-5.75-7.15-11.45-.75-5.65-1.5-1.9M82.75 62.15q-.15-2.45.95-5.85l-8.15 3.25 7.2 2.6M88.9 41.3q.25-1.7.45-3.5-16.55.15-33.45-.3 0 1.85.35 3.8H88.9m41.7-6.2q.6 7.4-2 12.4-1.3 2.55-1.55 5.8-.3 3.7.75 8.3 1.5 6 8.15 11.85-8.1-1.3-17.75-.6 0 .3-.25.25-.3-.1-2.3 0-3.5.35-7.25.95-6.6 1.1-13.85 3-1.25.35-3.35.75H91q0 .05-.05.05-.3.1-1.15.3l-.8.15q-.4.1-.8.15l-1.3.3q-3 .55-6.15.8l-1.45.1q-2.15.1-4.4.05-2.35.1-4.55 0-4.4-.2-8.1-1-.75-.2-1.45-.4-1.5-.3-3-.65h-.05q-.9-.2-1.75-.4l.5.1q-1-.25-1.35-.3-6.75-1.8-13-2.85-4.85-.85-9.35-1.25-.9.05-1.45 0-.6-.1-1.2-.15-10.35-.7-19.35 1.25 1.95-.8 3.55-1.95 4.9-3.5 6.65-10.5 1.05-4.6.75-8.3-.25-3.15-1.45-5.6l-.1-.2q-2.6-5-2-12.4v-.3l-7.45 39.25v1.15q-.25 3.85-3 7.75-.75 2.7-.85 5.2v5.05l-.2.6q.2-.5.3-.9 1.05-2.9 2.3-4.45 2.15-2.75 3.75-4.95 1.6-2.25 3.5-8.65 13.65-.6 25.8 1.3 2.55.4 5.05.9 6.35 1.25 10.4 2.1 2.95.55 4.7.9-4.7 9.25-4.05 26.5.4-4.15 1.2-8.1 1.7-9.75 6.45-17.5l3.35.25q5.2.25 9.95 0l2.95-.25Q86.3 87 88.7 95.5q.6 2.3 1.1 4.8l.75 6.85Q90.75 89 85.5 80.5q.9-.1 1.8-.25 1.1-.2 3.9-.55.35-.05.75-.1 3.4-.4 13.25-2.6 1.3-.3 2.85-.55 8.45-1.4 24.15-1.1 2.3 8.1 7.1 11.65.1.1.2.3.1.2 1.6 1.55 1.45 1.3 3.15 5.35-.5-2.85-.4-3.45.1-.7.1-1.5-.05-1.6-.55-3.45-1-.95-1.85-2.1-.1-.15-.25-.3-2.75-3.9-3-7.75v-.25-.4-.5q0-.3.05-.6.05-.55.2-1.1v-2.45l-4.8-19-3.1-16.25h-.05m1.7-30.05q1.9-1.8 4.05-3.15-.15-.2-.25-.4-.45-.6-.85-1.15-1.55.9-2.95 1.95-4.25 3-7.2 6.65-.35.4-.65.8 1.3.75 2.1 2.15 2.6-3.9 5.75-6.85M149 23.8v-.05Q151.2 9.9 138.75 3.7q-1.4.35-1.5.45-2.6 1.85-4.95 4.4-2.05 2.2-3.85 4.95-.15.15-.25.35-.1.1-.15.2 1.6-2 4.25-2.65l.5-.1q8-2.25 6.6-1.05-1.4 1.15-2.9 2.4-2.55 1.55-4.2 2.95-3.15 2.65-3.1 4.85.1 3.3.1 3.5-.2 3.6.45 7.2l10-3.7.05-.05q.65-1.8.65-3.5 0-2.35-.5-3.2-.6-1.05-2.2-.65-1.65.4-2.6-.6-1-1-.65-1.65.35-.65 2.75-1.7 2.1-.9 3.05-1 5.8-.35 4.7 5.05l-1.05 5.15-.05.6 5.2-1.95-.1-.15z"
           id="ShiDre021__Symbol_67_0_Layer0_0_FILL" />
        <path
           fill="#FFFFFF"
           d="M34.95 7.5q0-.1.05-.15l-5.35-2.1-.2-.05L15.95 0q-.05.1-.05.2l-.35-.15q-.45 1-.75 2.05-.2.5-.4 1.05-.8 2.3-1.5 4.65l-.05.05q-.05.1-.1.15-2.25 3.2-5.25 5.55-1.35 1-1.4 3.7v.25q0 1.35.4 2.55.3 1 .35 1.55v.2q0 .15-.65 1-.6.8-1.7 2.2-2.25 3.15-2.7 5.2Q.3 34.45.1 38.15-.85 48.7 5.85 57.3q.6.9 1.35 1.6 3.95 3.95 10.55 2.05 3.85-1.45 6.5-5 .1-.15.25-.3 2.75-3.9 3-7.75v-.65-.5L34.95 7.5m71.6 65.5q-.5-2.5-1.1-4.8-2.4-8.5-6.35-14.55l-2.95.25q-4.75.25-9.95 0l-3.35-.25q-4.75 7.75-6.45 17.5-.8 3.95-1.2 8.1-.3 2.45-.45 5v1.4q1.2.8 2.35.65 1.75.15 3.3-.65h.2q2.5-.3 4.9.45.4.1.85.3 4.6 1.65 8.2.05.9-.45 1.8-.7 2-.6 3.95-.35.4 0 .8.1-.05-.05-.1-.15 2.55.75 4.7.8.9-.1 2.05-.8v-1.1L106.55 73m61.3-71.4q-.05-.05-.05-.1-.4-1-.6-.9h-.05q-.05-.2-.05-.4h-.3v.15L152.35 5.5v.2l-4.95 1.85v.05l.05.1 3.05 16.35 4.8 19v2.45q-.15.55-.2 1.1-.05.3-.05.6v1.15q.25 3.85 3 7.75.15.15.25.3.85 1.15 1.85 2.1 2.05 1.9 4.65 2.9 5.6 1.6 9.35-1 1.35-.95 2.45-2.5 6.75-7.75 5.9-19-.2-3.85-1.75-8.25-.45-2.05-2.7-5.2-1.6-2-2.1-2.75-.25-.35-.25-.45 0-.55.35-1.75.3-.95.4-1.95v-.6q0-2.9-1.4-3.95-2.7-2.15-4.8-4.95-.05-.05-.05-.1-.55-1.8-1.1-3.5-.65-1.95-1.25-3.85M175.6 53q-3.1 3.5-7.5 3.5 4.4-.1 7.55-3.8 2.05-2.3 2.85-5.2-.7 3.1-2.9 5.5z"
           id="ShiDre021__Symbol_36_0_Layer0_0_FILL" />
        <g
           id="ShiDre021__Symbol_22_0_Layer0_0_FILL"
           fill="#E0E0E0">
          <path
             d="M19.05 29.25q-3.25-3.8-7.85-3.8-4.65 0-7.95 3.8Q0 33.05 0 38.35q0 5.35 3.25 9.1.5.6 1.05 1.1l.8.65q2.65 2.05 6 2.05h.4l2-.25q3.15-.7 5.55-3.55 2.05-2.3 2.85-5.2.45-1.85.45-3.9 0-5.3-3.3-9.1M8.35 7.8Q4.05 9.1 2.8 12v.25q0 1.35.4 2.55.3 1 .35 1.55 3.35-5.95 9.65-6-.65-3.15-4.85-2.55m20.35 10q-1-1.3-1.05-1.3-1.05-.95-3.25-2.1-2.2-1.15-3.5-.35-1.35.75-1.75 1.55-.45.85 1.1.8 1.5-.1 3.7 1.3 2.15 1.4 2.95 3.95.75 2.5.3 3.9v.15l1.5-7.9m2.95-15.55q0-.1.05-.15L26.35 0l-3.2 9.35q4.75.7 5.95 6.4l2.55-13.5m51.55 61.5q-1.45.4-1.3 6.6.15 6.2-4.6 10.05 2.5-.3 4.9.45 2.7-8.95 2.25-12.9-.5-3.95-1.25-4.2m66.35-39.6q-.2-2.35.85-3.65 1.05-1.35 3.2-1.9 2.1-.6 2.9-1.65.75-1.1-.3-1.8t-4.25.65q-3.25 1.3-3.35 1.75-.15.45-1.4 1.25l2.55 10.45q-.05-.25-.05-.4 0-2.35-.15-4.7m-5.45-21.8l.05.1 2.55 13.65q1.8-4.1 5.8-4.55L149.05.25v.2L144.1 2.3v.05m31.55 36q0-5.3-3.3-9.1-3.25-3.8-7.85-3.8-4.65 0-7.95 3.8-3.25 3.8-3.25 9.1 0 5.35 3.25 9.1 3.3 3.8 7.95 3.8H164.8q4.4-.1 7.55-3.8 2.05-2.3 2.85-5.2.45-1.85.45-3.9m-2.5-25.05q-2.55-4.35-7.1-5.25-4.6-.95-5.95 1.9 7.45 1.05 12.55 7.5-.25-.35-.25-.45 0-.55.35-1.75.3-.95.4-1.95z"
             id="path109" />
          <path
             d="M90.7 55q-1.8-1.25-.7 7.9 1.1 9.1 3.05 17.6 2-.6 3.95-.35.4 0 .8.1-.05-.05-.1-.15-4.2-6.75-4.7-15.2-.55-8.65-2.3-9.9m2.15-6.35q-4.75.25-9.95 0l-3.35-.25q-4.75 7.75-6.45 17.5-.8 3.95-1.2 8.1-.3 2.45-.45 5v1.4q1.2.8 2.35.65 0-1.4-.1-4.9-.15-3.5 1.25-9.9t4.85-11.9q3.45-5.5 7.75-4.55 4.4-.6 7.25 3.65 2.8 4.2 4.6 8.35 1.75 4.1 2.5 8.2.7 4.05.5 10.9.9-.1 2.05-.8V79l-1.2-11.25q-.5-2.5-1.1-4.8-2.4-8.5-6.35-14.55l-2.95.25z"
             id="path111" />
        </g>
        <g
           id="ShiDre021__Layer12_0_FILL">
          <path
             fill="#FFC400"
             d="M245.55 334.95l.4 2.25q.45 0 .9-.05 18.15-1.4 21.65-3.65 1.15-.75.8-1.55-.75-.35-1.4-.7-.05.05-.1.05-3.55 2.3-22.25 3.65m-36.15 8.6q.946.17 1.85.35 1.2.15 2.4.4 3.4.65 6.6.85 10.45.55 17.7-3.9l-.65-2.15q-6.95 3.95-16.7 3.5-3.3-.2-6.95-.85-1.2-.25-2.4-.4-.904-.18-1.85-.35-.1.014-.2 0v2.55q.1.014.2 0m58.25-86.6q-.576-1.635-1.2-3.25l-13.7 5.1 1.05 3.65v-.2l14.45-5.15v-.15h.3q-.037-.162-.1-.3l-.8.3m-22.9-15.6q-.1.15-.2.25-.8 1.2-1.5 2.5-.85 1.5-1.65 3.15-.05.2-.15.35l-.1.2-.1.2q-2.7 5-5.15 18.4-.05.2-.1.45 0 .05-.05.15v.2q-.05.4-.15.85 0 .1-1 3.45-.65 2.15-2.1 5.95l2.75-.55q2.1-5.35 2.9-10.2 1.2-7.45 4.55-16.9l.9-1.8q.4-.8.85-1.55l.8-1.4q.15-.25.35-.5l.1-.2q-.3-1.75-.95-3M148 339.1l-.65 2.15q6.9 4.25 16.7 3.95 3.6-.15 7.6-.9 2.152-.43 4.35-.75.1.013.2 0V341q-.1.013-.2 0-2.198.32-4.35.75-4.1.75-7.8.9-9.25.25-15.85-3.55m-7.9-4.25q-1.2-.1-2.35-.15-9.2-.8-14.3-1.8-3.9-.75-5.35-1.7-.15-.1-.25-.15-.85.45-1.85.9-.35.8.8 1.55 1.45.95 5.35 1.7 5 1 14 1.75 1.5.1 3.15.25l.8-2.35m-21.5-81.35q-.597 1.615-1.2 3.2l13.5 5.25.8-3.2-3.8-1.5q0 .05.05.1l-4.15-1.55v-.2l-5.2-2.1m21.8-7.85q.05.05.1.15.5.85.95 1.75l.9 1.8q3.35 9.45 4.55 16.9.75 4.75 2.8 9.9l2.8.7q-1.4-3.7-2.05-5.8-1-3.35-1-3.45-.1-.45-.15-.85v-.2q-.05-.1-.05-.15-.05-.25-.1-.45-2.45-13.4-5.15-18.4l-.1-.2-.1-.2q-.1-.15-.15-.35-.55-1.15-1.1-2.2-.65-1.25-1.35-2.35-.7 1.3-.95 3.1.048.144.15.3m38.75 47.8q-.035.49-.2 2.15-.06.716-.15 1.65-.35 3.05-2.3 6.3-.27.443-.5.8-1.43 2.407-1.3 2.45l-.5-.1q.85.2 1.75.4.025.006.05 0 1.524.355 3 .65.7.2 1.45.4 3.7.8 8.1 1 2.2.1 4.55 0 2.25.05 4.4-.05l1.45-.1q3.15-.25 6.15-.8l1.3-.3q.4-.05.8-.15l.8-.15q.85-.2 1.15-.3-.4-.35-2.25-3.6-2.068-3.587-2.9-8.1-.14-.834-.25-1.7h-2.45l-9.85 4.6-10.1-4.55-2.2-.5m10.45 5.9L177.45 305q2.95-4.55 3.7-9.25l8.45 3.6m-10.1 6.25l12.35-5.3 12.35 5.5q-12.85 3.1-24.7-.2m26.4-.6l-12.25-5.5 7.85-3.6q1.05 4.55 4.4 9.1m-31.45-34.25h-2.2q.1.9.3 1.85.15.6.3 1.25 1 4 3.05 8.2l.2.4q.7.15 1.3.3 1.25.3 1.95.55l12.1-3.75 11.85 3.65 2.85-.55q1.9-4.15 3.05-9.25.05-.4.15-.75.15-.95.35-1.9h-35.25m3.35 11.3q-1.65-4-2.55-7.45l13.1 4-10.55 3.45m13.55-4.4l-16.6-5.05h32l-15.4 5.05m14.9-2.9q-.8 3.55-2.15 6.75l-9.65-2.9 11.8-3.85m-62.7-34.95l.2.3q1 1.2 2 2.55 1.45 2.05 2.85 4.3l.3.6q2.65 4.85 4.65 9.8.2.6.45 1.25 3.2 7.35 12.5 8.15l2.8.1q1.3 0 2.6.05 1.1.05 2.2.05 16.9.45 33.45.3h2.6l6-.1q1.65-.05 3.3-.05 9.6-.9 14.2-9.65 1.35-3.9 3.95-10.8.95-1.75 2.4-3.85.9-1.35 2.05-2.8l.6-.8q-1.4-.85-3.4-.9-1.45 1.4-2.6 3.1-.85 1.1-1.6 2.35-1.5 2-2.65 5.7l-.1.2q-.5 1.35-.9 2.75-4.75 10.95-17.6 10.95-20.1.95-41.35-.1-11.85-.3-16.9-10.7-1.25-2.6-2.75-5-2-3.4-4.5-6.45-.9-1.1-1.85-2.1-1.7.1-2.9.8z"
             id="path114" />
          <path
             fill="#EA0"
             d="M239.55 335.35q-.6.05-2.7-.1l.45 2.3q2.35.05 2.95 0 3-.15 5.7-.35l-.4-2.25q-2.8.2-6 .4m14.25-72.9l-1.05-3.65-4.8 1.8q.3 1.85.9 3.7l4.95-1.85m-21.1 20.3q0-.1.05-.2 1.4-2.9 2.5-5.65l-2.75.55q-.85 2.1-1.95 4.75-.1.3-.2.55-1 2.9-1.1 5.75-.15 2.25.3 4.5h2.3q-.55-2.5-.35-5 .2-2.6 1.2-5.25m22.75-49.15q.124-.093 1.5-.45h.05q-1.828-.906-2.5-1.85-2.078 1.422-4 3.2-3.15 2.95-5.75 6.85.65 1.25.95 3l.1-.1q.15-.3.3-.5.05-.15.15-.25.05-.1.15-.2.1-.2.25-.35 1.8-2.75 3.85-4.95 2.35-2.55 4.95-4.4M140.1 334.85l-.8 2.35q2.7.2 5.75.35.6.05 2.95-.1l.45-2.2q-1.6.05-2.1 0-3.35-.2-6.25-.4m-9.2-72.9l.2.05 5.35 2.1q.2-1.75.15-2.55v-.1q.1-.35.15-.7l-5.05-2-.8 3.2m23.6 19.8q-1.15-2.75-2-4.9l-2.8-.7q1.1 2.9 2.6 5.95.1.35.25.65.8 2.45 1 4.9.2 2.7-.45 5.35h2.35q.5-2.4.4-4.8-.15-2.7-1-5.45-.15-.5-.35-1m-23.85-50.8q-.653 1.004-1.85 1.65 5.66 3.87 9.7 10 .35.5.7 1.05.55.8 1.05 1.7.25-1.8.95-3.1-.05-.05-.05-.1-1.25-2-2.65-3.75-3.467-4.43-7.85-7.45m48.65 52.35h.05q-.7-.25-1.95-.55-.6-.15-1.3-.3l.4.8q.4.8.85 1.85.4 1.05 1.15 2.8.7 1.7.65 5.1v.45l2.2.5 9.7-3.85 10.25 3.8h2.45q-.05-.15-.05-.2-.05-.35-.05-.7-.25-3.65 1.35-7.45.4-1.25 1.1-2.8.05-.05.05-.1l-2.85.55-12 4.9-12-4.8m2.05 8.85q-.15-2.8-1.2-6.15l8.5 3.2-7.3 2.95m20.55-6.4q-1.1 3.4-.95 5.85l-7.2-2.6 8.15-3.25m46-53.65l-1.55 1.15q-2.822 1.95-5.75 3.65-.697.66-1.35 1.35v.05q2 .05 3.4.9.3-.4.65-.8 2.95-3.65 7.2-6.65 1.405-1.042 2.9-1.95-.406-.61-.85-1.2l-1.85 1.4q-.61.475-1.25.95-.756.575-1.55 1.15m-115.6-3.35q-.25.336-.5.65 1.483.938 2.9 1.95 1.95 1.45 3.8 3.15 1.65 1.5 3.25 3.2.9 1 1.8 2.1 1.2-.7 2.9-.8l-.5-.6q-.612-.659-1.25-1.3-3.075-1.794-6.05-3.85l-1.55-1.15q-1.45-1.05-2.8-2.1l-1.85-1.4-.05-.05q-.04.11-.1.2z"
             id="path116" />
          <path
             fill="#FBC904"
             d="M231.85 293h-2.3q.9 4.85 4.3 9.55 2-.1 2.3 0 .25.05.25-.25-3.55-4.65-4.55-9.3m-76.4 0h-2.35q-1.15 4.65-4.75 9.25.6.05 1.2.15.55.05 1.45 0 3.4-4.65 4.45-9.4z"
             id="path118" />
          <path
             fill="#DAAE03"
             d="M209.7 270.75q.25-1.7.45-3.5h-2.6q-.2 1.8-.45 3.5h2.6m-35.6-3.8q-1.1 0-2.2-.05 0 1.9.35 3.85h2.2q-.35-1.95-.35-3.8z"
             id="path120" />
        </g>
      </defs>
      <use
         xlink:href="#ShiDre021__Symbol_106_0_Layer0_0_FILL"
         transform="translate(115.9 228.6)"
         id="ShiDre021__col1n" />
      <use
         xlink:href="#ShiDre021__Symbol_67_0_Layer0_0_FILL"
         transform="translate(118.2 229.45)"
         id="ShiDre021__col1d" />
      <use
         xlink:href="#ShiDre021__Symbol_36_0_Layer0_0_FILL"
         transform="translate(101.45 256.75)"
         id="ShiDre021__col2n" />
      <use
         xlink:href="#ShiDre021__Symbol_22_0_Layer0_0_FILL"
         transform="translate(104.75 262)"
         id="ShiDre021__col2d" />
      <use
         xlink:href="#ShiDre021__Layer12_0_FILL"
         id="use129" />
    </g>
  </g>
  <g
     transform=""
     id="g145">
    <g
       transform=""
       id="g143">
      <defs
         id="defs138">
        <path
           fill="#617433"
           d="M100.55 29.25l-4.5-.15q-25.45-1.9-45.8-16l-6.2-4.65v.1q-5.35-5.1-8.7-7.45-3.35-2.2-6.7 0-.7.55-1.4 1.35-.4.45-.75.9-.3.45-.55.9-.65 1.1-.9 2.4-.7 3.3.95 7.85l-1.05 2.2.05.05-3.55 7.35q-.25.55-.4 1-8.65 19.4-12 31.95L9 57.1q-.996 3.636-1.55 6.7h.05q-.05.05-.05.15-1.05 6.1-.45 9.9 0 .2.1.45 0 .1.05.2v.5l-.05.25v.1q-.1 1.3-.25 2.55L5.8 83.05Q3.95 90.3 0 97.55l.1.1v-.05q.2.1 8.1 1.7 5.65 1.1 6.55-6.2.35-2.95-.05-7.25-.35 1.1-.55 1.7-.05-.2-.05-.35.5-1.85.95-3.55 4.65-17 6.3-17.7.1-.05.25-.05l.3-.1q8.1-2.3 13.45-3.3 2.7-.55 6.2-2.2 1.5-.75 2.85-1.5 1.5-.9 2.75-1.85.85-.65 1.6-1.3 2.4-1.65 4.95-3.75l.25-.2q3.05-2.45 6.45-3.95l2.7-.9Q90.55 41 98.75 31.6q.7-.9 1.3-1.75l.5-.6M184.3 14.7v-.1q-.7-1.25-1.4-2.4v-.05q.55-5.2-2.7-8.25l-.25-.25-.15-.1q-.5-.45-1.05-.85-.8-.55-1.75-1.05-.45-.2-.9-.35-.35-.15-.7-.25-3.3-.9-5.8 1.1-.25.2-.5.45-1.3 1.35-2.4 2.75-1.1 1.4-2.75 3.1-.45.4-1.4 1.15-.15.1-.3.25-.15.05-.25.15-2.1 1.55-3.7 2.7-22.75 15.95-51.75 16.65l.45.5q.25.35.55.7 8.8 10.65 31.85 14.95 3.15.6 5.2 1.35.25.1.45.2.35.1.7.25 1.3.5 2.25 1 3.5 2.2 6.3 5l.1.1q.45.55.9 1.15 2.4 2.05 4.9 3.45.05 0 .35.2h.2q.05.05.15.1.55.35 1.1.65l1.2.7q3.35 1.9 6.5 3.05 3.75 1.35 10.45 3.2 3.8 1.2 6.2 2.7 1.35 3.55 4.05 20.75.2 1.25.4 2.25.3 4.5.6 6.2-.15.7-.35 1.55 13.15-3.05 19.7-6.05.05-.05.1-.05-5.15-8.4-6.55-17.3v-.1q-.15-.9-.3-1.75l-.2-1.85q2-8.55-1-12.7-.2-.3-.4-.65l.1.1q-1.72-2.707-3.4-5.6-4.85-8.7-8.4-19.15-1.5-10.6-6.4-19.55z"
           id="ShiSpe019__Symbol_101_0_Layer0_0_FILL" />
        <path
           fill="#435125"
           d="M1.45 63.05v.1q-.1 1.3-.25 2.55L0 71.55l3.3 8.1L1.55 62.3l-.05.25v.25l-.05.25m1.95-18.2l-.05.05q-.996 3.636-1.55 6.7h.05q.95-2.2 2.5-4.45 2.95-4.1 6.4-6.3 4-2.5 5.7-6.7.55-1.5 1.5-5.65-1.2 3.45-3.3 6.1-2.4 2.95-6.75 6-2.35 1.6-4.5 4.25m16.95-42.6v.05L19.3 4.5l.05.05q1.4 2.55 3.35 4.05 3.35 2.5 8.2 1.9-5.7-2.4-8.6-5.45-.85-.9-1.45-1.85-.25-.5-.5-.95M75.8 17.3q-4.85 0-18.65-3.3-.2-.05-.35-.05l-2.1-.5Q38.8 9.6 32.1.9q.25.8.5 1.55.25.35.55.85 1.15 1.7 2.3 2.85l2.8 2.8.9.8q5.4 4.2 13.3 6.2.4.15.7.25 2.5.9 2.5 2.65.15.4.15.85 0 2.2-3.65 3.5-2.15.75-7.6 1.85-2.6.65-7.95 1.9-1.2.35-2.2.8-.65.5-1.35 1.1-3.35 2.9 7.5 1Q57.4 27.2 82 17.25q-.95.05-6.2.05M153.35 7q2.9-1.75 5.05-4.2t2.2-2.55Q147.95 8.7 138 12.5q-4.35 1.7-9.3 2.9-6.6 2.3-13.45 2.95 13.75 9.9 28.95 11.4 3 .35 5.1.35 2.95-.05 4.05-.8v-.25q0-1.45-1.7-2.2-.6-.25-1.3-.45-1.4-.35-6.65-.75-9-.65-9.65-4.5-.3-.6-.3-1.35 0-1.05.5-1.75.1-1.45 4.7-3.2.1-.1.25-.15 4.05-2 4.75-2.35 2.8-1.6 4.65-2.6 1.8-1.05 4.75-2.75M196 78.8q.75-10.85 2.65-15.1v-.05q-.15-.9-.3-1.75l-.2-1.85-1.2 2.25q-1.5 2.7-1.6 8.65-.1 5.9.65 7.85m-13-47.45q.35 1.9.85 3.2 1.3 3.5 2.7 5.15 1.5 1.75 4.2 3.2 1.35.75 4 2.2.35.25.75.45.7.5 1.25 1.15l.1.1q-1.72-2.707-3.4-5.6-3.2-1.1-5.4-3.1-4-3.55-5.4-10.4V29l.35 2.35m-4.35-28.9V2.4q-.7-1.25-1.4-2.4-.5 3.2-7.6 10.5 6.25-2.95 9-8.05z"
           id="ShiSpe019__Symbol_100_0_Layer0_0_FILL" />
        <path
           fill="#252C16"
           d="M41.65 37.85v-13.4q-1.25-1.1-1.5-3.1-1.55-.15-3.15-.55l-.7-.2q-.85-.3-1.6-.55-11.2-4.35-13-16.25-.25-1.9-.2-3.8-.15 0-.25.05Q19.45.8 18 1.7q-5.75 5.05-5.8 14.75v.8q-.05.65 0 1.3.05 1.45.25 3.1 0 .05.05.15.1 5.15-2.3 10.15Q5.3 33 .4 31.9l-.4-.2v.2q.25 2.75 9.85 4.8.9.15 1.85.35 10.1 1.9 24.85 1.1h.2q2.1-.15 4.3-.3h.6m165-6.8q4.1-1.7 4-3.65-6.55 3-14.5 1.65-3.25-12.55-3.25-12.95-.85-6.15-3.45-10.35-1.25-1.45-1.5-1.7-.75-.7-1.7-1.35-.1.55-.15 1.1-.35 2.4-1.1 4.5-2.35 6.5-8.35 10.05-4.05 2.15-8.85 2.95-.4 1.65-1.4 2.8l-.2.4v12q3.8.5 7.55.65 9 .3 17.5-1.45 2.9-.55 5.9-1.35 4.65-1.35 9.5-3.3z"
           id="ShiSpe019__Symbol_99_0_Layer0_0_FILL" />
      </defs>
      <use
         xlink:href="#ShiSpe019__Symbol_101_0_Layer0_0_FILL"
         transform="translate(88.5 220.1)"
         id="ShiSpe019__col1n" />
      <use
         xlink:href="#ShiSpe019__Symbol_100_0_Layer0_0_FILL"
         transform="translate(94.15 232.3)"
         id="ShiSpe019__col1d" />
      <use
         xlink:href="#ShiSpe019__Symbol_99_0_Layer0_0_FILL"
         transform="translate(88.6 286)"
         id="ShiSpe019__col1s" />
    </g>
  </g>
  <g
     transform=""
     id="g155">
    <g
       transform=""
       id="g153">
      <defs
         id="defs149">
        <path
           fill="#E9AF8B"
           d="M34.65 11q0-3.2-2.25-5.45-1.65-1.65-3.8-2.1-.3-.05-.55-.1-.25-.05-.5-.05-.15-.05-.35 0-.15-.05-.35 0h-.4q-.7.05-1.25.15-.15.05-.35.1Q20.7-.05 15.1 0 9.35-.05 5.2 3.65q-.05.05-.1.15-.2.1-.35.25-.05 0-.05.05l-.05.05-.2.2q-.25.25-.45.5-.05 0-.05.05l-.05.05-.3.3Q0 9.4 0 15q0 6.2 4.45 10.6Q8.85 30 15.1 30q2.9 0 5.4-.95.1-.05.2-.05.05-.05.15-.1h.05q.05-.05.15-.1.4-.15.75-.35l.8-.4q.1-.05.15-.1l.1-.05q1.5-.95 2.9-2.3 3.25-3.25 4.1-7.45.05-.05.1-.05l.3-.1q1.15-.55 2.15-1.55 2.25-2.25 2.25-5.45m135.6-6.85V4.1l-.05-.05q-.2-.15-.35-.25-.05-.1-.1-.15-4.2-3.7-9.9-3.65-5.65-.05-9.7 3.55-.2-.05-.35-.1-.4-.1-.8-.1l-.8-.05q-.2-.05-.35 0-.25-.05-.4 0-.25 0-.45.05h-.05q-.25.05-.45.1-2.2.45-3.85 2.1-2.3 2.25-2.3 5.45t2.3 5.45q.95 1 2.15 1.55l.3.1q.85 4.25 4.1 7.5 1.35 1.35 2.9 2.3.05 0 .1.05t.15.1q.35.2.75.4.35.2.75.35l.2.1h.05q.05.05.15.1.1 0 .2.05 2.5.95 5.4.95 6.25 0 10.65-4.4t4.45-10.6q-.05-5.6-3.65-9.75-.15-.15-.25-.3l-.1-.1q-.25-.25-.45-.5-.15-.1-.25-.2z"
           id="BodHan001__Symbol_2_0_Layer0_0_FILL" />
        <path
           fill="#D79C78"
           d="M15.5 7.75q0-3.2-2.25-5.45Q11.6.65 9.45.2 9.15.15 8.9.1 8.65.05 8.4.05q-.15-.05-.35 0Q7.9 0 7.7.05h-.4Q6.6.1 6.05.2 5.9.25 5.7.3q-1.95.45-3.45 2Q0 4.55 0 7.75t2.25 5.45q1.7 1.7 3.95 2.1l1.5.15h.1l.75-.05q1.15-.1 2.15-.5.05-.05.1-.05l.3-.1q1.15-.55 2.15-1.55 2.25-2.25 2.25-5.45M12.45 3q1.95 1.95 1.95 4.75 0 2.75-1.95 4.7-.85.9-1.85 1.4-1 .45-2.05.55l-.75.05h-.1l-1.3-.15q-1.9-.4-3.35-1.85-2-1.95-1.95-4.7Q1.05 4.95 3.05 3q1.45-1.45 3.3-1.8.5-.1 1-.15H7.8q.4 0 .85.1 2.15.25 3.8 1.85m124.3 4.75q-.05-3.2-2.3-5.45-1.5-1.55-3.4-2H131q-.2-.05-.35-.1-.4-.1-.8-.1l-.8-.05q-.2-.05-.35 0-.25-.05-.4 0-.25 0-.45.05h-.05q-.25.05-.45.1-2.2.45-3.85 2.1-2.3 2.25-2.3 5.45t2.3 5.45q.95 1 2.15 1.55l.3.1q1 .4 2.25.55l.75.05h.1l1.5-.15q2.2-.4 3.9-2.1 2.25-2.25 2.3-5.45M133.7 3q1.95 1.95 1.95 4.75 0 2.75-1.95 4.7-1.45 1.45-3.35 1.85l-1.3.15h-.1l-.75-.05q-1.1-.1-2-.55-1.05-.5-1.95-1.4-1.95-1.95-1.9-4.7-.05-2.8 1.9-4.75 1.65-1.6 3.8-1.85h.05q.4-.1.85-.1H129.4q.5.05 1 .15 1.85.35 3.3 1.8z"
           id="BodHan001__Symbol_1_0_Layer0_0_FILL" />
      </defs>
      <use
         xlink:href="#BodHan001__Symbol_2_0_Layer0_0_FILL"
         transform="translate(105.05 280.6)"
         id="BodHan001__col1n" />
      <use
         xlink:href="#BodHan001__Symbol_1_0_Layer0_0_FILL"
         transform="translate(124.2 283.85)"
         id="BodHan001__col1d" />
    </g>
  </g>
  <g
     transform=""
     id="g166">
    <g
       transform=""
       id="g164">
      <defs
         id="defs159">
        <path
           fill="#FFFFFF"
           d="M17.25 7.75q7.2.15 14.25-2.9.75-.25 1.55-.6 1.3-1.35 1.5-4.25H0q.2 2.9 1.5 4.25.8.35 1.55.6 7.05 3.05 14.2 2.9z"
           id="FacMou021__Symbol_46_0_Layer0_0_FILL" />
        <path
           d="M214.2 221.55v-.05h-43.4v.05q1.3 2.3 3.45 4.1l.3.3q4.2 3.15 11.5 4.4 3.2.65 6.45.6 3.25.05 6.45-.6 7.3-1.25 11.5-4.4l.3-.3q2.15-1.8 3.45-4.1m-5.5.95q-.2 2.35-1.4 3.45-.75.3-1.45.5-6.6 2.45-13.35 2.35-6.75.1-13.35-2.35-.7-.2-1.45-.5-1.2-1.1-1.4-3.45h32.4z"
           id="FacMou021__Layer5_0_FILL" />
      </defs>
      <use
         xlink:href="#FacMou021__Symbol_46_0_Layer0_0_FILL"
         transform="translate(175.25 222)"
         id="FacMou021__col1n" />
      <use
         xlink:href="#FacMou021__Layer5_0_FILL"
         id="use162" />
    </g>
  </g>
  <g
     transform=""
     id="g178">
    <g
       transform="matrix(-1,0,0,1,385,0)"
       id="g176">
      <defs
         id="defs170">
        <path
           fill="#FFFFFF"
           d="M105.35 24.4q-1.2-4.7-3.8-8.85-1.7-2.75-4.05-5.3-.15-.2-.3-.35Q88.85.9 77.85.1 66.8-.75 59.55 7q-5.35 5.75-6.3 13.7-1-7.95-6.35-13.7Q39.65-.75 28.65.1 17.6.9 9.25 9.9q-.3.3-.55.65l-.3.3q-5 5.65-7 12.4Q.35 26.8.1 30.65q-.2 2.7.05 5.15.25 3.15 1.25 6 1.65 4.65 5.15 8.4 7.25 7.75 18.25 6.9 11.05-.8 19.4-9.75 7.8-8.4 9.05-19.25 1.2 10.85 9 19.25 8.35 8.95 19.4 9.75 11 .85 18.25-6.9 3.75-4 5.35-9.15.75-2.4 1-5.05.3-2.6.1-5.4-.2-3.2-1-6.2z"
           id="FacEye003__Symbol_1_0_Layer0_0_FILL" />
        <path
           fill="#000000"
           d="M1 5.6q.95 1 2.4 1.05Q4.8 6.6 5.8 5.6q1-.95 1-2.35 0-1.35-1-2.35-1-.95-2.4-.9Q1.95-.05 1 .9q-1 1-1 2.35 0 1.4 1 2.35m59.35-2.35q0-1.35-1-2.35-.9-.95-2.3-.9-1.45-.05-2.45.9-1 1-1 2.35 0 1.4 1 2.35 1 1 2.45 1.05 1.4-.05 2.3-1.05 1-.95 1-2.35z"
           id="FacEye003__Symbol_6_0_Layer0_0_FILL" />
      </defs>
      <g
         id="FacEye003__col1n"
         transform="translate(139.3 136.2)">
        <use
           xlink:href="#FacEye003__Symbol_1_0_Layer0_0_FILL"
           id="FacEye003__col1n_FL" />
      </g>
      <g
         id="FacEye003__col2n"
         transform="translate(142.85 163.45)">
        <use
           xlink:href="#FacEye003__Symbol_6_0_Layer0_0_FILL"
           id="FacEye003__col2n_FL" />
      </g>
    </g>
  </g>
  <g
     transform=""
     id="g186">
    <g
       transform=""
       id="g184">
      <defs
         id="defs181">
        <path
           fill="#000000"
           d="M47 9q-.8-1-1.55-1.85-1.4-1.55-2.8-2.7Q37.3.3 30.35.05q-1.5-.1-2.95 0-2.9.25-5.65 1-7.6 2.15-13.8 8.9-3.15 3.4-5.2 7.2Q1 20.4 0 23.95q3.15-6.45 7.35-11Q15.15 5.5 22.8 3.3L24 3q1.65-.35 3.25-.5.15-.05.3-.05Q38.6 1.55 47 11.5q3.15 3.5 4.55 8.25l-.2-1.1q-.2-.75-.3-1.5-.1-.15-.1-.25-.4-1.4-.9-2.6Q48.85 11.5 47 9m56.6 15q-.95-3.6-2.7-6.85-2.05-3.8-5.2-7.2-6.2-6.75-13.8-8.9-2.75-.75-5.65-1-1.45-.1-2.95 0Q66.35.3 61 4.45q-1.4 1.15-2.8 2.7Q57.45 8 56.65 9q-1.85 2.5-3.05 5.3-.5 1.2-.9 2.6 0 .1-.1.25-.1.75-.3 1.5l-.2 1.1q1.4-4.75 4.55-8.25 8.4-9.95 19.45-9.05 3.55.3 7.35 1.65 9.6 4 16.35 13.25 2.05 3.05 3.8 6.65z"
           id="SkiMak003__Symbol_3_0_Layer0_0_FILL" />
      </defs>
      <use
         xlink:href="#SkiMak003__Symbol_3_0_Layer0_0_FILL"
         transform="translate(140.7 135.4)"
         id="SkiMak003__col1n" />
    </g>
  </g>
  <g
     transform=""
     id="g196">
    <g
       transform=""
       id="g194">
      <defs
         id="defs190">
        <path
           fill="#583E2E"
           d="M194.2 0h-.1l.1.05V0m74.15 47.75q-2.8-2.95-5.1-4.8-.8-.85-1.6-1.65-7.5-10.9-17.25-18.8-4.8-2.25-7.05-4-.35-.35-.65-.8-.65-.75-.75-1.15-.2-.4-1.2-1.5-.15-.2-.25-.4-.05 0-.05.05-.15-.25-.25-.5-.15-.4-.25-.8-.6-2.15-5.15-5-.35-.2-.65-.4-.6-.2-1.15-.4-.6-.25-.8-.4-1.95-.7-2.65-1-.05-.05-.1-.05.15.2-.1-.05-9.1-2.4-19.2-3.4-.05-.05-.15-.1h-.9q-6.1-.55-12.35-.4-3.85-.3-7.8-.3-24.4 0-48.9 11.85-2.65-.1-10.25-.6-20.05.8-26.3 4.35-6.3 3.55-9.35 6.8-.7 2.05-.7 4.25 0 5.55 2 9.15 1.65 2.9 1.95 5.4.6-.3 1.05-1 .5-.85.5-1.65 0-.6-.5-3.05-.5-2.45-.5-3.1 0-13.3 25.2-13.5-.65.45-1.2.9-.55.3-1.45.8l.1.2q-11.65 9.1-15.2 20.4-.65 2-1.35 4.35-.05.05-.1.15v.35q0 .65-2.1 4.75-2.5 4.8-5.4 9.15-2.05 3.05-4 5.5-1.65 2.75-4.55 5.95-2.95 3.15-7.5 2.6-4.55-.55-19.65-6.1-15.15-5.6-23.55-5.6-16.8 0-22.55 10.15-2.6 4.55-2.6 12.15 0 1 .4 3.45.65 3.75 1.85 6.9 3.7 9.85 11.4 9.85h.75q.3 0 .55-.05-3.7-1.05-5.55-4.3-1.5-2.65-1.5-6 0-4.5 3.6-8.35 3.2-3.45 7.9-5.15 4.65-1.7 7.9-.75.7.2 1.3.55 1.45 1.2 2 2.8V85q.15.45.25.95 2.15 3.3 3.65 5.35 6.9 9.4 18.9 9.4 5.45 0 10.2-.4-.65.5-1.4 1.15-1.1.8-2.55 1.9-6.45 5.3-7.85 6.35-4.9 3.8-9.05 6.15-15.95 8.95-35.15 13.8-4.5 1.1-10.7 2.5-2 .5-2.95 1 .15.2.35.45 21.2-1.5 46.05-11.55-20.15 15.8-44.05 15.15-1.15-.05-2.35-.1l1.35 1.45.55.55q2.65 2.75 5.4 4.9 2.75 2.1 9 2.9 5.75.75 17.25.4h.75q.55 0 1.15-.05.1.25.1.5 0 4.95-7.75 4.95-4.1 0-7.95-.65 2.1 3.05 2.1 7.35 0 1.6-2.5 6.9-.15.2-.25.5-2.1 4.7 4.3 4.4l.8-.05h.35l.8-.05q.75-.1 1.4-.15h.3q.2-.05.45-.05 1.65-.05 3.65.3 1.85.7 3.45 2.3 2 2.8 3.15 6.35.55 1.65.8 3.3v2.65q-.45 3.25-1.15 5.35-1 3-2.85 5.25-.65.85-2 2.65-.35.45-.65.85-.45.35-.85.7l-1.6 1.2-.2.1q-1 .7-2.4 1.6-2.6 1.65-6.05 3.7-.75.55-5.7 4.05-.65.45-1.2.85h18.5q8.3-.35 11.75.65l-4.75 3.15.1-.1q-.784.637-9.25 4.3l-.35.15q-2.732 1.212-4.05 1.4 1.35.05 3.9.25 3.5-.25 8.15-2.1 4.9-2.05 8.45-4l5.15-2.6q-5.15 4.05-8.7 6.15-2.55 1.6-8.85 3.9-3.7 1.3-5.3 1.9.35.35.65.95 2.8 2.4 3.7 3.3 1.2 1.15 2.65 3.3 1.7 2.5 2.45 3.35 1.8 1.95 3.5 6.25t1.7 7q0 1.1-.05 1.6 29.4-3.6 53.5-26.15 2.35-2.25 6.05-7.55l.05-.05.75-2.95q.75-2.65 1.6-5.3l1.3-3.8.4-1.2.1-.2q.2-.5.35-1 .85-2.2 1.75-4.4l.1-.2v-.05q.3-1 .45-1.45l.8-1.9q.5-1.15 1.05-2.25.05-.15.1-.25.05-.15.1-.25l.3-.7.65-1.25q.75-1.55 1.5-3l1.1-2q1.3-2.3 2.7-4.5.15-.25.3-.45 1.4-2.2 4.7-7.1-.3-.2-.5-.4l-1.8-1.5q-.3-.3-.6-.55l-1.7-1.55q-1.65-1.5-3.25-3.1l-.7-.7q-13.2-13.45-20-29.45l.55-5.3q0-.1-.05-.25.1-.6.2-1.15.15-1.05.85-3.45.3-1.65.55-2 .75-1.3 3.1-1.7.1 0 .2-.05 2.15 5.25 5.6 10.2-.2-.9-.3-2v-5.6l.25-13q.05-1.7.25-3.85-.4-11.6 1.25-23.4.15-1.35.35-2.6.7-4.45 1.25-7.25l.45-2.15q.3-1.1.5-1.7.75-2 1.6-3.85-.05.05-.1.15 1.85-3.95 4.5-8.4 13.55-24.15 47.4-24.2h1.9q8.7 1.05 17.45 3.75 2.15.65 4.35 1.25 1.35.55 3.8 1 2.4.45 2.65.5.2.05 0 .2 6.5 1.85 12.55 2.35l2.5.15h-.15q.18.006.4.05.4-.05.8 0 7.85 0 13.15-2.95l-.05.05q.55-.35 1.2-.6-.05-.05-.05-.1.15-.1.35-.2 1.15-.55 3.6-1.85.05-.05.05-.1 1.4-.6 2.3-.6.75 0 1.5.1h.2q.45.05.95.15.7.2 1.7.65 2.35.65 4.55 2.3 2.45 1.9 3.25 3.3.1.1.25.2.1.25 3.95 4.45.9 1.25 1.15 1.7l.15.05q.2.35.45.7 2.95 4.8 6.2 13.65l.65 1.85q.45.85 1.1 2.55.9 2.4 1.35 4.1.15.5.25.85.15.5.35 1.05l.05.05q1.5 4.15 2.5 7.3l.1.3q1.2 4.15 1.95 8.4.6 1.8.9 3.15.7 3.8.85 7.45.15.7.15 1.65v7.65q0 .45-.25 10v.1q-.05.9-.1 1.75l.1 2.95q0 .55.15 6.8 2.8-5.95 5.15-11.05.9.55 1.45 1.05.15.15 1.15 1.6l.3.4q.3 1.65.3 3.3v.7q-.05.25-.15.55v4.7q-.65 1.65-1.35 3.3-7 15.8-20.25 29.05-1.6 1.6-3.2 3.1-2.25 2.05-4.5 3.95 3.25 4.95 4.65 7.15.15.2.3.45 1.1 1.75 2.15 3.55.3.45.55.95.5.95 1.05 1.9 0 .05.05.1l1.2 2.4q.1.15.2.35 0 .05.1.2v.05l.8 1.6q.05.15.15.35.05.1.1.25.05.1.15.25.5 1.1 1 2.25.1.2.2.45.3.7.6 1.45.05.15.15.35-.05.05-.1.05-1 .9-2.1 1.85-5 4.2-16.5 10.85-3.6 2.05-11.85 4.6-10.05 2.95-14.95 4.45-18.2 5.7-18.2 11.05 0 2.25 1 4.25 7 9.75 21.95 10 5.85-.2 11.55-2.95 1.55-.65 2.95-1.35 3-1.65 4.25-2.85h-.25q-.85.05-3.7 1.1-4.75 1.3-9.3 1.3-.35-.1-.55-.1l-6.2-.3q-2.6-3.5-4.25-5.5l.1-.1q.95-.9 3.9-1.4 3.3-.3 6.75-.65h14.55q18.2-1.25 29.9-3.05 6.1-.95 10.45-2.05 2.1-.95 2.25-1.1 2.4-2.35 7.95-6.9 3.5-2.8 11.4-8.8 7-5.5 8-9l.15-.55q-.6-2.35-2.2-8.2-2.8-10.25-3.4-14.35-.75-5.1-.7-15 .2-9.15.2-9.8 0-2.75.4-13.45 2.55-27.5-7.15-49.9-1.55-4.2-3.65-9.75-7.6-17.75-20.7-31.6z"
           id="HaiLon025__Symbol_84_0_Layer0_0_FILL" />
        <path
           fill="#38251A"
           d="M205.4 234.65h-.7q-4.4-.35-7-.9-.5-.35-1.15-.75-1.3-.75-1.9-1.75-.05-1.4.05-1.6l.1-.1q-.05-.3-.05-.35 0-2.25 2-4.4 1.75-2 4.95-3.55-.75.25-1.65.5-1.45.45-2.35.7-.45.2-.9.45-2.9 1.4-3.9 3.2-.3.55-.5 1.25-.75 1.5-.75 3.1 0 2.8 1.95 4.1 2.9 1.9 11.8 2.85h2.05q-1.15-1.5-2.05-2.75m-94.3-64.55h-.1q-8.5 3-26.1 9.05-17.6 6-33.1 13.65-8.1 3.9-18.65 8.1-.35.15-.75.3-3.45 1.45-7.5 2.95-3.95 1.55-16.65 6.05H9.6q13.7-3.1 22.8-6.25 1.6 0 4.5-.1l15.25.3q.1 0 .25.05h.5l.4.2q1.55.4 2.8 1.05.85.45 1.35.95.95.6.95 1.95 0 3.15-3 5.1-2.25 1.5-4.35 1.5-2.2 0-3.7-2.6-.65-1.15-.9-1.9-.35.05-.45.15-.15.15-.25.2.25 1.1.25 2.8v.25q.35.75.7 1.4.15 1.4 2.75 3.35 2.85 2.15 14.3.7l-6.1 1.5q8.1-1.8 13.7-3.75 2.1-.7 4.6-1.7 1.05-.6 2.15-1.3 1.15-.7 2.1-1.25l.1-.1q4.9-3.55 6.95-4.8 1.1-.65 2.4-1.6l.5-.5q4.85-4.6 7.25-6.65 1.75-1.9 3.35-3.5.8-1.1 1.15-1.7.65-1.1 1.35-1.5.05-.15.15-.25-2.65 1.85-6.55 4.45-.8.7-1.5 1.3-21.6 18.7-39 18.7-2.05 0-3.55-.35 3.4-.55 5.6-2.9.85-.95 1.4-2h.55q.65-.4 1.75-.75 3.15-.8 4.15-1.3 4.95-2.5 8-3.8 3.45-1.6 5.55-2.5 6.2-3.45 11.35-6.75 5.15-3.35 7-4.7 1.8-1.35 5.55-4.7 3.75-3.4 3.8-3.5.1-.2.2-.35-.7.45-1.4 1-9.5 7.05-14.2 9.7-10.45 5.85-23.1 11.7-4.9 2.2-8.45 3.75.1-.7.1-1.45 0-2.45-1.35-3.65-1.7-1.5-6.9-2.75H39.7q5.25-2.15 19.85-9.55 14.55-7.45 33.2-13.5 18.7-6.1 22.1-7.25 0-.05.35-.25 0-.05.35-.15l-1.8-1.5q-.35.1-.65.2-.55.2-1.05.4H112q-.35.35-.9.35M20.6 169q1.65-.05 3.65.3 2.05-.65 4.1-1.25 13.3-3.9 24.5-3.9 1.65 0 12.75 2.85 12 3 14.8 3.4 7 1.05 11.95 0-16.45 5.2-34.3 12.7-5 2.6-9.05 4.45-2.55 1.2-12.25 5.7-6.35 2.9-8.8 3.7-2.3.85-3.8 1.75l-1.6 1.2q-.7.6-1 1.25 3.3-.35 4.1-.65 5.4-2 5.55-2.1 4.8-2.4 11.25-5.15 1.75-.75 10.8-5.15 6.6-3.25 11.35-4.9.55-.2 1.3-.45 5.6-2.15 8.1-3.25t6.6-2.5q4.45-1.55 7.4-2.8 4-1.7 14.5-4.9 4.6-1.7 7.55-2.65-.1-.1-.2-.15-5.3.55-9.2 1.15H81.1q-2.85-.35-14.75-3.4-5.9-1.55-9.35-2.25h-3.55l-.55.1-4.3.05q-7.6.55-12.45 1.45-3.55.65-7.25 1.85-5.75 1.7-6.95 2.1-.4.15-1.8 1.5.2-.05.45-.05m55.6-21.25q-6.45-3.8-17.3-5.1-14.55 1.25-20.6 3.3-4.1 1.4-10.25 2.4-.95 1.75-3.7 2.4h2.45q5.7-1.6 8.7-2.45 2.85-.8 6.6-1.25 8.25-1.9 20-1.9 4.15 0 14.4 5.5 10.3 6 12.4 6.75 8.4 2 12.75 0l-2.25-2.75q-3.45 1.85-9.8 0-4.35-1.45-7.95-3.5-3.65-2.3-5.45-3.4M55.1 134.3h2.8q6.1 1.4 12.6 3.7 5.95 2.15 14.75 2.5 2.55-1.05 4.5-.9-.1-.2-.15-.35-5.6-.45-7.8-.9-1.05-.25-3.95-1.4-.05-.05-.3-.1-3.45-.85-5.45-1.4-2.15-.6-3.65-1.2-.5-.15-.85-.25-4.25-1.65-8.15-2.75H54.3l-.45.1-2.6.05q-3 .7-7.4 2.8-4.65 2.2-7.15 4.25-1.15.95-6.2 3.5-5.65 2.85-7.25 2.85H23q-.15.05-.25.1.1 0 .25.05h2.35q.3.35 1.2.45h.75q.55 0 1.15-.05 2.95-.35 7.35-2.4 4.8-2.55 5.05-2.7 4.3-2.6 6.25-3.6 3.15-1.6 8-2.35M28.75 74.1v-.4q0-3.5-6.1-4.85h-5q-2.95.4-8.9 2.3-7.15 2.25-8 4.15l-.4.2q-.2.5-.35 1.1.05-.05.1-.05 1-1.4 4.45-2.75 4.2-1.65 5.8-1.6h.2q1.75-.55 2.85-.75h5.2q1.3.35 2.4.7 4.1 1 5.65 3.8.85 1.55 1 4.8 1.45 1.2 2 2.8v-.45q0-2.6-.05-3.1-.15-3.25-.85-5.9m75.35-9.4q-.05.05-.1.15-1.35 1.65-2.65 3.6-2.95 4.35-5 7.3-.55 2-3.55 5.65-.4.45-.75.9-.65 1.1-1.45 2.5-4.2 7.1-5.15 10-.4 1.35-1.35 4.15-.3.95-.55 1.85v.55q0 1.95-.9 12.45.1.95.25 2.55.35 3.4.5 4 2.25 7.45 3.6 7.95-.05-.05-.05-.1-.6-1.5-.95-3.75 0-.2-.05-.4-.05-.15-.05-.35-.5-4.2-.55-7.7-.15-.6-.2-1.15-.1-1-.1-3.25 0-2.2.15-3.1-.05-.2-.05-.3 0-1.75.25-3.6v-.2q0-.05.05-.05 1.7-12 13.45-28.2 1.3-1.6 2.5-3.05.05-.35.15-.7l.45-2.15q.3-1.1.5-1.7.75-2 1.6-3.85m183.05 132.65q5.55-4.5 8.85-8.55-.8-2.9-1.4-5.25-.25.35-.5.75-3.55 5.2-6.1 8.2-8.3 9.8-20.1 13.9-7 1.9-13.25 3.6-13.1 3.55-22.9 6.35-.1-.05-.15-.05-1.55.55-3.75 1.2-4.9 1.5-6.3 2-8.6 2.85-12.55 5.2-4.55 2.55-5.55 3.65-.35.4-.7 2.1.05-.05.1 0-.05.05-.05.1l.15.5q.1.2.3.3.55-.45 1.8-.9 2-.75 3.95-.8.4-1.4 2.8-3.05 1.65-1.15 3.65-2.05 2.45-.8 7.85-2.55 4.75-1.8 17.6-5.6.9 0 6-1.25 3.9-1 5.9-1.6 1.4-.3 2.7-.6 10.9-2.55 14.5-4.3 7.65-3.55 17.15-11.3M207.6 228.8q.1-.05.2-.05l-.05.05h-.15m46.5-76.25l-.3.4q-.25.3-.45.6 3.3 6.25 3.3 9.55 0 10.05-13.55 19.05.3.45.55.95.5.95 1.05 1.9 3.7-2.6 6.75-5.75 7.7-8 7.7-16.4 0-4.55-2.25-9.9-.6-1.45-1.25-2.6l-.05-.05q-.75 1.15-1.5 2.25m3.65-5.3q.2.25.4.6 5 8.25 5 15.85 0 9.45-9.5 18.05-2.05 1.9-6.55 5.25-.55.45-.95.85 0 .05.1.2v.05l.8 1.6q.05.15.15.35 8.4-6.8 12.3-10.15 2.05-2.9 3.8-6 .65-1.25 1.25-3.2.55-2.15.9-3.25.1-.25.15-.6.05-1.4.05-3.1 0-2.9-.6-6.65-.6-3.85-1.65-7.2-1.2-3.55-3.25-6.6-.1-.1-.15-.2-1.15 2.05-2.35 4 .05.05.1.15M187.95 21.9q0-3.3-3.6-5.65-1.55-.95-4.75-2-3.75-1.2-6.3-1.2l-4.65.1q-4.75.75-8.85 2.3-2.5.95-7.55 3.15-2.15.9-6.85 3.2-4.45 2-8.05 2.75H135q-7.65-.65-15.2-3.05-.3-.05-3.05-.7-.25-.1-.45-.15-.9-.2-2.05-.5-2.3-.7-3.5-1.3-.35.15-.7.35h.05q-.1.1-.25.2-.15 0-.3.05t-.6.35q-.55.3-1.45.8l.1.2q.8.9 5.8 2.3.15 0 .3.05-.5.3-1.1.7l-.4.3q-2.05 1.45-4.65 3.8-.35.65-.8 1.45-.45.7-.95 1.55-.5.8-1.1 1.75l-.7.8q-1.4 2.4-4.5 7.35-2.55 4.3-3.25 7.1-.6 2.45-1.35 7.35-.15.95-.4 1.8-2.25 5.7-9.4 14.65-1.5 1.85-2.8 3.4-.25.25-.5.55-3.55 4.1-5.85 5.85-.6.7-1.1 1.4-.55.15-1.15.3-3.45.85-7.05 1.45h-4.5l-.5.1h-5.3q-2.7-.75-3.25-1.2-.4-.35-.45-1.3-.15-.5-.15-1.1 0-1.1.7-2.7.15-1.15.15-1.9.1-3.2-2.95-6.7-.7-.7-1.3-1.35-.65-.2-1.3-.45-1.45-.5-2.85-1 .55.95.9 1.55 1.7 2.4 2.5 3.7.45.7.8 1.4 1.5 2 1.5 4.1 0 1.35-.65 4.75.05 2.2 2.1 3.5l.75.15h.1q2 .15 2.7.25h10q4.5-.75 7.6-1.4-.4.5-.8 1.05-1.05.3-2.6.65-1.35.3-4.7 1.25-3.5.8-7.4 1l-3.25.05q-.4.1-.6.3h-1.25q-4.15-.55-5.5-1.65-1-.8-1-2.6 0-.4.1-.75-.05-.55.05-1.15.35-1.35.35-1.6.1-3-.15-4.55-.4-2.55-1.85-4.1-2.6-3.9-8.2-8.45-3.55-.9-6.55-1.4 2.05 1.5 4.3 3.15 6.6 4.9 8.7 9.6.75 1.7 1 4.25.1.9.25 4 0 .05-.3 2.25-.25 1.55.4 2.55 2 2.95 13.15 2.95 5.85 0 12.3-2.05-2.8 3.75-4.1 5.65-.1.05-.2.15-2.05 1.8-2.6 2.8-.05.05-.1.05-.15.1-.3.25.1-.05.2-.05-2.1 1.7-6 5 .3-.2.65-.4 3.9-2.15 5.85-3.2.45-.45.95-.9 5.4-4.8 9.45-8.55 1.95-2.65 5.55-6.4.85-.8 1.6-1.55l.4-.4q2.25-2.2 3.75-3.7.2-.1.5-.2 6.4-9.1 8.45-13.15 1.8-3.55 3.05-6.3.1-.95.1-1.85 0-9.45 6.25-18.05.8-1.15 3.8-4.35.85-.85 1.5-1.6.3-.4.65-.75 0-.05.05-.1l.1-.1q1.05-1.25 1.65-2.1 1.75-2.7 6.1-4.45.55-.2 1-.35 2.2-1.2 4.3-.2.05.05.15.1 11.25 2.3 15.2 2.3 2.4 0 4.2-.55 1.85-.2 5.05-1.5 8.3-4.45 11.6-6.25 8.05-4.4 15.35-1.5 2.8 1.1 4.6 3.05 1.7 1.85 1.7 3.45 0 2.4-1.55 5.3-1.05 1.95-2.5 3.05.6-.3 1.35-.6h.25q.55 0 1.5-.9.15-.05.3-.15 2.45-1.35 4.4-2.55 1.25-.95 2.4-2.35 1.65-2.15 1.65-4.05m7.7-10.45q-.45-.4-1-.9-1.25-1.2-2.75-2.75-5.05-3.35-8.85-5.1-1.75-.75-4.65-1.65.05-.05.1-.05 1.55-.25 2.9-.45h.05q.7-.15 1.35-.25h.95q-3.85-.3-7.8-.3-24.4 0-48.9 11.85l-.4.1-.75.05 4.85.05q5.1 0 13.8-3.4 8.7-3.4 9.85-3.4.5 0 3.95-.8 4.5-1.1 4.55-1.1h3.05l.55-.15h8.4q1.75.4 3.9 1.1.05 0 .1-.05 2.5.85 5.15 1.9 2.45 1 4.55 1.95 1.25 1 2.3 2.15 4.75 5.2 4.75 11.95 0 3.9-2.1 6.9-.45 1.3-2.4 2.55-.1.05-.2.15-2.25 1.75-5.55 3.05-.35.15-.75.3-.65.25-1.55.6-2.1.8-3.25 1.35-.15.05-.25.15 1.35.55 3.8 1 2.4.45 2.65.5.2.05 0 .2 2.1-1.2 4.75-2.95 7.35-4.9 7.35-13.8 0-6.25-2.5-10.75m16.5 9.45q0-5.1-2.4-9.2-2.5-4.25-7.75-7.95h-.05q-.45-.35-.95-.65-.15-.1-.25-.2-1.65-.8-3.6-2.1-.05-.05-.15-.1h-4.55q-.45-.05-.85-.1.65.4 1.3.75.45.3.95.6.8.5 1.55 1 2.75 1.55 3.95 2.4 10.3 7.2 10.3 15.75 0 5.95-3.8 11.5-3.8 5.5-9.25 8.35l2 .35 2.5.15q.1-.05.25-.05 3.8-2.85 6.45-6.75 4.35-6.5 4.35-13.75M224 13.05q-.1-.3-.15-.55-.8-3.15-2.4-6.15-.9-.4-1.45-.65-.6-.25-.8-.4-1.95-.7-2.65-1-.05-.05-.1-.05.15.2-.1-.05 2.65 3.4 3.95 6.3.15.3.25.6 1.6 3.85 1.6 7.75 0 7.4-3.55 14.5-1.3 2.55-2.9 4.65-.05 0-.05.05-.1.05-.05.1-.2.2-.3.4l-.05.05q.55-.35 1.2-.6-.05-.05-.05-.1l-.05-.05q.15-.05.4-.15 1.15-.55 3.6-1.85.05-.05.05-.1.35-.75.65-1.55 3.6-9.05 3.6-15.35 0-2.95-.65-5.8m23 49.35l.65 1.85q.45.85 1.1 2.55.9 2.4 1.35 4.1.15.5.25.85.15.5.35 1.05l.05.05q2.45 2.95 6.4 7.5 7.05 8.2 10.3 14.1 2.85 5.15 4 10.3.15.7.25 1.4.45 2.65.45 5.3t-1 5.3q-.2.35-.45.75-.85 1.45-1.15 2.15-.05.1-.15.45-.3.55-.8 1.7l-.2.5v.05q-.45 1-.9 1.7-.2.35-.55.9-.4.55-.95 1.3-.45.7-.7 1.25v.75q1.2-1.3 2-2.2.05-.1.15-.2.25-.25.45-.5 1.95-2.1 2.55-3.45.55-1.2 1.8-3.5t1.75-3.5q.25-.65.45-1.8.1-.85.2-1.35v-.35q0-4.6-2.55-11.5-.2-.5-.35-1v-.05q-.65-1.6-1.4-3.3-4-9.25-8.35-14.3-4.05-4.6-6.35-7.3-1.9-2.2-3.3-3.9 1.75 1.2 4 2.65 9.35 6.05 14.65 10.75.2.2.45.4 3.15 2.85 4.7 5.15 4.75 7 6.65 17.25 1.35 7.3 1.35 17.65 0 13.35-.5 19.55v.05q0 2.05-1 5.7v.8q0 1.9-.6 4.25-.15.4-1.4 4.3-1.95 5.7-3.9 8.55-.45.65-2.75 4.2-1.8 2.75-3.05 4.3-1.25 1.3-2.4 2.4-.05.05-.1.15-2.2 3.1-4.85 5.05-1.2.85-3.7 2.8-1.95 1.5-2.95 2.45-1.05.9-3.35 2.4-2.15 1.45-4.95 2.4.3.7.6 1.45.05.15.15.35.9-.5 2.2-1.05 4.75-2.05 7.3-3.35 13.5-7.4 20.65-22.95 7.1-15.65 7.1-43.65 0-21.2-7.6-34.05-3.1-5.25-8.2-10.55-.25-.3-.5-.5-2.3-2.4-5-4.8-2.95-1.75-4.5-2.9-4.75-2.9-8.6-5.35-3.4-2.15-5.25-3.5m17.5-3.6h-.05q-4.85-3.1-12.8-7.65-11.85-6.7-16.6-9.4 0 .05.05.1.1.25 3.95 4.45.9 1.25 1.15 1.7l.65.25q6.15 3.5 8.15 4.4 3.1 1.35 7.65 4.05 2.55 1.55 7.75 4.65.8.45 1.45.95h.05l.5.4q.05 0 .1.05.2.05.4.2.1.15.35.4.95.6 2.4 1.9 2.7 2.5 8.55 8.5 1.55 1.55 3.65 3.95-1.25-3.05-1.65-4.3-1.2-1.45-1.65-1.95-2.95-3.35-6.4-6.7-1.15-1.15-2.05-1.95-.25-.2-.45-.4-.15-.1-.25-.2-.9-.7-2.05-1.5-1-.7-2.25-1.5l-.6-.4m-16.25-24.15q-2.45-1.2-4.5-2.15-.3-.15-.6-.25-4.4-1.55-6.9-2.55-2.6-1.05-3.75-1.85-.95-.3-1.55-.5-.4-.15-.75-.2.05-.1.05-.25.35-1.65.9-4.9v-4.65q-.3-.25-.6-.55l-.2-.2q-.35-.35-.65-.8-.65-.75-.75-1.15-.2-.4-1.2-1.5-.15-.2-.25-.4-.05 0-.05.05-.15-.25-.25-.5-.15.25-.15.6.2.95.4 1.8.05.3.15.55v.05q.7 3.55.7 6 0 5-2.1 9.65-1.05 2.15-2 4.3h.2q.45.05.95.15.7.2 1.7.65.5-1.2 1.05-2.45.9-1 1.7-3.7.7.1 1.75.5 1.7.65 2.6 1.2 1.55.55 3.9 1.45 5 2.15 7.2 3.45.5.25 1.1.5 1.45.6 4.75 1.9 1.35.55 2.55 1.05l.8.3q.65.3 1.25.55l-1.1-1.1q-1.05-1.5-2.1-2.95-.65-.3-1.25-.6-.5-.25-.95-.45-1.05-.55-2.05-1.05z"
           id="HaiLon025__Symbol_52_0_Layer0_0_FILL" />
      </defs>
      <use
         xlink:href="#HaiLon025__Symbol_84_0_Layer0_0_FILL"
         transform="translate(9.5 55.7)"
         id="HaiLon025__col1n" />
      <use
         xlink:href="#HaiLon025__Symbol_52_0_Layer0_0_FILL"
         transform="translate(16.5 57.6)"
         id="HaiLon025__col1d" />
    </g>
  </g>
  <g
     transform=""
     id="g225">
    <g
       transform=""
       id="g223">
      <defs
         id="defs212">
        <path
           fill="#9A3200"
           d="M43.75 104.7q-1.5.55-2.9.75-.1.95-.15 1.9l-.6 4.7q-.55 4-1.35 8-.6 1.1-.95 1.7-.05.05-.05.15-.15.2-.25.4-.2.2-.35.4l-.1.1q-1.35 1.7-1.75 2.55-1.05 2.2-.8 3.95 0 1.3.3 2.45.1.35.25.7 0 .05.05.2.5 1.95 1.25 2.4.1-.15.25-.3l.25-1q.2-2.45.65-3.2.3-.55.8-1.15.45-.65 1.4-1.55.6-.6 1-1.05.05-.05.15-.05.5-.5 1.15-1.05.35-.45.65-.7.4-.7.65-1.4.2-.55.9-2.95.1-.3.2-.5 1.3-8.85 1.85-17.35-.3.35-.65.7-.75.7-1.6 1.1l-.2.1h-.05M14.55 8.9l-.4-.3q-1.8-1.75-2.25-2.15-.6-.5-1.25-.9-.4-.1-.95-.25-.8-.2-1.5-.35h-.15Q7.5 4.8 6.7 4.6q-1.3-.35-2.05-.65-.75-.3-1.25-.6Q2.65 2.9 1.25.9L.55.15Q.35.05.2 0q-.45.7.1 2.7 0 .1.05.2 0 .35.15.75.25 1.15.95 2.25.65 1.65 2.65 3.05.75.5 2.8 1.3.05 0 .1.05.25.05.5.15.2.1.45.25.05.05.15.1.55.3 1.65 1Q24.1 28.3 32 46.4q6.65 15.3 8.7 31.75l.4 4.6q.4.1.8.25 2.25 1 3.95 3 0 .05.05.1.15.15.3.35.15.2.25.4-.15-5.1-.65-10.1Q44.3 60.7 37.15 45q-8.2-18.1-22.6-36.1M191.9 19.1l-1.2-2.3-15.3 7.8q1.5 1.8 3.05 4.05.15.3.35.55-.75 1.65-.75 2.6 0 .95.6 2.1 1 1.9 3.1 1.9.35 0 .8-.05.05.1.1.25 5 9.05 7.2 14.7l14.55-7.45-1.95-3.9-.05.05-.1-.2q.05-.1.15-.2.2-.3.2-.6 0-1.1-1-.95-.15 0-.25.05l-2.55-4.95q.05-.1.1-.15.2-.3.2-.6 0-1.1-1-.95-.1 0-.15.05l-.05-.1.05-.05-2.05-3.95h-.05l-.3-.6q0-.05.05-.1.2-.3.2-.6 0-1.1-1-.95-.05 0-.1.05l-.05-.1h.05l-2-3.8.1-.1q.2-.3.2-.6 0-1.1-1-.95-.1 0-.15.05m1.45 8.2h.05l-.05.05v-.05z"
           id="ObjToo020__Symbol_180_0_Layer0_0_FILL" />
        <path
           fill="#2E0E00"
           d="M15.5 26.65L2.1 0 0 1.05l13.4 26.1h-.05l.25.45 1.9-.95z"
           id="ObjToo020__Symbol_104_0_Layer0_0_FILL" />
        <path
           fill="#621F00"
           d="M125.9 11.85l3.7-3.5 1.25-1q-1.5-2.95-4.2-7.35-41.4 42.8-118.1 64.25-.8.65-1.6 1.1l-.4.2h.05l-.55.35Q4.75 71.85 0 74.95l.2-.05q23.3-5.3 46.45-15.6 49.9-20.5 79.25-47.45z"
           id="ObjToo020__Symbol_64_0_Layer0_0_FILL" />
        <path
           fill="#CCC"
           d="M318.45 221.45l-20.25.85q.132-.136.25-.3.502-.603 2.45-3.45l8.55-12.4-23.55 13.6-5.2 11.1-.1.8q.616.232 1.25.35-.25.747-.5 1.8l13.45 1.35 23.65-13.7z"
           id="ObjToo020__Layer5_1_FILL" />
        <path
           fill="#652801"
           d="M271.6 228.7h-.05l.95 1.85 10.5-4.5 1.2-2.65-12.6 5.3m32.3-7.9l-1.15-1.95-27.9 16.1-.05.05 1.05 2 28.05-16.2m-9.1 14.35l-2.3-.25-14.3 6.7 1.05 2 .05-.05 28.75-13.45-.95-2.05-12.3 7.1m5-27.45l-1.15-1.9-30 17.35 1.05 2 30.1-17.45z"
           id="ObjToo020__Layer5_2_FILL" />
        <g
           id="ObjToo020__Layer5_0_FILL">
          <path
             fill="#563A29"
             d="M270.2 231.5v.05l.05-.05h-.05z"
             id="path203" />
          <path
             fill="#999"
             d="M283.55 239.1l1.25-.6q-.265 1.221-.3 2.65l13.3 2.45 24.7-11.55-17.9-.3q-1.687-.246-3.25-.4l2.35-1.35 11.2-14-14.05 6.55L286 231.1l.3 3.2-2.75 4.8m16.25-19.75l-.75-2.5 4.75-2.45-.1.2 10.65-6.2-17.85 1.2q-1.64.127-3.05.25.937-1.044 1.9-2.2l10.05-14.6-23.6 13.65-5.65 12.1q.826 1.11 1.95 1.45l-.8.5 7.8.8.65 7.1 13-7.5q-.35-.242-.35-.85 0-.85 1-.95.25-.037.4 0z"
             id="path205" />
          <path
             d="M113.9 327l.1-.1-.1.05v.05M83.75 214.45v.05h.1q-.05-.05-.1-.05z"
             id="path207" />
          <path
             fill="#252525"
             d="M83.85 214.5h-.1l30.15 112.45.1-.05q.15-.2.35-.4.1-.2.25-.4 0-.1.05-.15L84.95 215q-.1-.05-.15-.1-.25-.15-.45-.25-.25-.1-.5-.15z"
             id="path209" />
        </g>
      </defs>
      <use
         xlink:href="#ObjToo020__Symbol_180_0_Layer0_0_FILL"
         transform="translate(76.85 204.2)"
         id="ObjToo020__col1n" />
      <use
         xlink:href="#ObjToo020__Symbol_104_0_Layer0_0_FILL"
         transform="translate(260.55 223.5)"
         id="ObjToo020__col1s" />
      <use
         xlink:href="#ObjToo020__Symbol_64_0_Layer0_0_FILL"
         transform="translate(128.65 232.85)"
         id="ObjToo020__col2n" />
      <use
         xlink:href="#ObjToo020__Layer5_0_FILL"
         id="use217" />
      <use
         xlink:href="#ObjToo020__Layer5_1_FILL"
         id="use219" />
      <use
         xlink:href="#ObjToo020__Layer5_2_FILL"
         id="use221" />
    </g>
  </g>
  <g
     id="g241">
    <g
       id="g239">
      <defs
         id="defs235">
        <filter
           id="Watermark__Filter_1"
           x="-20%"
           y="-20%"
           width="140%"
           height="140%"
           color-interpolation-filters="sRGB">
          <feColorMatrix
             in="SourceGraphic"
             values="1 0 0 0 0 0 1 0 0 0 0 0 1 0 0 0 0 0 0.49 0"
             result="result1"
             id="feColorMatrix227" />
        </filter>
        <g
           id="Watermark__Symbol_121_0_Layer0_0_FILL">
          <path
             d="M6.4 1q.05-.15 0-.25-.1-.1-.2-.15Q4.8 0 3.5 0 1.9 0 1.05.7q-1 .7-1 2.05 0 .65.3 1.2.2.45.6.85l.05.05q.4.35 1.25.75.85.35 1.05.5h.05q.1 0 .15.1v.1q0 .1-.05.15l-.05.05q-.15.05-.5.05-.5 0-1.15-.15v.05q-.6-.25-1.25-.5-.1-.1-.25-.05-.1.05-.15.15-.1.1-.1.2V8.2q0 .1.05.2t.2.15q.6.25 1.15.4h.05q.6.1 1.45.1 1.05 0 1.8-.3.85-.4 1.25-1.05.45-.7.45-1.6 0-.9-.45-1.55-.45-.6-1.65-1.1l-1.2-.6V2.8q-.1-.05-.15-.15 0-.1.05-.1.15-.1.45-.1.75 0 1.8.55h.2q.1 0 .2-.05l.1-.2L6.4 1m-.75.1l-.4 1.1q-1.05-.45-1.8-.45-.6 0-.85.25-.35.25-.35.65-.05.4.45.75.2.15 1.3.7h.05q.95.35 1.35.85.3.45.3 1.15t-.35 1.2q-.3.45-.95.8-.65.25-1.5.25-.75 0-1.35-.1h.05Q1.15 8.15.7 8V6.8q.45.15.85.3h.05q.7.15 1.3.15.6 0 .9-.2.4-.25.4-.75 0-.25-.05-.4-.2-.3-.55-.45-.2-.1-1.05-.5-.7-.35-1.1-.65-.3-.3-.45-.65-.25-.45-.25-.9 0-.95.75-1.5h-.05Q2.2.7 3.5.7q1.05 0 2.15.4m7.9 1.95q0-1.35-.85-2.15-.85-.8-2.55-.8H7.3q-.15 0-.25.1t-.1.25V8.6q0 .15.1.25t.25.1h2.2q.15 0 .25-.1t.1-.25V6.2h.3q1.6 0 2.55-.75V5.4q.85-.85.85-2.35M10.15.8q1.4 0 2.05.6.65.6.65 1.65 0 1.15-.6 1.85h-.05q-.75.6-2.05.6H9.5q-.15 0-.25.1t-.1.25v2.4h-1.5V.8h2.5m.8 3.35q0-.05.05-.05.3-.4.3-1 0-1.25-1.2-1.25h-.6q-.15 0-.25.1t-.1.25v1.9q0 .15.1.25t.25.1h.4q.65 0 1.05-.3M10.6 3.1q0 .3-.15.5-.2.15-.55.15h-.05v-1.2h.25q.5 0 .5.55M30.65.45q0-.15-.1-.25T30.3.1h-6.2q-.15 0-.25.1t-.1.25v.3Q23.7.65 23.6.6 22.2 0 20.9 0q-1.6 0-2.45.7-1 .7-1 2.05 0 .6.25 1.2.2.45.6.85l.05.05q.45.35 1.3.75.85.35 1 .45.05 0 .1.05.05 0 .05.05.05.1.15.2 0 .05-.05.1-.2.1-.55.1-.55 0-1.2-.15v.05q-.6-.25-1.25-.5-.1-.1-.2-.05-.15.05-.2.15-.097.048-.1.2V4.7q0-.15-.1-.25t-.25-.1h-3.2q-.15 0-.25.1t-.1.25v1.75q0 .15.1.25t.25.1h3.2q.15 0 .25-.1.097-.097.1-.2v1.7q0 .1.05.2t.2.15q.6.25 1.15.4h.05q.55.1 1.4.1 1.1 0 1.85-.3.85-.4 1.25-1.05.45-.7.45-1.6 0-.9-.45-1.55-.45-.6-1.65-1.1-.95-.45-1.2-.6-.15-.1-.15-.2t.05-.1l.05-.05q.1-.05.35-.05.8 0 1.8.55h.2q.05 0 .15-.05l.15-.15.65-1.7v1.15q0 .15.1.25t.25.1h1.65v6q0 .15.1.25t.25.1h2.15q.15 0 .25-.1t.1-.25v-6h1.7q.15 0 .25-.1t.1-.25V.45m-.7.35v1.1h-1.7q-.15 0-.25.1t-.1.25v6h-1.45v-6q0-.15-.1-.25t-.25-.1h-1.65V.8h5.5M22.6 2.2q-1-.45-1.8-.45-.65 0-.85.25H20q-.35.25-.35.65t.4.75h.05q.25.15 1.3.7h.05q.95.35 1.35.85.3.45.3 1.15t-.35 1.2q-.3.45-.95.8-.65.25-1.55.25-.75 0-1.25-.1-.45-.1-.9-.25V6.8q.45.15.85.3H19q.7.15 1.35.15.55 0 .9-.2.4-.25.4-.75 0-.25-.2-.45-.1-.3-.45-.4h.05q-.15-.1-1.1-.5-.75-.35-1.15-.65-.3-.3-.45-.65v.05q-.2-.45-.2-.95 0-.95.75-1.5h-.05Q19.6.7 20.9.7q1.05 0 2.1.4l-.4 1.1m-5.9 2.85V6.1h-2.5V5.05h2.5m22-4.6q0-.15-.1-.25t-.25-.1h-2.2q-.15 0-.25.1t-.1.25V5.2q0 .75-.2 1.05h-.05q-.2.3-.65.3t-.65-.3q0-.05-.05-.05-.25-.3-.25-1V.45q0-.15-.1-.25T33.6.1h-2.2q-.15 0-.25.1t-.1.25V5.4q0 1.75 1 2.7.95.95 2.8.95 1.85 0 2.85-.95 1-1 1-2.75V.45M36.5 5.2V.8H38v4.55q0 1.45-.8 2.25-.8.75-2.35.75t-2.3-.75q-.8-.75-.8-2.2V.8h1.5v4.4q0 1 .4 1.45.4.6 1.25.6t1.25-.6q.35-.4.35-1.45m10.8-.85q0-2.05-1.15-3.15T42.85.1h-2.8q-.15 0-.25.1t-.1.25V8.6q0 .15.1.25t.25.1h2.6q2.2 0 3.45-1.2 1.2-1.2 1.2-3.4M45.65 1.7q.95.9.95 2.65 0 1.9-1 2.9-1.05 1-2.95 1H40.4V.8h2.45q1.85 0 2.8.9m-2.75.15h-.65q-.15 0-.25.1t-.1.25v4.6q0 .15.1.25t.25.1h.5q1.2 0 1.75-.65v-.05q.5-.65.5-2 0-1.3-.45-1.9-.55-.7-1.65-.7M44 3v-.05q.3.5.3 1.5 0 1.05-.35 1.6-.4.4-1.2.4h-.15v-3.9h.3q.7 0 1.1.45M50.95.45q0-.15-.1-.25T50.6.1h-2.2q-.15 0-.25.1t-.1.25V8.6q0 .15.1.25t.25.1h2.2q.15 0 .25-.1t.1-.25V.45m-2.2.35h1.5v7.45h-1.5V.8M60.3 4.5q0-2.2-1.1-3.35T56 0q-2.1 0-3.2 1.15T51.7 4.5q0 2.2 1.15 3.35 1.05 1.2 3.15 1.2 2.1 0 3.2-1.15t1.1-3.4m-1.6-2.85q.9.95.9 2.85 0 1.95-.9 2.9t-2.7.95q-1.75 0-2.6-.95l-.05-.05q-.95-.95-.95-2.85 0-1.9.9-2.85Q54.2.7 56 .7q1.8 0 2.7.95m-1.15.9Q57 1.8 56 1.8q-1.95-.05-1.95 2.7 0 2.8 1.95 2.75 1 0 1.55-.75.45-.65.45-2t-.45-1.95M56 2.5q.6 0 1 .45.3.5.3 1.55t-.35 1.6H57q-.4.45-1 .45-1.25-.05-1.25-2.05 0-1.95 1.25-2m7.25 5.2q0-.75-.35-1.05-.45-.4-1.15-.4t-1.05.4h-.05q-.4.35-.4 1.05 0 .6.4 1t1.1.4q.7 0 1.1-.4.4-.4.4-1m-.85-.55l.05.05q.1.15.1.5 0 .3-.2.5t-.6.2q-.4 0-.6-.2-.2-.2-.2-.5 0-.35.2-.5v-.05q.2-.2.6-.2.4 0 .65.2m7.95-5.95Q69.2.1 67.1.1h-2.8q-.15 0-.25.1t-.1.25V8.6q0 .15.1.25t.25.1h2.6q2.2 0 3.4-1.2 1.2-1.2 1.2-3.4 0-2.05-1.15-3.15M67.1.8q1.8 0 2.75.9t.95 2.65q0 1.9-1 2.9t-2.9 1h-2.25V.8h2.45m0 1.05h-.6q-.15 0-.25.1t-.1.25v4.6q0 .15.1.25t.25.1h.45q1.2 0 1.75-.65.55-.7.55-2.05 0-1.3-.5-1.9-.55-.7-1.65-.7m-.25.7h.25q.7 0 1.1.45.35.45.35 1.45 0 1.05-.4 1.6-.4.4-1.2.4h-.1v-3.9m10.6 0q.15 0 .25-.1t.1-.25V.45q0-.15-.1-.25t-.25-.1H72.6q-.15 0-.25.1t-.1.25V8.6q0 .15.1.25t.25.1h4.85q.15 0 .25-.1t.1-.25V6.8q0-.15-.1-.25t-.25-.1H75.2v-.8h2.05q.15 0 .25-.1t.1-.25V3.5q0-.15-.1-.25t-.25-.1H75.2v-.6h2.25M77.1.8v1.05h-2.25q-.15 0-.25.1t-.1.25v1.3q0 .15.1.25t.25.1h2.05v1.1h-2.05q-.15 0-.25.1t-.1.25v1.5q0 .15.1.25t.25.1h2.25v1.1h-4.15V.8h4.15z"
             id="path230" />
          <path
             fill="#FFF"
             d="M5.25 2.2l.4-1.1Q4.55.7 3.5.7q-1.3 0-2.05.55h.05q-.75.55-.75 1.5 0 .45.25.9.15.35.45.65.4.3 1.1.65.85.4 1.05.5.35.15.55.45.05.15.05.4 0 .5-.4.75-.3.2-.9.2-.6 0-1.3-.15h-.05q-.4-.15-.85-.3V8q.45.15.9.25h-.05q.6.1 1.35.1.85 0 1.5-.25.65-.35.95-.8.35-.5.35-1.2t-.3-1.15q-.4-.5-1.35-.85H4q-1.1-.55-1.3-.7-.5-.35-.45-.75 0-.4.35-.65.25-.25.85-.25.75 0 1.8.45m6.95-.8q-.65-.6-2.05-.6h-2.5v7.45h1.5v-2.4q0-.15.1-.25t.25-.1h.65q1.3 0 2.05-.6h.05q.6-.7.6-1.85 0-1.05-.65-1.65M11 4.1q-.05 0-.05.05-.4.3-1.05.3h-.4q-.15 0-.25-.1t-.1-.25V2.2q0-.15.1-.25t.25-.1h.6q1.2 0 1.2 1.25 0 .6-.3 1m5.7 2V5.05h-2.5V6.1h2.5m4.1-4.35q.8 0 1.8.45l.4-1.1Q21.95.7 20.9.7q-1.3 0-2.05.55h.05q-.75.55-.75 1.5 0 .5.2.95v-.05q.15.35.45.65.4.3 1.15.65.95.4 1.1.5H21q.35.1.45.4.2.2.2.45 0 .5-.4.75-.35.2-.9.2-.65 0-1.35-.15h-.05q-.4-.15-.85-.3V8q.45.15.9.25.5.1 1.25.1.9 0 1.55-.25.65-.35.95-.8.35-.5.35-1.2t-.3-1.15q-.4-.5-1.35-.85h-.05q-1.05-.55-1.3-.7h-.05q-.4-.35-.4-.75T20 2h-.05q.2-.25.85-.25m9.15.15V.8h-5.5v1.1h1.65q.15 0 .25.1t.1.25v6h1.45v-6q0-.15.1-.25t.25-.1h1.7M36.5.8v4.4q0 1.05-.35 1.45-.4.6-1.25.6t-1.25-.6q-.4-.45-.4-1.45V.8h-1.5v4.6q0 1.45.8 2.2.75.75 2.3.75 1.55 0 2.35-.75.8-.8.8-2.25V.8h-1.5m10.1 3.55q0-1.75-.95-2.65-.95-.9-2.8-.9H40.4v7.45h2.25q1.9 0 2.95-1 1-1 1-2.9m-4.35-2.5h.65q1.1 0 1.65.7.45.6.45 1.9 0 1.35-.5 2v.05q-.55.65-1.75.65h-.5q-.15 0-.25-.1t-.1-.25V2.2q0-.15.1-.25t.25-.1m8-1.05h-1.5v7.45h1.5V.8m9.35 3.7q0-1.9-.9-2.85Q57.8.7 56 .7q-1.8 0-2.7.95-.9.95-.9 2.85 0 1.9.95 2.85l.05.05q.85.95 2.6.95 1.8 0 2.7-.95.9-.95.9-2.9M56 1.8q1 0 1.55.75.45.6.45 1.95t-.45 2q-.55.75-1.55.75-1.95.05-1.95-2.75 0-2.75 1.95-2.7m6.45 5.4l-.05-.05q-.25-.2-.65-.2t-.6.2v.05q-.2.15-.2.5 0 .3.2.5t.6.2q.4 0 .6-.2.2-.2.2-.5 0-.35-.1-.5m7.4-5.5Q68.9.8 67.1.8h-2.45v7.45h2.25q1.9 0 2.9-1t1-2.9q0-1.75-.95-2.65m-3.35.15h.6q1.1 0 1.65.7.5.6.5 1.9 0 1.35-.55 2.05-.55.65-1.75.65h-.45q-.15 0-.25-.1t-.1-.25V2.2q0-.15.1-.25t.25-.1m10.6 0V.8h-4.15v7.45h4.15v-1.1h-2.25q-.15 0-.25-.1t-.1-.25V5.3q0-.15.1-.25t.25-.1h2.05v-1.1h-2.05q-.15 0-.25-.1t-.1-.25V2.2q0-.15.1-.25t.25-.1h2.25z"
             id="path232" />
        </g>
      </defs>
      <use
         filter="url(#Watermark__Filter_1)"
         xlink:href="#Watermark__Symbol_121_0_Layer0_0_FILL"
         transform="translate(304.4 372.3)"
         id="use237" />
    </g>
  </g>
</svg>
