<?xml version="1.0" encoding="UTF-8" standalone="no"?>
<svg class="img-fluid" id="outputsvg" xmlns="http://www.w3.org/2000/svg" style="transform: matrix(1, 0, 0, 1, 0, -1); transform-origin: 50% 50% 0px; cursor: move; max-height: none; transition: none 0s ease 0s;" viewBox="0 0 5000 5000">
  <g id="l6PjQbLtvwu64v6ct0tBzn3" fill="rgb(128,32,0)" style="transform: none;">
    <g>
      <path id="pxYjQTErL" d="M1560 4845 l0 -155 -310 0 -310 0 0 -160 0 -160 -155 0 -155 0 0 -155 0 -155 -160 0 -160 0 0 -310 0 -310 -155 0 -155 0 0 -330 0 -330 170 0 170 0 0 315 0 315 160 0 160 0 0 310 0 310 155 0 155 0 0 155 0 155 310 0 310 0 0 160 0 160 910 0 910 0 0 -160 0 -160 340 0 c296 0 340 2 340 15 0 8 -7 15 -15 15 -13 0 -15 24 -15 160 l0 160 -310 0 -310 0 0 155 0 155 -940 0 -940 0 0 -155z"></path>
      <path id="p1G9z2Vp3a" d="M3100 4075 c0 -8 7 -15 15 -15 13 0 15 -24 15 -155 l0 -155 170 0 170 0 0 170 0 170 -185 0 c-158 0 -185 -2 -185 -15z"></path>
      <path id="puhI3xuRU" d="M3750 3295 l0 -175 155 0 155 0 0 -325 0 -325 175 0 175 0 0 340 0 340 -160 0 -160 0 0 160 0 160 -170 0 -170 0 0 -175z"></path>
      <path id="pWiZ5ayTh" d="M4060 1885 c0 -13 -24 -15 -155 -15 l-155 0 0 -170 0 -170 170 0 170 0 0 185 c0 158 -2 185 -15 185 -8 0 -15 -7 -15 -15z"></path>
      <path id="p115yoW0It" d="M1530 1080 l0 -170 160 0 160 0 0 -160 0 -160 655 0 655 0 0 160 0 160 155 0 155 0 0 170 0 170 -170 0 -170 0 0 -155 0 -155 -625 0 -625 0 0 155 0 155 -175 0 -175 0 0 -170z"></path>
    </g>
  </g>
  <g id="l4flhyZkhyZ0bWyBnX21eeS" fill="rgb(160,96,0)" style="transform: none;">
    <g>
      <path id="p1Ayz5K0c6" d="M310 2825 c0 -13 -24 -15 -155 -15 l-155 0 0 -625 0 -625 155 0 155 0 0 -310 0 -310 160 0 c136 0 160 -2 160 -15 0 -8 7 -15 15 -15 13 0 15 44 15 340 l0 340 -160 0 -160 0 0 625 c0 549 -2 625 -15 625 -8 0 -15 -7 -15 -15z"></path>
      <path id="p5iWulpBA" d="M4380 2515 c0 -13 -24 -15 -160 -15 l-160 0 0 -330 0 -330 175 0 175 0 0 345 c0 300 -2 345 -15 345 -8 0 -15 -7 -15 -15z"></path>
      <path id="pj2iOwhHO" d="M910 1715 l0 -185 170 0 170 0 0 170 0 170 -155 0 c-131 0 -155 2 -155 15 0 8 -7 15 -15 15 -13 0 -15 -27 -15 -185z"></path>
      <path id="p1FEjq6AMC" d="M4060 1575 c0 -13 -24 -15 -155 -15 l-155 0 0 -155 0 -155 -155 0 -155 0 0 -155 c0 -131 -2 -155 -15 -155 -8 0 -15 -7 -15 -15 0 -13 27 -15 185 -15 l185 0 0 155 0 155 155 0 155 0 0 185 c0 158 -2 185 -15 185 -8 0 -15 -7 -15 -15z"></path>
    </g>
  </g>
  <g id="l2fXglTR5rufrDhKElXJwuZ" fill="rgb(224,128,0)" style="transform: none;">
    <g>
      <path id="pyvyzCWzu" d="M1560 4530 c0 -136 -2 -160 -15 -160 -8 0 -15 -7 -15 -15 0 -13 28 -15 190 -15 l190 0 0 175 0 175 -175 0 -175 0 0 -160z"></path>
      <path id="pHAPQQJ1Z" d="M3100 4515 l0 -175 185 0 c158 0 185 2 185 15 0 8 -7 15 -15 15 -13 0 -15 24 -15 160 l0 160 -170 0 -170 0 0 -175z"></path>
      <path id="pUPnYSad3" d="M940 4215 l0 -155 -155 0 -155 0 0 -170 0 -170 170 0 170 0 0 155 0 155 155 0 155 0 0 170 0 170 -170 0 -170 0 0 -155z"></path>
      <path id="pFwj535e9" d="M3720 4230 l0 -140 -155 0 c-131 0 -155 -2 -155 -15 0 -8 7 -15 15 -15 13 0 15 -24 15 -155 l0 -155 155 0 155 0 0 -155 0 -155 155 0 155 0 0 -160 0 -160 160 0 c136 0 160 -2 160 -15 0 -8 7 -15 15 -15 13 0 15 28 15 190 l0 190 -160 0 -160 0 0 155 0 155 -155 0 -155 0 0 125 0 125 285 0 285 0 0 -155 0 -155 170 0 170 0 0 170 0 170 -155 0 -155 0 0 155 0 155 -330 0 -330 0 0 -140z"></path>
      <path id="p1658KrZLl" d="M630 3455 c0 -13 -24 -15 -160 -15 l-160 0 0 -175 0 -175 175 0 175 0 0 190 c0 162 -2 190 -15 190 -8 0 -15 -7 -15 -15z"></path>
      <path id="p1Gtu18MJU" d="M4660 3280 l0 -190 170 0 170 0 0 175 0 175 -155 0 c-131 0 -155 2 -155 15 0 8 -7 15 -15 15 -13 0 -15 -28 -15 -190z"></path>
      <path id="pbuZGKMjt" d="M310 1730 l0 -170 160 0 c136 0 160 -2 160 -15 0 -8 7 -15 15 -15 13 0 15 27 15 185 l0 185 -175 0 -175 0 0 -170z"></path>
      <path id="pgAQRQygp" d="M4380 1885 c0 -13 -24 -15 -160 -15 l-160 0 0 -170 0 -170 175 0 175 0 0 185 c0 158 -2 185 -15 185 -8 0 -15 -7 -15 -15z"></path>
      <path id="p1GqaRLO4L" d="M910 1435 l0 -155 -140 0 -140 0 0 -330 0 -330 155 0 155 0 0 -155 0 -155 170 0 170 0 0 170 0 170 -155 0 -155 0 0 285 0 285 125 0 125 0 0 -155 0 -155 155 0 155 0 0 -160 0 -160 190 0 c162 0 190 2 190 15 0 8 -7 15 -15 15 -13 0 -15 24 -15 160 l0 160 -160 0 -160 0 0 155 0 155 -155 0 -155 0 0 155 0 155 -155 0 c-131 0 -155 2 -155 15 0 8 -7 15 -15 15 -13 0 -15 -24 -15 -155z"></path>
      <path id="pa3nVYWf9" d="M4060 1265 c0 -13 -24 -15 -155 -15 l-155 0 0 -155 c0 -131 -2 -155 -15 -155 -8 0 -15 -7 -15 -15 0 -13 27 -15 185 -15 l185 0 0 185 c0 158 -2 185 -15 185 -8 0 -15 -7 -15 -15z"></path>
      <path id="p19vvKfw8Z" d="M3130 780 c0 -136 -2 -160 -15 -160 -8 0 -15 -7 -15 -15 0 -13 27 -15 185 -15 l185 0 0 175 0 175 -170 0 -170 0 0 -160z"></path>
      <path id="pmwiBO6RF" d="M1530 325 c0 -8 7 -15 15 -15 13 0 15 -24 15 -155 l0 -155 175 0 175 0 0 170 0 170 -190 0 c-162 0 -190 -2 -190 -15z"></path>
    </g>
  </g>
  <g id="l2FPn76lCqIsuai84dsJIX4" fill="rgb(224,224,0)" style="transform: none;">
    <g>
      <path id="p9G8awC4p" d="M1880 4530 c0 -136 -2 -160 -15 -160 -8 0 -15 -7 -15 -15 0 -13 58 -15 465 -15 l465 0 0 -140 0 -140 485 0 485 0 0 -155 0 -155 155 0 155 0 0 -155 0 -155 160 0 160 0 0 -940 0 -940 -160 0 -160 0 0 -170 0 -170 175 0 175 0 0 155 0 155 140 0 c118 0 140 2 140 15 0 8 7 15 15 15 13 0 15 74 15 610 l0 610 140 0 140 0 0 170 0 170 -155 0 -155 0 0 315 0 315 -155 0 -155 0 0 155 0 155 -315 0 -315 0 0 155 0 155 -310 0 -310 0 0 160 0 160 -625 0 -625 0 0 -160z"></path>
      <path id="pI02s4QK3" d="M1250 4215 l0 -155 -155 0 -155 0 0 -155 0 -155 -155 0 -155 0 0 -170 0 -170 140 0 140 0 0 -160 c0 -136 2 -160 15 -160 8 0 15 7 15 15 0 13 24 15 155 15 l155 0 0 175 0 175 -140 0 -140 0 0 125 0 125 140 0 c118 0 140 2 140 15 0 8 7 15 15 15 13 0 15 22 15 140 l0 140 125 0 125 0 0 -140 0 -140 175 0 175 0 0 155 c0 131 2 155 15 155 8 0 15 7 15 15 0 13 -24 15 -160 15 l-160 0 0 140 0 140 -170 0 -170 0 0 -155z"></path>
      <path id="pXdNIFSsH" d="M630 3135 c0 -13 -24 -15 -160 -15 l-160 0 0 -625 0 -625 160 0 160 0 0 -310 0 -310 155 0 155 0 0 -315 0 -315 155 0 155 0 0 -155 0 -155 315 0 315 0 0 -155 0 -155 170 0 170 0 0 140 0 140 610 0 c536 0 610 2 610 15 0 8 7 15 15 15 13 0 15 22 15 140 l0 140 155 0 155 0 0 175 0 175 -170 0 -170 0 0 -160 0 -160 -940 0 -940 0 0 160 0 160 -155 0 -155 0 0 155 0 155 -155 0 -155 0 0 485 0 485 -140 0 -140 0 0 465 c0 407 -2 465 -15 465 -8 0 -15 -7 -15 -15z"></path>
    </g>
  </g>
  <g id="l5WESzH5CqmtPCtLLRhcCLE" fill="rgb(255,253,235)" style="transform: none;">
    <g>
      <path id="p1edmM2PY" d="M1560 4215 l0 -155 -155 0 -155 0 0 -155 0 -155 -155 0 -155 0 0 -155 0 -155 -155 0 -155 0 0 -625 0 -625 155 0 155 0 0 625 0 625 155 0 155 0 0 155 0 155 155 0 155 0 0 155 0 155 625 0 625 0 0 155 0 155 -625 0 -625 0 0 -155z"></path>
      <path id="p65jCYkLk" d="M4690 2185 l0 -625 -155 0 -155 0 0 -155 0 -155 -160 0 -160 0 0 -155 0 -155 -155 0 -155 0 0 -160 0 -160 -155 0 -155 0 0 -155 0 -155 -625 0 -625 0 0 -155 0 -155 625 0 625 0 0 155 0 155 310 0 310 0 0 155 0 155 160 0 160 0 0 160 0 160 155 0 155 0 0 310 0 310 155 0 155 0 0 625 0 625 -155 0 -155 0 0 -625z"></path>
    </g>
  </g>
</svg>
